<svg width="320" height="291" viewBox="0 0 320 291" fill="none" xmlns="http://www.w3.org/2000/svg">
<g opacity="0.2">
<path d="M282.542 15.7793H191.294C188.572 15.7793 186.366 17.9856 186.366 20.7073V23.2115C186.366 25.9332 188.572 28.1395 191.294 28.1395H282.542C285.263 28.1395 287.47 25.9332 287.47 23.2115V20.7073C287.47 17.9856 285.263 15.7793 282.542 15.7793Z" stroke="#171717" stroke-linejoin="round"/>
<path d="M271.88 18.6322V24.4128" stroke="#171717" stroke-width="0.5" stroke-linejoin="round"/>
<path d="M267.389 18.6865L261.97 24.1046" stroke="#171717" stroke-linejoin="round"/>
<path d="M261.97 18.6865L267.389 24.1046" stroke="#171717" stroke-linejoin="round"/>
<path d="M281.347 24.259C281.308 24.309 281.259 24.3504 281.203 24.3804C281.148 24.4105 281.086 24.4286 281.023 24.4337C280.96 24.4388 280.896 24.4306 280.837 24.4098C280.777 24.389 280.722 24.3559 280.675 24.3127L278.453 22.2986L278.876 21.795L281.26 23.6212C281.355 23.6944 281.418 23.8026 281.435 23.9221C281.451 24.0416 281.42 24.1627 281.347 24.259Z" fill="#263238" stroke="#171717" stroke-linejoin="round"/>
<path d="M275.64 19.519C275.377 19.8387 275.215 20.2291 275.173 20.6411C275.132 21.053 275.214 21.4679 275.408 21.8334C275.602 22.1989 275.901 22.4987 276.265 22.6948C276.63 22.8909 277.045 22.9745 277.457 22.9352C277.869 22.8958 278.26 22.7353 278.581 22.4737C278.902 22.2122 279.138 21.8615 279.26 21.4658C279.381 21.0701 279.383 20.6472 279.265 20.2505C279.146 19.8538 278.913 19.5012 278.594 19.237C278.382 19.0603 278.137 18.9273 277.874 18.8457C277.61 18.7642 277.333 18.7357 277.058 18.7619C276.784 18.7881 276.517 18.8685 276.273 18.9985C276.03 19.1284 275.815 19.3053 275.64 19.519ZM278.641 21.9964C278.415 22.2697 278.114 22.47 277.774 22.5719C277.435 22.6738 277.073 22.6728 276.734 22.5689C276.395 22.465 276.094 22.2629 275.87 21.9883C275.646 21.7136 275.508 21.3787 275.474 21.0258C275.441 20.6729 275.512 20.318 275.68 20.0058C275.848 19.6936 276.105 19.4382 276.418 19.2719C276.731 19.1056 277.086 19.0358 277.439 19.0714C277.792 19.1071 278.126 19.2465 278.399 19.472C278.581 19.6218 278.731 19.806 278.842 20.014C278.952 20.222 279.021 20.4497 279.043 20.6841C279.066 20.9186 279.042 21.1551 278.973 21.3803C278.904 21.6055 278.791 21.8148 278.641 21.9964Z" stroke="#171717" stroke-linejoin="round"/>
</g>
<path d="M92.9565 38.1303C92.7516 38.3782 92.499 38.5823 92.2138 38.7308C91.9286 38.8793 91.6164 38.969 91.2959 38.9947C90.9754 39.0203 90.653 38.9814 90.3477 38.8802C90.0425 38.7791 89.7607 38.6177 89.519 38.4056L78.6694 28.5362C79.1227 28.1443 79.5426 27.7154 79.9249 27.2539C80.3092 26.7984 80.6508 26.3084 80.9454 25.7903L92.5805 34.6996C92.8346 34.8971 93.0465 35.1437 93.2035 35.4247C93.3606 35.7057 93.4595 36.0154 93.4946 36.3354C93.5297 36.6554 93.5001 36.9791 93.4077 37.2875C93.3152 37.5958 93.1618 37.8824 92.9565 38.1303Z" stroke="#CCCCCC" stroke-linejoin="round"/>
<path d="M78.4208 11.7645C79.7456 12.8211 80.8016 14.1762 81.5025 15.7189C82.2204 17.3289 82.542 19.0875 82.4404 20.8473C82.3388 22.6072 81.8168 24.3171 80.9184 25.8337C80.0199 27.3503 78.771 28.6295 77.2764 29.5642C75.7818 30.4988 74.085 31.0616 72.3281 31.2054C70.5712 31.3493 68.8054 31.07 67.1786 30.3909C65.5519 29.7119 64.1116 28.6528 62.9784 27.3026C61.8452 25.9523 61.0521 24.3501 60.6655 22.6302C60.279 20.9103 60.3102 19.1229 60.7567 17.4175C61.2186 15.6235 62.1279 13.9758 63.3995 12.6286C64.6711 11.2814 66.2635 10.2786 68.028 9.71389C69.7924 9.14922 71.6711 9.04114 73.4887 9.39976C75.3062 9.75837 77.0031 10.572 78.4208 11.7645ZM78.6693 26.2395C77.4782 27.6771 75.8876 28.7292 74.0987 29.2628C72.3097 29.7964 70.4027 29.7876 68.6187 29.2375C66.8348 28.6874 65.254 27.6207 64.0762 26.1722C62.8985 24.7237 62.1767 22.9586 62.0021 21.0999C61.8275 19.2412 62.2079 17.3725 63.0953 15.73C63.9827 14.0876 65.3372 12.7451 66.9875 11.8724C68.6377 10.9996 70.5098 10.6358 72.3668 10.8269C74.2239 11.0181 75.9825 11.7556 77.4205 12.9461C78.3763 13.7363 79.1669 14.7073 79.747 15.8034C80.3271 16.8994 80.6855 18.0992 80.8014 19.3339C80.9174 20.5686 80.7888 21.8141 80.423 22.999C80.0571 24.184 79.4612 25.2851 78.6693 26.2395Z" stroke="#CCCCCC" stroke-linejoin="round"/>
<path d="M252.189 281.311C252.012 281.122 251.875 280.899 251.787 280.656C251.698 280.412 251.659 280.154 251.672 279.895C251.685 279.637 251.75 279.383 251.863 279.15C251.976 278.917 252.135 278.709 252.33 278.539L261.346 270.905C261.611 271.308 261.91 271.688 262.239 272.04C262.563 272.395 262.918 272.721 263.3 273.013L254.968 281.379C254.784 281.562 254.564 281.705 254.323 281.801C254.082 281.897 253.824 281.944 253.564 281.937C253.304 281.931 253.049 281.873 252.812 281.765C252.576 281.657 252.364 281.503 252.189 281.311Z" stroke="#CCCCCC" stroke-linejoin="round"/>
<path d="M274.774 272.476C273.785 273.41 272.592 274.1 271.289 274.49C269.151 275.155 266.843 275.008 264.806 274.077C262.769 273.147 261.147 271.499 260.249 269.448C259.351 267.396 259.24 265.086 259.938 262.958C260.636 260.831 262.094 259.035 264.032 257.914C265.971 256.794 268.255 256.427 270.447 256.884C272.639 257.341 274.585 258.59 275.915 260.392C277.244 262.194 277.862 264.423 277.652 266.652C277.442 268.881 276.417 270.955 274.774 272.476ZM263.179 271.174C262.154 270.072 261.479 268.691 261.239 267.205C260.999 265.719 261.205 264.196 261.832 262.827C262.458 261.459 263.476 260.307 264.757 259.517C266.038 258.727 267.525 258.336 269.029 258.391C270.533 258.446 271.987 258.947 273.206 259.829C274.426 260.711 275.356 261.934 275.88 263.345C276.404 264.756 276.497 266.291 276.148 267.755C275.8 269.219 275.025 270.547 273.921 271.57C273.19 272.249 272.332 272.778 271.396 273.126C270.461 273.474 269.466 273.634 268.468 273.597C267.471 273.56 266.49 273.327 265.583 272.912C264.675 272.496 263.858 271.905 263.179 271.174Z" stroke="#CCCCCC" stroke-linejoin="round"/>
<g opacity="0.2">
<path d="M49.6252 256.296L34.2237 271.705" stroke="#171717" stroke-linejoin="round"/>
<path d="M34.2237 256.296L49.6252 271.705" stroke="#171717" stroke-linejoin="round"/>
</g>
<g opacity="0.2">
<path d="M306.765 111.277L291.364 126.685" stroke="#171717" stroke-linejoin="round"/>
<path d="M291.364 111.277L306.765 126.685" stroke="#171717" stroke-linejoin="round"/>
</g>
<g opacity="0.2">
<path d="M25.4552 23.3258L10.0536 38.7341" stroke="#171717" stroke-linejoin="round"/>
<path d="M10.0536 23.3258L25.4552 38.7341" stroke="#171717" stroke-linejoin="round"/>
</g>
<path d="M39.4402 120.703C39.4805 120.703 38.8696 118.145 38.8159 117.984C38.1445 116.164 35.8148 113.036 33.6462 113.11C33.2868 113.132 32.9361 113.229 32.617 113.396C32.2979 113.563 32.0177 113.795 31.7946 114.078C31.5715 114.361 31.4106 114.687 31.3225 115.036C31.2343 115.386 31.2208 115.749 31.2829 116.104C31.491 117.621 32.901 118.877 34.1564 119.582C35.6402 120.408 39.4335 120.703 39.4402 120.703Z" fill="#263238"/>
<path d="M43.0859 103.207C41.0717 104.006 40.1855 107.813 40.3131 109.746C40.3131 109.914 40.7965 112.506 40.83 112.486H40.8703C40.7293 113.083 40.5749 113.728 40.4272 114.439C40.1654 115.782 39.8834 117.226 39.682 118.864C39.4446 120.62 39.3101 122.389 39.2791 124.161C39.2408 126.147 39.3755 128.133 39.682 130.096C39.6851 130.121 39.6851 130.145 39.682 130.17C39.4 129.599 38.5406 128.042 38.4668 127.927C37.3456 126.35 34.2639 123.946 32.196 124.571C31.8556 124.688 31.5436 124.876 31.2804 125.122C31.0171 125.368 30.8085 125.666 30.668 125.998C30.5274 126.33 30.4582 126.687 30.4647 127.047C30.4711 127.407 30.5532 127.762 30.7056 128.089C31.3031 129.492 32.995 130.331 34.3982 130.68C35.9759 131.07 39.4537 130.425 39.729 130.378C40.096 132.367 40.5939 134.329 41.2194 136.253C41.5753 137.374 41.9714 138.488 42.3809 139.61C42.1191 139.126 41.8774 138.696 41.8371 138.643C40.7226 137.058 37.641 134.655 35.5664 135.286C35.2261 135.403 34.9143 135.59 34.6511 135.835C34.3879 136.08 34.1792 136.378 34.0386 136.709C33.8981 137.04 33.8288 137.398 33.8352 137.757C33.8416 138.117 33.9236 138.471 34.0759 138.797C34.6802 140.207 36.372 141.04 37.7752 141.389C39.1784 141.738 42.1728 141.254 42.9583 141.113C43.1195 141.536 43.2739 141.966 43.4417 142.396C44.2205 144.41 45.0128 146.478 45.7312 148.499C45.9863 149.21 46.2078 149.922 46.4025 150.634C46.1676 150.204 45.9661 149.848 45.9326 149.794C44.8181 148.217 41.7297 145.813 39.6618 146.438C39.3207 146.554 39.008 146.742 38.7442 146.987C38.4804 147.233 38.2713 147.532 38.1307 147.864C37.99 148.196 37.921 148.553 37.928 148.914C37.935 149.274 38.0179 149.629 38.1714 149.956C38.7689 151.359 40.4608 152.198 41.864 152.547C43.2672 152.896 45.9729 152.453 46.9061 152.292C47.1142 153.031 47.329 153.762 47.4969 154.487C47.5976 154.978 47.7386 155.448 47.8124 155.951C47.8863 156.455 47.987 156.938 48.0676 157.428C48.2018 158.368 48.3428 159.342 48.4436 160.268C48.5174 160.939 48.5778 161.524 48.645 162.141C48.4033 161.43 47.893 160.04 47.8393 159.932C47.027 158.455 45.8536 157.208 44.4287 156.307C44.3408 156.138 44.2398 155.976 44.1265 155.823C43.9196 155.53 43.6534 155.282 43.345 155.098C43.0366 154.913 42.6929 154.795 42.3361 154.751C41.9793 154.708 41.6173 154.739 41.2734 154.844C40.9296 154.949 40.6116 155.125 40.3399 155.36C38.7488 156.831 39.2859 160.731 40.0982 162.463C40.1519 162.564 40.7696 163.632 41.2127 164.296L40.2996 163.236C39.6685 162.517 39.024 161.819 38.3325 161.067L37.2784 160.006C36.936 159.637 36.5265 159.301 36.1505 158.945C35.2508 158.133 34.3042 157.361 33.3374 156.596C33.9618 156.045 36.1572 154.064 36.7682 152.742C37.3791 151.419 37.7752 149.586 37.0501 148.237C36.8905 147.915 36.665 147.629 36.388 147.4C36.1111 147.171 35.789 147.002 35.4427 146.905C35.0964 146.808 34.7336 146.785 34.3778 146.838C34.0221 146.89 33.6813 147.017 33.3777 147.21C31.5784 148.418 31.5247 152.332 32.0349 154.192C32.0685 154.306 32.6056 155.595 32.9144 156.3C32.3303 155.844 31.7462 155.394 31.1352 154.957C29.3762 153.695 27.5635 152.467 25.7642 151.231L24.1126 150.097C24.3408 149.902 27.0062 147.599 27.6843 146.115C28.2886 144.772 28.6914 142.966 27.9663 141.617C27.8089 141.292 27.5843 141.004 27.3075 140.772C27.0307 140.54 26.7079 140.369 26.3604 140.271C26.0128 140.172 25.6483 140.149 25.291 140.201C24.9337 140.254 24.5915 140.382 24.2871 140.576C22.4878 141.792 22.4341 145.699 22.9444 147.559C22.9846 147.7 23.7634 149.573 23.985 150.016C22.7698 149.177 21.5747 148.331 20.4267 147.445C18.8735 146.26 17.3979 144.978 16.0089 143.604C16.1097 143.51 18.9026 141.12 19.5941 139.576C20.1984 138.233 20.6079 136.427 19.8828 135.078C19.7204 134.761 19.4938 134.481 19.2176 134.256C18.9413 134.031 18.6214 133.866 18.278 133.772C17.9346 133.677 17.5753 133.655 17.2228 133.706C16.8704 133.758 16.5325 133.882 16.2305 134.071C14.4379 135.286 14.3842 139.193 14.8877 141.053C14.928 141.201 15.7673 143.195 15.9418 143.544C15.8612 143.463 15.7673 143.389 15.6934 143.309C14.3377 141.89 13.111 140.353 12.0276 138.717C11.4234 137.824 10.8863 136.931 10.3895 136.031C10.9534 135.635 13.5181 133.815 14.2969 132.52C15.0757 131.224 15.6397 129.498 15.0757 128.075C14.9525 127.736 14.7593 127.427 14.5087 127.168C14.258 126.909 13.9556 126.706 13.6211 126.572C13.2867 126.438 12.9276 126.375 12.5674 126.389C12.2073 126.403 11.8541 126.492 11.5308 126.652C9.61065 127.659 9.13397 131.539 9.46295 133.446C9.46295 133.547 9.7785 134.581 10.0068 135.333C9.79193 134.93 9.55694 134.52 9.33539 134.138C8.57001 132.688 7.99262 131.311 7.43537 130.109C7.13996 129.438 6.88483 128.767 6.65656 128.176C7.01239 127.504 8.40216 124.765 8.49615 123.288C8.59015 121.811 8.29474 119.978 7.15339 118.985C6.88897 118.74 6.57579 118.553 6.23436 118.438C5.89293 118.323 5.53096 118.281 5.17217 118.315C4.81338 118.349 4.46588 118.459 4.15243 118.637C3.83899 118.815 3.56668 119.057 3.35335 119.347C2.11129 121.126 3.4742 124.792 4.64241 126.33C4.74311 126.464 6.56928 128.344 6.58942 128.344V128.303C6.79755 128.881 7.03254 129.498 7.30109 130.17C7.80463 131.412 8.38202 132.802 9.11383 134.279C9.88859 135.873 10.7538 137.422 11.7054 138.918C12.7699 140.587 13.9785 142.16 15.3174 143.618L15.3644 143.665C14.8139 143.349 13.2428 142.523 13.1153 142.47C11.3093 141.765 7.41523 141.469 6.0456 143.141C5.82491 143.425 5.66635 143.752 5.5802 144.101C5.49406 144.45 5.48226 144.813 5.54557 145.167C5.60887 145.521 5.74588 145.858 5.94768 146.155C6.14949 146.453 6.41159 146.704 6.71699 146.894C7.99262 147.733 9.86578 147.498 11.2287 147.015C12.7662 146.471 15.3107 144.021 15.5121 143.819C16.9133 145.277 18.4092 146.641 19.9903 147.901C20.9101 148.64 21.8567 149.358 22.8168 150.063C22.3267 149.801 21.8903 149.58 21.8299 149.553C20.0238 148.848 16.1298 148.546 14.7602 150.224C14.5395 150.508 14.3809 150.835 14.2948 151.184C14.2086 151.533 14.1968 151.896 14.2601 152.25C14.3234 152.604 14.4604 152.941 14.6623 153.238C14.8641 153.536 15.1262 153.787 15.4316 153.977C16.7072 154.816 18.5804 154.581 19.9433 154.098C21.3062 153.615 23.6157 151.6 24.2133 151.063C24.5892 151.332 24.9518 151.6 25.3278 151.862C27.1069 153.138 28.8928 154.4 30.6049 155.689C31.2091 156.146 31.7865 156.616 32.3639 157.086C31.9342 156.857 31.5716 156.669 31.5112 156.649C29.7052 155.944 25.8112 155.642 24.4415 157.321C24.2207 157.605 24.0621 157.933 23.9759 158.282C23.8897 158.632 23.8778 158.995 23.9411 159.35C24.0044 159.704 24.1414 160.041 24.3433 160.34C24.5451 160.638 24.8073 160.89 25.1129 161.08C26.3953 161.92 28.2617 161.685 29.6246 161.201C30.9875 160.718 32.9816 158.858 33.6932 158.207C34.2706 158.704 34.8547 159.201 35.3918 159.711C35.7544 160.067 36.1236 160.382 36.466 160.765C36.8084 161.148 37.1374 161.49 37.4933 161.853C38.1244 162.564 38.7756 163.303 39.3731 164.014C39.7894 164.504 40.1788 164.981 40.5749 165.465C39.9774 165.001 38.789 164.122 38.6816 164.068C37.0099 163.095 33.2031 162.208 31.5918 163.665C31.3319 163.914 31.1272 164.215 30.9912 164.548C30.8551 164.881 30.7907 165.239 30.8021 165.599C30.8135 165.959 30.9005 166.312 31.0573 166.636C31.2142 166.96 31.4375 167.247 31.7126 167.479C32.8473 168.506 34.7339 168.553 36.1505 168.284C37.7148 167.982 40.4943 166.035 40.8502 165.794C41.5216 166.586 42.1191 167.371 42.6965 168.117C43.4552 169.09 44.1534 170.017 44.7778 170.876C45.194 170.809 45.6976 170.715 46.2884 170.607C45.523 169.6 44.6636 168.499 43.7036 167.318C43.0322 166.505 42.3608 165.653 41.5887 164.78C42.2949 163.947 42.9539 163.075 43.5626 162.168C45.1 162.712 48.2623 162.631 48.6852 162.618C48.7859 163.638 48.8732 164.632 48.9404 165.572C49.0612 167.197 49.1485 168.68 49.2022 170.003L50.545 169.681C50.4577 168.412 50.3503 166.995 50.2026 165.465C50.1019 164.424 49.9743 163.316 49.8333 162.181C50.2361 162.067 53.5058 161.107 54.7143 160.073C55.8153 159.133 56.95 157.63 56.8627 156.105C56.8526 155.746 56.7671 155.392 56.6116 155.067C56.4562 154.742 56.2342 154.454 55.9602 154.22C55.6861 153.987 55.3661 153.813 55.0208 153.711C54.6755 153.609 54.3126 153.581 53.9556 153.628C51.8139 153.977 50.1287 157.502 49.84 159.415C49.84 159.53 49.7729 160.758 49.7527 161.564C49.6923 161.101 49.6453 160.651 49.5782 160.174C49.4506 159.227 49.2962 158.287 49.1284 157.28C49.0344 156.797 48.9404 156.307 48.8397 155.81C48.739 155.313 48.6047 154.81 48.4838 154.299C48.1817 153.131 47.8124 151.963 47.4298 150.795C48.2556 150.681 51.1828 150.238 52.4181 149.452C53.6535 148.667 55.003 147.377 55.144 145.853C55.1882 145.496 55.157 145.134 55.0524 144.79C54.9478 144.445 54.7721 144.127 54.5367 143.855C54.3013 143.583 54.0115 143.363 53.6859 143.21C53.3602 143.057 53.0061 142.974 52.6464 142.966C50.4778 142.966 48.2757 146.216 47.6983 148.062C47.6983 148.176 47.3962 149.553 47.2686 150.311C47.0269 149.64 46.7919 148.908 46.5234 148.203C45.758 146.189 44.9188 144.175 44.093 142.127C43.8378 141.51 43.5961 140.885 43.3477 140.267C43.6364 140.227 47.1276 139.777 48.5107 138.925C49.7393 138.159 51.0955 136.85 51.2365 135.326C51.2807 134.969 51.2495 134.607 51.145 134.262C51.0404 133.918 50.8647 133.6 50.6293 133.328C50.3939 133.056 50.104 132.836 49.7784 132.683C49.4528 132.53 49.0987 132.447 48.739 132.439C46.5704 132.439 44.3682 135.689 43.7908 137.535C43.7506 137.676 43.3679 139.65 43.3007 140.16C42.7502 138.817 42.2198 137.421 41.7498 136.051C41.106 134.205 40.5834 132.319 40.1855 130.405C40.3265 130.405 43.9721 129.935 45.382 129.062C46.6107 128.303 47.9669 126.988 48.1079 125.463C48.1532 125.106 48.1227 124.743 48.0185 124.399C47.9144 124.054 47.7387 123.735 47.5031 123.463C47.2675 123.19 46.9772 122.971 46.6511 122.818C46.325 122.665 45.9703 122.583 45.6103 122.577C43.4417 122.577 41.2396 125.826 40.6622 127.672C40.6219 127.82 40.2124 129.948 40.1654 130.358C40.1654 130.244 40.1117 130.13 40.0915 130.022C39.7437 128.092 39.5684 126.135 39.5678 124.174C39.5678 123.087 39.5678 122.053 39.6685 121.046C40.3399 121.046 43.5022 120.925 44.8651 120.274C46.228 119.622 47.658 118.494 47.9602 116.997C48.0452 116.648 48.0556 116.284 47.9904 115.93C47.9252 115.576 47.7861 115.239 47.582 114.943C47.378 114.646 47.1136 114.396 46.8062 114.209C46.4989 114.021 46.1554 113.901 45.7983 113.855C43.6431 113.634 41.0986 116.608 40.3198 118.38C40.2795 118.474 39.9572 119.502 39.7357 120.254C39.776 119.804 39.8028 119.334 39.8498 118.911C40.0177 117.279 40.2661 115.796 40.5212 114.486C40.6622 113.741 40.8032 113.07 40.9375 112.472C41.6088 112.103 44.2944 110.586 45.1672 109.404C46.04 108.222 46.8255 106.537 46.4092 105.067C46.3295 104.717 46.1773 104.387 45.9622 104.1C45.7472 103.813 45.4743 103.573 45.161 103.398C44.8477 103.223 44.5012 103.115 44.1437 103.082C43.7863 103.049 43.4259 103.092 43.0859 103.207Z" fill="#263238"/>
<path d="M5.00487 137.918C6.69676 137.79 10.0268 135.937 10.0268 135.937C10.0268 135.937 8.14024 134.118 8.01268 134.017C6.46178 132.862 2.78259 131.539 1.01685 132.802C0.730089 133.019 0.492186 133.294 0.318584 133.609C0.144982 133.924 0.0395638 134.272 0.00917338 134.63C-0.0212171 134.988 0.0241003 135.349 0.142182 135.689C0.260265 136.028 0.448471 136.339 0.694583 136.602C1.69495 137.757 3.5614 138.018 5.00487 137.918Z" fill="#263238"/>
<path d="M150.601 32.9002C150.601 32.9337 152.454 30.5638 152.555 30.3959C153.69 28.5093 154.784 24.1923 153.159 22.3393C152.881 22.0382 152.542 21.7991 152.165 21.6375C151.788 21.4758 151.381 21.3952 150.971 21.4009C150.56 21.4066 150.156 21.4985 149.784 21.6705C149.411 21.8426 149.079 22.091 148.809 22.3997C147.62 23.6686 147.526 25.8171 147.802 27.4351C148.131 29.3016 150.595 32.9002 150.601 32.9002Z" fill="#263238"/>
<path d="M168.668 23.5C166.513 22.2915 162.512 24.2385 160.894 25.7424C160.753 25.87 158.799 28.146 158.846 28.1661H158.893C158.222 28.4682 157.55 28.7972 156.845 29.1732C155.503 29.8849 153.985 30.6972 152.394 31.6909C150.669 32.7419 149.008 33.8943 147.419 35.1418C145.627 36.5377 143.964 38.0927 142.451 39.7878L142.397 39.8482C142.693 39.1768 143.458 37.3171 143.498 37.1627C144.102 35.0411 144.008 30.5898 141.954 29.2202C141.606 29.003 141.215 28.8616 140.809 28.8051C140.402 28.7486 139.988 28.7783 139.593 28.8923C139.199 29.0063 138.833 29.202 138.519 29.4667C138.205 29.7313 137.95 30.0591 137.771 30.4287C136.959 31.9661 137.436 34.0609 138.134 35.5513C138.919 37.2365 141.988 39.8482 142.229 40.0563C140.73 41.8052 139.35 43.6535 138.1 45.5885C137.362 46.7098 136.657 47.8645 135.965 49.026C136.2 48.4486 136.408 47.9317 136.429 47.8511C137.026 45.7295 136.939 41.2783 134.884 39.9086C134.536 39.6923 134.146 39.5514 133.74 39.495C133.334 39.4386 132.92 39.4679 132.526 39.5812C132.132 39.6944 131.766 39.889 131.452 40.1524C131.138 40.4158 130.882 40.7422 130.702 41.1104C129.889 42.6546 130.366 44.7493 131.064 46.2398C131.762 47.7303 134.341 50.0331 135.025 50.6306C134.764 51.0805 134.495 51.5236 134.24 51.9734C132.991 54.142 131.756 56.3038 130.48 58.3851C130.03 59.1237 129.56 59.8286 129.097 60.5403C129.305 60.0233 129.48 59.5869 129.5 59.5198C130.097 57.3982 130.01 52.9469 127.949 51.5773C127.602 51.3589 127.212 51.2164 126.806 51.1589C126.4 51.1014 125.986 51.1304 125.592 51.2438C125.198 51.3572 124.832 51.5526 124.519 51.8172C124.205 52.0818 123.951 52.4095 123.773 52.7791C122.954 54.3233 123.431 56.418 124.129 57.9085C124.827 59.3989 127.157 61.4802 127.969 62.1919C127.472 62.9036 126.969 63.6152 126.452 64.2799C126.089 64.7297 125.78 65.1863 125.384 65.6227L124.263 66.9117C123.518 67.704 122.759 68.523 122.014 69.275C121.504 69.8054 121.007 70.3022 120.503 70.799C120.96 70.0739 121.846 68.6305 121.88 68.5029C122.62 66.7096 122.886 64.7557 122.652 62.8297C122.746 62.6348 122.818 62.4298 122.867 62.2187C122.98 61.8243 123.009 61.4105 122.952 61.004C122.895 60.5976 122.753 60.2078 122.535 59.8601C122.317 59.5123 122.028 59.2143 121.687 58.9857C121.347 58.757 120.961 58.6027 120.557 58.5328C118.113 58.1837 115.072 61.4399 114.105 63.4205C114.051 63.5347 113.568 64.8707 113.279 65.7234C113.373 65.193 113.474 64.6894 113.561 64.1456C113.742 63.0781 113.897 62.0039 114.065 60.8491C114.132 60.2919 114.192 59.7279 114.253 59.1572C114.313 58.5866 114.34 57.989 114.38 57.3982C114.454 56.0554 114.461 54.6254 114.441 53.2222C115.374 53.3833 118.711 53.8936 120.309 53.4907C121.907 53.0879 123.827 52.148 124.498 50.5098C124.67 50.1375 124.762 49.7331 124.767 49.3229C124.772 48.9128 124.69 48.5062 124.528 48.1297C124.365 47.7533 124.124 47.4155 123.822 47.1384C123.519 46.8613 123.162 46.6512 122.773 46.5218C120.409 45.8034 116.911 48.5359 115.656 50.3688C115.575 50.4829 114.823 51.8861 114.421 52.6582C114.421 51.819 114.38 50.973 114.333 50.1204C114.192 47.6564 113.977 45.1656 113.769 42.6814C113.702 41.9228 113.648 41.1641 113.588 40.4055C113.924 40.4659 117.871 41.1708 119.671 40.7076C121.262 40.298 123.182 39.3648 123.86 37.7266C124.031 37.3538 124.122 36.9491 124.126 36.5389C124.13 36.1287 124.048 35.7223 123.884 35.3461C123.721 34.9698 123.48 34.6322 123.177 34.3553C122.875 34.0783 122.517 33.8682 122.128 33.7386C119.772 33.0135 116.274 35.7528 115.011 37.5856C114.917 37.7199 113.83 39.7408 113.581 40.2712C113.454 38.5994 113.346 36.9143 113.306 35.2828C113.236 33.0557 113.312 30.8263 113.534 28.6092C113.689 28.6092 117.804 29.3947 119.644 28.9181C121.242 28.5152 123.162 27.5753 123.833 25.9438C124.006 25.5711 124.097 25.1662 124.102 24.7556C124.108 24.345 124.026 23.9379 123.863 23.5609C123.7 23.184 123.46 22.8456 123.157 22.5678C122.855 22.2901 122.497 22.0793 122.108 21.9491C119.745 21.2307 116.247 23.9632 114.991 25.7961C114.891 25.9438 113.722 28.1124 113.541 28.5219C113.541 28.3944 113.541 28.2601 113.541 28.1325C113.824 25.9142 114.304 23.7257 114.978 21.5933C115.334 20.4116 115.736 19.3038 116.159 18.2363C116.911 18.4579 120.362 19.418 122.061 19.1763C123.76 18.9346 125.707 18.2028 126.553 16.6787C126.764 16.3268 126.899 15.9343 126.949 15.5268C126.999 15.1192 126.963 14.7057 126.842 14.3132C126.722 13.9206 126.52 13.5577 126.251 13.2481C125.981 12.9385 125.649 12.6891 125.277 12.5161C123.008 11.5426 119.234 13.8992 117.778 15.5642C117.697 15.6515 116.999 16.6586 116.502 17.4038C116.697 16.9204 116.891 16.4236 117.086 15.967C117.824 14.2483 118.603 12.7243 119.308 11.3815C119.718 10.6161 120.094 9.93801 120.463 9.3002C121.309 9.13235 124.726 8.40054 126.103 7.42032C127.479 6.4401 128.889 4.87577 128.936 3.13017C128.964 2.7217 128.907 2.31183 128.767 1.92702C128.627 1.54221 128.408 1.19103 128.124 0.896175C127.84 0.60132 127.497 0.369345 127.117 0.21524C126.738 0.0611347 126.331 -0.0116734 125.921 0.00152016C123.457 0.182794 121.222 4.02983 120.671 6.15812C120.624 6.3461 120.255 9.32034 120.295 9.31363H120.349C119.986 9.91787 119.604 10.5691 119.201 11.2875C118.469 12.6303 117.65 14.1342 116.878 15.8395C116.017 17.6753 115.266 19.5608 114.629 21.4858C113.902 23.6297 113.368 25.8337 113.031 28.0721C113.034 28.0989 113.034 28.1259 113.031 28.1527C112.917 27.441 112.521 25.4671 112.474 25.306C111.802 23.2046 109.271 19.5388 106.8 19.5321C106.391 19.542 105.988 19.6377 105.618 19.8131C105.247 19.9886 104.918 20.2398 104.651 20.5505C104.384 20.8612 104.185 21.2245 104.067 21.617C103.949 22.0094 103.915 22.4222 103.967 22.8286C104.142 24.5608 105.693 26.0512 107.096 26.9106C108.68 27.8774 112.682 28.3675 112.997 28.4011C112.714 30.6882 112.584 32.9917 112.608 35.2962C112.608 36.639 112.655 37.9818 112.722 39.3245C112.601 38.7068 112.487 38.163 112.46 38.0825C111.789 35.9877 109.258 32.322 106.787 32.3153C106.377 32.3257 105.974 32.4225 105.603 32.5992C105.233 32.7759 104.904 33.0286 104.638 33.3409C104.372 33.6531 104.175 34.018 104.059 34.4115C103.944 34.8051 103.912 35.2187 103.967 35.6252C104.135 37.3574 105.693 38.8411 107.096 39.7005C108.499 40.5599 111.923 41.0433 112.823 41.1775C112.823 41.6945 112.876 42.2115 112.91 42.7352C113.064 45.226 113.226 47.7101 113.313 50.1204C113.346 50.9798 113.313 51.8324 113.346 52.6784C113.232 52.1345 113.138 51.678 113.118 51.6041C112.447 49.5027 109.916 45.8437 107.445 45.837C107.034 45.8464 106.631 45.9424 106.26 46.1188C105.889 46.2952 105.56 46.5479 105.294 46.8604C105.027 47.1729 104.83 47.5381 104.715 47.9322C104.6 48.3262 104.569 48.7402 104.625 49.1469C104.793 50.8791 106.344 52.3628 107.754 53.2222C109.164 54.0816 112.245 54.565 113.32 54.6724C113.32 55.5452 113.266 56.418 113.205 57.2572C113.152 57.8346 113.138 58.3851 113.044 58.9625C112.95 59.5399 112.897 60.0972 112.823 60.6544C112.641 61.7219 112.46 62.8297 112.259 63.8636C112.118 64.5887 111.977 65.2803 111.836 65.9718C111.836 65.1124 111.735 63.4339 111.715 63.2862C111.372 61.111 109.425 57.1028 106.982 56.7268C106.575 56.6749 106.162 56.7092 105.769 56.8274C105.377 56.9457 105.014 57.1452 104.703 57.4131C104.393 57.681 104.143 58.0112 103.968 58.3823C103.794 58.7533 103.7 59.1569 103.692 59.5668C103.598 61.3124 104.907 63.011 106.169 64.0718C107.552 65.24 111.272 66.3075 111.742 66.435C111.5 67.5831 111.258 68.6909 111.01 69.7382C110.688 71.1168 110.372 72.3925 110.063 73.5651C110.419 73.8807 110.862 74.2365 111.406 74.6998C111.748 73.31 112.077 71.7591 112.467 70.0605C112.715 68.899 112.957 67.6502 113.192 66.3679C114.436 66.3948 115.68 66.35 116.918 66.2336C117.543 67.9859 119.892 70.7386 120.194 71.0877C119.369 71.9135 118.55 72.7058 117.764 73.4376C116.421 74.7132 115.166 75.8479 114.031 76.8482C114.441 77.1638 114.857 77.5196 115.293 77.8217C116.361 76.8348 117.529 75.727 118.785 74.4648C119.631 73.6323 120.517 72.7259 121.423 71.7793C121.813 72.0545 125.002 74.2567 126.794 74.5856C128.419 74.8811 130.561 74.8139 131.85 73.6323C132.16 73.3654 132.412 73.0364 132.587 72.6663C132.763 72.2963 132.858 71.8936 132.869 71.4842C132.879 71.0748 132.803 70.6678 132.646 70.2896C132.489 69.9114 132.254 69.5703 131.957 69.2884C130.111 67.6435 125.78 68.6842 123.901 69.7987C123.786 69.8658 122.652 70.7185 121.94 71.269C122.309 70.8796 122.672 70.5103 123.041 70.1075C123.786 69.3153 124.505 68.5096 125.284 67.6368C125.639 67.2071 126.009 66.7707 126.371 66.294C126.734 65.8174 127.09 65.3608 127.452 64.8976C128.271 63.7898 129.043 62.635 129.802 61.4466C130.473 62.118 132.984 64.3672 134.549 64.911C136.113 65.4548 138.241 65.7032 139.685 64.7364C140.034 64.5206 140.334 64.2335 140.565 63.8939C140.796 63.5544 140.952 63.1699 141.024 62.7657C141.097 62.3615 141.083 61.9466 140.984 61.5481C140.885 61.1496 140.703 60.7765 140.45 60.453C138.879 58.553 134.441 58.9222 132.394 59.7413C132.266 59.7883 130.863 60.5403 130.104 60.97C130.547 60.2516 131.004 59.5399 131.447 58.8014C132.689 56.6731 133.877 54.471 135.072 52.289C135.442 51.6176 135.818 50.9462 136.187 50.2748C136.429 50.5098 139.336 53.2759 141.088 53.8801C142.646 54.424 144.774 54.6791 146.224 53.7056C146.573 53.489 146.872 53.2016 147.102 52.862C147.332 52.5224 147.488 52.1382 147.56 51.7343C147.633 51.3304 147.619 50.9158 147.521 50.5175C147.422 50.1192 147.241 49.746 146.989 49.4221C145.412 47.5221 140.947 47.8914 138.933 48.7105C138.778 48.7709 136.758 49.8518 136.247 50.154C137.066 48.6903 137.892 47.2401 138.765 45.837C139.941 43.9445 141.234 42.1282 142.639 40.3987C142.753 40.5129 145.774 43.4065 147.567 44.0309C149.124 44.5748 151.253 44.8299 152.703 43.8564C153.052 43.6405 153.352 43.3534 153.583 43.0139C153.814 42.6743 153.97 42.2899 154.043 41.8857C154.115 41.4815 154.101 41.0666 154.002 40.6681C153.903 40.2696 153.721 39.8964 153.468 39.5729C151.897 37.6729 147.426 38.0422 145.412 38.8613C145.251 38.9217 143.082 40.0899 142.726 40.3316C142.813 40.2309 142.887 40.1168 142.968 40.0228C144.426 38.3301 146.033 36.7708 147.768 35.3633C148.722 34.5711 149.668 33.8662 150.608 33.2082C151.118 33.8057 153.468 36.5114 155.019 37.2365C156.57 37.9616 158.598 38.4316 160.142 37.6259C160.485 37.4369 160.787 37.1807 161.03 36.8727C161.273 36.5647 161.451 36.2111 161.554 35.8328C161.658 35.4546 161.684 35.0595 161.631 34.6709C161.579 34.2823 161.449 33.9082 161.25 33.5708C159.907 31.5096 155.442 31.3888 153.321 31.9796C153.2 31.9796 152.065 32.463 151.239 32.8054C151.669 32.5167 152.105 32.2011 152.522 31.9326C154.079 30.9054 155.576 30.0661 156.906 29.3276C157.664 28.9181 158.356 28.5622 159.007 28.2332C159.813 28.5622 163.069 29.8379 164.754 29.7774C166.439 29.717 168.48 29.1866 169.454 27.7633C169.702 27.4387 169.878 27.0658 169.973 26.6688C170.068 26.2717 170.079 25.8592 170.005 25.4577C169.931 25.0562 169.774 24.6746 169.544 24.3375C169.314 24.0003 169.015 23.715 168.668 23.5Z" fill="#263238"/>
<path d="M110.661 14.7718C112.003 16.1817 116.032 17.7931 116.032 17.7998C116.032 17.8065 116.287 14.8188 116.28 14.6308C116.186 12.4287 114.716 8.22583 112.332 7.56787C111.934 7.46997 111.52 7.45688 111.117 7.52946C110.714 7.60205 110.33 7.75867 109.992 7.98916C109.653 8.21965 109.366 8.51885 109.151 8.8673C108.935 9.21576 108.795 9.60567 108.74 10.0117C108.425 11.717 109.553 13.5633 110.661 14.7718Z" fill="#263238"/>
<path d="M305.134 183.424C305.134 183.424 306.477 181.698 306.577 181.577C307.41 180.188 308.216 177.005 307.02 175.636C306.816 175.413 306.567 175.236 306.29 175.116C306.012 174.996 305.712 174.936 305.41 174.94C305.108 174.944 304.81 175.011 304.536 175.138C304.261 175.265 304.017 175.448 303.818 175.676C302.938 176.616 302.865 178.194 303.073 179.389C303.314 180.792 305.134 183.424 305.134 183.424Z" fill="#263238"/>
<path d="M318.447 176.529C316.863 175.636 313.909 177.073 312.721 178.181C312.613 178.274 311.176 179.953 311.21 179.966H311.243C310.774 180.188 310.277 180.436 309.74 180.712C308.746 181.235 307.631 181.833 306.457 182.565C305.184 183.337 303.959 184.187 302.791 185.109C301.471 186.129 300.247 187.266 299.132 188.506L299.091 188.553C299.313 188.063 299.877 186.687 299.911 186.573C300.347 185.008 300.286 181.732 298.769 180.725C298.513 180.564 298.226 180.459 297.927 180.417C297.628 180.374 297.323 180.395 297.032 180.478C296.742 180.561 296.472 180.704 296.24 180.898C296.008 181.092 295.82 181.333 295.688 181.605C295.09 182.746 295.439 184.29 295.956 185.384C296.533 186.627 298.789 188.553 298.971 188.701C297.87 189.992 296.854 191.354 295.929 192.776C295.383 193.609 294.857 194.455 294.351 195.314L294.701 194.448C295.137 192.884 295.07 189.607 293.559 188.594C293.303 188.433 293.015 188.329 292.716 188.287C292.416 188.245 292.111 188.266 291.821 188.35C291.53 188.433 291.26 188.577 291.029 188.772C290.797 188.967 290.61 189.208 290.478 189.48C289.88 190.621 290.229 192.165 290.739 193.26C291.25 194.354 293.156 196.059 293.667 196.496L293.083 197.49C292.163 199.081 291.256 200.672 290.316 202.189C289.981 202.733 289.645 203.25 289.296 203.774C289.45 203.398 289.578 203.102 289.591 203.028C290.034 201.464 289.967 198.181 288.45 197.174C288.194 197.014 287.906 196.909 287.607 196.867C287.307 196.825 287.002 196.846 286.712 196.93C286.421 197.014 286.151 197.157 285.92 197.352C285.688 197.547 285.5 197.788 285.368 198.06C284.771 199.195 285.12 200.746 285.637 201.84C286.154 202.934 287.866 204.465 288.463 204.989C288.094 205.519 287.732 206.043 287.349 206.533C287.08 206.862 286.845 207.204 286.557 207.52L285.731 208.467C285.187 209.051 284.623 209.655 284.079 210.212C283.703 210.602 283.334 210.964 282.965 211.333C283.3 210.796 283.938 209.736 283.979 209.642C284.524 208.319 284.72 206.879 284.549 205.459C284.617 205.315 284.668 205.164 284.704 205.009C284.783 204.721 284.801 204.419 284.757 204.123C284.713 203.827 284.608 203.544 284.448 203.291C284.288 203.038 284.077 202.821 283.829 202.655C283.58 202.488 283.3 202.375 283.005 202.323C281.199 202.062 278.977 204.458 278.252 205.922C278.205 206.003 277.856 206.99 277.641 207.614C277.708 207.231 277.782 206.855 277.849 206.459C277.983 205.667 278.097 204.881 278.218 204.029C278.267 203.622 278.314 203.205 278.359 202.78C278.413 202.364 278.42 201.914 278.453 201.484C278.507 200.47 278.514 199.47 278.493 198.409C279.165 198.523 281.642 198.906 282.824 198.604C284.005 198.302 285.409 197.597 285.905 196.409C286.032 196.134 286.1 195.836 286.104 195.534C286.108 195.232 286.048 194.932 285.929 194.655C285.809 194.377 285.632 194.128 285.409 193.923C285.187 193.719 284.923 193.564 284.637 193.468C282.898 192.938 280.32 194.972 279.393 196.308C279.333 196.388 278.775 197.422 278.48 197.993C278.48 197.369 278.48 196.751 278.419 196.12C278.312 194.307 278.151 192.474 277.997 190.641C277.95 190.084 277.916 189.52 277.869 188.963C278.117 189.01 281.024 189.527 282.347 189.184C283.522 188.882 284.939 188.177 285.435 186.989C285.561 186.714 285.628 186.416 285.631 186.114C285.634 185.811 285.573 185.512 285.453 185.234C285.333 184.957 285.155 184.708 284.933 184.504C284.71 184.3 284.447 184.144 284.16 184.048C282.421 183.518 279.843 185.552 278.916 186.888C278.849 186.989 278.05 188.473 277.862 188.862C277.768 187.627 277.688 186.398 277.661 185.183C277.608 183.543 277.664 181.901 277.829 180.268C277.943 180.268 280.977 180.846 282.334 180.497C283.509 180.195 284.919 179.483 285.415 178.301C285.542 178.027 285.61 177.729 285.614 177.427C285.618 177.125 285.558 176.825 285.438 176.547C285.319 176.27 285.142 176.021 284.919 175.816C284.696 175.612 284.433 175.456 284.146 175.361C282.408 174.83 279.829 176.865 278.903 178.194C278.829 178.301 277.97 179.899 277.835 180.208C277.835 180.114 277.835 180.013 277.835 179.919C278.043 178.287 278.396 176.676 278.889 175.106C279.151 174.233 279.453 173.414 279.762 172.628C280.313 172.789 282.857 173.494 284.113 173.3C285.368 173.105 286.798 172.581 287.423 171.453C287.579 171.194 287.678 170.905 287.715 170.605C287.751 170.304 287.724 170 287.635 169.711C287.545 169.422 287.396 169.155 287.196 168.927C286.997 168.7 286.751 168.518 286.476 168.392C284.804 167.673 282.025 169.412 280.957 170.634C280.897 170.701 280.38 171.446 280.011 171.977C280.158 171.621 280.299 171.252 280.447 170.916C280.991 169.654 281.568 168.533 282.085 167.559C282.381 166.995 282.663 166.498 282.931 166.028C283.556 165.901 286.073 165.357 287.087 164.645C288.101 163.934 289.142 162.765 289.175 161.483C289.194 161.182 289.15 160.879 289.044 160.596C288.939 160.313 288.775 160.055 288.564 159.839C288.352 159.623 288.098 159.454 287.817 159.343C287.536 159.232 287.235 159.181 286.933 159.194C285.113 159.328 283.441 162.155 283.059 163.732C283.059 163.867 282.757 166.062 282.783 166.055H282.824C282.555 166.503 282.273 166.986 281.978 167.505C281.441 168.492 280.836 169.607 280.266 170.862C279.633 172.21 279.079 173.593 278.607 175.005C278.075 176.586 277.682 178.21 277.433 179.859C277.436 179.879 277.436 179.899 277.433 179.919C277.345 179.396 277.057 177.905 277.023 177.818C276.526 176.274 274.66 173.575 272.84 173.568C272.538 173.577 272.242 173.649 271.97 173.779C271.697 173.91 271.455 174.096 271.259 174.325C271.063 174.555 270.917 174.823 270.831 175.112C270.745 175.402 270.72 175.706 270.759 176.005C270.887 177.288 272.035 178.382 273.069 179.013C274.237 179.725 277.184 180.087 277.412 180.114C277.207 181.798 277.11 183.493 277.124 185.19C277.124 186.183 277.164 187.204 277.211 188.177C277.124 187.721 277.036 187.318 277.023 187.264C276.526 185.713 274.66 183.014 272.84 183.014C272.538 183.022 272.241 183.093 271.968 183.223C271.695 183.354 271.453 183.539 271.257 183.769C271.06 183.999 270.915 184.268 270.829 184.558C270.743 184.847 270.719 185.152 270.759 185.452C270.887 186.727 272.028 187.822 273.069 188.453C274.109 189.084 276.62 189.453 277.285 189.54C277.285 189.923 277.325 190.306 277.352 190.688C277.459 192.521 277.58 194.354 277.647 196.153C277.647 196.791 277.647 197.416 277.647 198.04C277.567 197.637 277.5 197.302 277.48 197.248C276.989 195.704 275.123 193.005 273.304 192.998C273.002 193.007 272.705 193.079 272.433 193.209C272.161 193.339 271.919 193.525 271.722 193.755C271.526 193.985 271.381 194.253 271.294 194.542C271.208 194.831 271.184 195.136 271.222 195.435C271.35 196.717 272.491 197.812 273.525 198.443C274.559 199.074 276.842 199.403 277.627 199.51C277.627 200.182 277.594 200.793 277.547 201.417C277.506 201.84 277.493 202.25 277.433 202.673C277.372 203.096 277.318 203.505 277.265 203.915C277.13 204.707 276.996 205.519 276.848 206.285C276.748 206.815 276.64 207.325 276.54 207.836C276.54 207.204 276.466 205.969 276.452 205.862C276.197 204.257 274.76 201.31 272.961 201.028C272.661 200.99 272.357 201.016 272.068 201.103C271.779 201.191 271.511 201.338 271.283 201.535C271.054 201.733 270.87 201.976 270.741 202.25C270.613 202.523 270.544 202.82 270.537 203.122C270.47 204.405 271.43 205.66 272.364 206.439C273.297 207.218 276.123 208.091 276.466 208.185C276.291 209.024 276.11 209.85 275.929 210.615C275.694 211.629 275.459 212.569 275.257 213.435C275.519 213.663 275.848 213.952 276.231 214.274C276.481 213.245 276.741 212.103 277.01 210.85C277.191 209.997 277.372 209.078 277.54 208.131C278.459 208.154 279.378 208.12 280.293 208.03C280.749 209.326 282.481 211.354 282.703 211.609C282.092 212.22 281.494 212.804 280.917 213.341C279.923 214.281 278.997 215.12 278.164 215.852C278.46 216.087 278.775 216.329 279.098 216.57C279.876 215.845 280.742 215.033 281.662 214.12C282.287 213.509 282.945 212.837 283.609 212.146C283.898 212.347 286.248 213.972 287.564 214.214C288.759 214.429 290.337 214.382 291.283 213.509C291.514 213.313 291.7 213.071 291.831 212.798C291.961 212.525 292.032 212.228 292.04 211.926C292.047 211.623 291.991 211.323 291.875 211.044C291.758 210.765 291.584 210.513 291.364 210.306C290.021 209.098 286.812 209.863 285.415 210.689C285.328 210.736 284.496 211.36 283.972 211.763L284.784 210.911C285.328 210.333 285.858 209.736 286.436 209.091L287.235 208.131C287.51 207.809 287.765 207.46 288.034 207.097C288.631 206.285 289.202 205.432 289.759 204.559C290.269 205.036 292.109 206.708 293.264 207.11C294.419 207.513 295.983 207.695 297.05 206.983C297.307 206.823 297.527 206.611 297.696 206.36C297.865 206.11 297.979 205.827 298.032 205.529C298.084 205.232 298.074 204.926 298.001 204.633C297.928 204.34 297.794 204.065 297.608 203.827C296.453 202.424 293.177 202.699 291.673 203.297C291.579 203.337 290.538 203.888 289.981 204.203C290.31 203.673 290.652 203.149 290.961 202.605C291.874 201.034 292.754 199.416 293.647 197.805C293.915 197.315 294.19 196.825 294.466 196.335C294.647 196.509 296.789 198.544 298.078 199.02C299.226 199.416 300.763 199.604 301.864 198.893C302.121 198.733 302.34 198.521 302.51 198.27C302.679 198.02 302.793 197.737 302.846 197.439C302.898 197.142 302.888 196.836 302.815 196.543C302.741 196.25 302.608 195.975 302.421 195.737C301.267 194.334 297.997 194.603 296.486 195.207C296.372 195.254 294.882 196.053 294.513 196.274C295.117 195.193 295.728 194.126 296.372 193.092C297.237 191.69 298.19 190.344 299.226 189.064C299.313 189.144 301.535 191.279 302.858 191.749C304.006 192.145 305.543 192.333 306.645 191.622C306.901 191.462 307.121 191.25 307.29 190.999C307.459 190.749 307.573 190.466 307.626 190.168C307.679 189.87 307.668 189.565 307.595 189.272C307.522 188.979 307.388 188.704 307.202 188.466C306.047 187.063 302.777 187.338 301.267 187.936C301.146 187.983 299.548 188.842 299.253 189.017C299.313 188.95 299.367 188.862 299.434 188.788C300.509 187.544 301.69 186.396 302.965 185.358C303.67 184.773 304.369 184.257 305.06 183.773C305.436 184.21 307.161 186.204 308.31 186.747C309.458 187.291 310.948 187.627 312.083 187.036C312.356 186.906 312.598 186.72 312.794 186.489C312.99 186.259 313.136 185.99 313.221 185.7C313.305 185.41 313.328 185.105 313.287 184.805C313.246 184.505 313.142 184.218 312.982 183.961C311.982 182.444 308.706 182.357 307.135 182.786C307.054 182.786 306.215 183.142 305.604 183.397C305.919 183.182 306.275 182.954 306.551 182.726C307.699 181.974 308.8 181.349 309.78 180.812C310.337 180.503 310.847 180.242 311.331 180C311.922 180.242 314.318 181.182 315.567 181.141C316.816 181.101 318.313 180.705 319.052 179.651C319.23 179.411 319.356 179.136 319.423 178.844C319.489 178.553 319.494 178.25 319.437 177.957C319.38 177.663 319.263 177.385 319.093 177.139C318.922 176.893 318.702 176.685 318.447 176.529Z" fill="#263238"/>
<path d="M275.7 170.077C276.681 171.118 279.648 172.306 279.648 172.306C279.648 172.306 279.836 170.117 279.829 169.976C279.762 168.351 278.675 165.277 276.922 164.766C276.629 164.694 276.323 164.684 276.026 164.738C275.728 164.791 275.445 164.907 275.196 165.078C274.946 165.248 274.735 165.469 274.577 165.727C274.419 165.984 274.316 166.273 274.277 166.572C274.042 167.848 274.874 169.191 275.7 170.077Z" fill="#263238"/>
<path d="M187.568 256.027C187.568 256.027 185.856 258.182 185.762 258.337C184.714 260.075 183.707 264.063 185.204 265.782C185.46 266.065 185.773 266.289 186.123 266.442C186.472 266.594 186.85 266.67 187.231 266.665C187.612 266.66 187.987 266.574 188.333 266.412C188.678 266.251 188.985 266.018 189.233 265.728C190.334 264.554 190.421 262.573 190.159 261.076C189.844 259.317 187.568 256.027 187.568 256.027Z" fill="#263238"/>
<path d="M170.897 264.661C172.911 265.776 176.577 263.99 178.074 262.594C178.202 262.473 180.001 260.371 179.961 260.358H179.921C180.505 260.083 181.129 259.774 181.801 259.425C183.049 258.753 184.446 258.028 185.909 257.108C187.501 256.139 189.035 255.076 190.502 253.926C192.149 252.643 193.681 251.219 195.081 249.669L195.128 249.609C194.859 250.22 194.147 251.945 194.107 252.086C193.557 254.047 193.637 258.129 195.537 259.411C195.857 259.613 196.217 259.745 196.592 259.799C196.966 259.852 197.348 259.826 197.712 259.721C198.076 259.617 198.414 259.436 198.703 259.192C198.992 258.947 199.227 258.645 199.391 258.303C200.143 256.88 199.706 254.947 199.062 253.604C198.337 252.053 195.51 249.636 195.282 249.448C196.664 247.832 197.937 246.128 199.095 244.345C199.767 243.311 200.438 242.244 201.063 241.17C200.848 241.707 200.653 242.184 200.633 242.257C200.082 244.211 200.163 248.3 202.063 249.582C202.383 249.784 202.743 249.916 203.117 249.97C203.492 250.023 203.874 249.997 204.238 249.892C204.602 249.787 204.94 249.607 205.229 249.363C205.518 249.118 205.753 248.816 205.917 248.474C206.669 247.051 206.232 245.117 205.588 243.775C204.943 242.432 202.56 240.277 201.929 239.746L202.654 238.504C203.802 236.49 204.943 234.516 206.118 232.589C206.534 231.918 206.971 231.247 207.4 230.609C207.206 231.079 207.045 231.482 207.025 231.549C206.474 233.503 206.555 237.591 208.455 238.874C208.775 239.076 209.134 239.208 209.509 239.261C209.884 239.315 210.266 239.288 210.63 239.184C210.994 239.079 211.331 238.899 211.621 238.654C211.91 238.41 212.144 238.107 212.308 237.766C213.06 236.342 212.624 234.409 211.979 233.033C211.335 231.656 209.186 229.743 208.434 229.085C208.898 228.413 209.361 227.742 209.838 227.151C210.167 226.742 210.462 226.319 210.825 225.923L211.858 224.734C212.53 224.009 213.242 223.25 213.926 222.552C214.403 222.062 214.86 221.612 215.323 221.149C214.9 221.82 214.108 223.163 214.054 223.264C213.376 224.921 213.131 226.723 213.342 228.501C213.258 228.682 213.191 228.871 213.141 229.065C213.035 229.429 213.008 229.811 213.06 230.186C213.113 230.561 213.244 230.921 213.446 231.242C213.648 231.563 213.915 231.838 214.23 232.048C214.546 232.258 214.902 232.399 215.276 232.462C217.532 232.791 220.331 229.776 221.224 227.957C221.278 227.849 221.721 226.614 221.99 225.835C221.902 226.319 221.808 226.789 221.728 227.285C221.56 228.272 221.419 229.259 221.265 230.327C221.204 230.837 221.144 231.361 221.09 231.891C221.036 232.422 221.009 232.965 220.969 233.516C220.902 234.778 220.895 236.067 220.922 237.363C220.056 237.215 216.981 236.732 215.504 237.115C214.027 237.497 212.261 238.377 211.637 239.861C211.476 240.204 211.391 240.578 211.385 240.957C211.38 241.336 211.454 241.713 211.605 242.061C211.755 242.409 211.978 242.721 212.257 242.978C212.537 243.234 212.868 243.427 213.228 243.546C215.41 244.218 218.633 241.667 219.794 239.995C219.868 239.887 220.566 238.598 220.936 237.88C220.936 238.659 220.969 239.438 221.016 240.223C221.144 242.492 221.345 244.795 221.54 247.085C221.6 247.756 221.647 248.488 221.701 249.186C221.392 249.132 217.753 248.481 216.095 248.904C214.625 249.28 212.852 250.173 212.228 251.657C212.069 252.001 211.984 252.374 211.979 252.753C211.975 253.132 212.051 253.507 212.202 253.855C212.352 254.202 212.575 254.514 212.855 254.769C213.135 255.024 213.466 255.218 213.826 255.336C216.001 256.007 219.23 253.456 220.392 251.784C220.479 251.663 221.479 249.77 221.735 249.314C221.855 250.858 221.956 252.395 221.99 253.919C222.056 255.972 221.987 258.026 221.782 260.069C221.641 260.069 217.841 259.351 216.142 259.787C214.672 260.163 212.899 261.049 212.281 262.533C212.121 262.877 212.035 263.251 212.03 263.63C212.024 264.009 212.099 264.385 212.249 264.733C212.4 265.082 212.622 265.394 212.902 265.65C213.182 265.906 213.513 266.1 213.873 266.219C216.048 266.89 219.277 264.339 220.439 262.667C220.526 262.533 221.607 260.532 221.782 260.156C221.782 260.271 221.782 260.398 221.782 260.512C221.513 262.562 221.064 264.584 220.439 266.555C220.11 267.649 219.734 268.67 219.351 269.657C218.68 269.455 215.471 268.569 213.9 268.79C212.328 269.012 210.543 269.697 209.757 271.1C209.561 271.424 209.435 271.786 209.389 272.162C209.343 272.538 209.376 272.92 209.488 273.282C209.6 273.644 209.787 273.978 210.037 274.263C210.287 274.548 210.594 274.776 210.939 274.934C213.033 275.833 216.518 273.658 217.854 272.127C217.928 272.047 218.572 271.113 219.036 270.429C218.854 270.872 218.673 271.335 218.492 271.771C217.82 273.349 217.089 274.759 216.444 276.001C216.068 276.706 215.712 277.344 215.383 277.915C214.598 278.076 211.442 278.747 210.173 279.653C208.904 280.56 207.609 282.003 207.562 283.608C207.537 283.986 207.592 284.365 207.724 284.72C207.855 285.076 208.061 285.399 208.327 285.669C208.592 285.939 208.912 286.15 209.265 286.288C209.618 286.425 209.996 286.487 210.375 286.468C212.644 286.307 214.739 282.769 215.215 280.788C215.262 280.62 215.605 277.874 215.558 277.881H215.511C215.847 277.331 216.182 276.726 216.572 276.068C217.243 274.833 218.002 273.443 218.72 271.865C219.511 270.178 220.201 268.445 220.788 266.676C221.46 264.71 221.955 262.688 222.265 260.633C222.262 260.609 222.262 260.584 222.265 260.559C222.372 261.231 222.735 263.05 222.782 263.191C223.4 265.125 225.736 268.509 228.012 268.515C228.391 268.507 228.764 268.419 229.107 268.257C229.45 268.095 229.754 267.861 230 267.573C230.247 267.284 230.429 266.947 230.535 266.583C230.641 266.219 230.669 265.836 230.617 265.46C230.456 263.863 229.026 262.493 227.73 261.694C226.266 260.801 222.581 260.351 222.285 260.318C222.549 258.209 222.671 256.085 222.648 253.96C222.648 252.724 222.601 251.475 222.547 250.227C222.654 250.791 222.762 251.301 222.782 251.368C223.4 253.308 225.736 256.685 228.012 256.692C228.391 256.684 228.764 256.596 229.107 256.434C229.45 256.271 229.754 256.038 230 255.75C230.247 255.461 230.429 255.124 230.535 254.76C230.641 254.395 230.669 254.013 230.617 253.637C230.463 252.039 229.026 250.67 227.73 249.878C226.434 249.085 223.279 248.622 222.446 248.535C222.446 248.058 222.399 247.581 222.372 247.098C222.225 244.802 222.077 242.506 221.996 240.257C221.996 239.464 221.996 238.679 221.996 237.893C222.097 238.397 222.184 238.82 222.205 238.88C222.822 240.821 225.159 244.204 227.435 244.204C227.813 244.197 228.186 244.109 228.528 243.947C228.87 243.785 229.174 243.552 229.42 243.264C229.666 242.976 229.849 242.64 229.955 242.276C230.062 241.913 230.091 241.531 230.04 241.156C229.885 239.552 228.448 238.182 227.153 237.39C225.857 236.598 223.01 236.188 222.023 236.047C222.023 235.241 222.064 234.442 222.124 233.664C222.178 233.133 222.184 232.623 222.272 232.093C222.359 231.562 222.406 231.045 222.473 230.535C222.641 229.548 222.809 228.521 222.997 227.567C223.124 226.896 223.259 226.265 223.386 225.627C223.386 226.419 223.473 227.964 223.5 228.091C223.816 230.105 225.608 233.798 227.864 234.134C228.24 234.183 228.621 234.152 228.984 234.044C229.346 233.935 229.682 233.751 229.968 233.504C230.255 233.257 230.486 232.952 230.646 232.609C230.807 232.266 230.893 231.894 230.899 231.515C230.986 229.904 229.778 228.34 228.616 227.359C227.341 226.278 223.917 225.298 223.473 225.177C223.695 224.123 223.923 223.096 224.145 222.129C224.44 220.867 224.736 219.685 225.018 218.604C224.689 218.309 224.279 217.933 223.802 217.55C223.489 218.839 223.162 220.267 222.822 221.834C222.594 222.908 222.372 224.056 222.151 225.244C221.001 225.218 219.851 225.258 218.707 225.365C218.136 223.747 215.967 221.209 215.685 220.887C216.451 220.129 217.203 219.397 217.928 218.719C219.17 217.544 220.325 216.496 221.372 215.577C220.996 215.281 220.607 214.979 220.204 214.677C219.224 215.583 218.143 216.604 216.988 217.745C216.209 218.51 215.39 219.35 214.551 220.216C214.195 219.967 211.248 217.933 209.603 217.631C208.105 217.356 206.132 217.423 204.943 218.504C204.651 218.749 204.415 219.054 204.25 219.397C204.085 219.741 203.996 220.116 203.987 220.497C203.978 220.878 204.05 221.256 204.199 221.607C204.348 221.958 204.569 222.273 204.849 222.532C206.548 224.049 210.543 223.089 212.295 222.055C212.396 221.995 213.45 221.209 214.101 220.713C213.765 221.068 213.43 221.384 213.087 221.78C212.416 222.505 211.744 223.257 211.019 224.056L210.012 225.265C209.67 225.661 209.341 226.124 209.019 226.56C208.267 227.574 207.548 228.642 206.85 229.736C206.179 229.139 203.909 227.051 202.473 226.54C201.036 226.03 199.069 225.808 197.733 226.701C197.411 226.902 197.137 227.169 196.926 227.484C196.715 227.799 196.573 228.155 196.51 228.528C196.447 228.902 196.463 229.284 196.558 229.651C196.653 230.018 196.824 230.36 197.061 230.656C198.511 232.408 202.607 232.066 204.493 231.327C204.614 231.28 205.91 230.589 206.615 230.193C206.199 230.864 205.782 231.535 205.386 232.207C204.238 234.174 203.144 236.195 202.029 238.216C201.694 238.833 201.358 239.444 201.009 240.055C200.781 239.84 198.102 237.289 196.484 236.732C195.047 236.235 193.08 236 191.744 236.893C191.424 237.094 191.15 237.36 190.94 237.675C190.73 237.989 190.588 238.344 190.525 238.717C190.462 239.089 190.478 239.471 190.572 239.837C190.666 240.203 190.837 240.545 191.072 240.841C192.523 242.6 196.618 242.257 198.505 241.512C198.646 241.452 200.519 240.451 200.969 240.169C200.217 241.512 199.451 242.855 198.646 244.151C197.561 245.896 196.368 247.571 195.074 249.166C194.966 249.065 192.18 246.393 190.529 245.809C189.092 245.312 187.125 245.077 185.789 245.97C185.468 246.171 185.193 246.438 184.982 246.753C184.771 247.067 184.63 247.423 184.566 247.797C184.503 248.17 184.519 248.553 184.614 248.92C184.709 249.286 184.88 249.629 185.117 249.925C186.567 251.677 190.663 251.334 192.556 250.596C192.704 250.536 194.705 249.461 195.054 249.253C194.98 249.347 194.913 249.448 194.832 249.542C193.485 251.1 192.005 252.538 190.408 253.839C189.528 254.564 188.655 255.215 187.783 255.853C187.319 255.296 185.151 252.805 183.721 252.12C182.291 251.435 180.418 251.019 179.021 251.764C178.678 251.926 178.374 252.158 178.128 252.446C177.881 252.733 177.698 253.07 177.591 253.433C177.484 253.797 177.455 254.178 177.506 254.554C177.557 254.929 177.686 255.29 177.886 255.611C179.135 257.518 183.257 257.625 185.205 257.082C185.312 257.082 186.359 256.638 187.125 256.316C186.729 256.591 186.326 256.873 185.936 257.129C184.5 258.068 183.123 258.847 181.908 259.525C181.237 259.901 180.565 260.237 179.968 260.539C179.222 260.237 176.221 259.055 174.67 259.109C173.12 259.163 171.226 259.653 170.306 260.969C169.906 261.54 169.743 262.246 169.854 262.935C169.964 263.624 170.338 264.243 170.897 264.661Z" fill="#263238"/>
<path d="M224.414 272.738C223.192 271.436 219.479 269.945 219.479 269.945C219.479 269.945 219.237 272.691 219.244 272.866C219.331 274.88 220.687 278.774 222.883 279.385C223.25 279.477 223.633 279.491 224.006 279.424C224.379 279.358 224.734 279.214 225.047 279.001C225.36 278.788 225.625 278.511 225.823 278.188C226.022 277.866 226.15 277.505 226.199 277.129C226.475 275.538 225.454 273.839 224.414 272.738Z" fill="#263238"/>
<path d="M280.219 51.1943H39.4133V244.681H280.219V51.1943Z" fill="#FAFAFA" stroke="#263238" stroke-linejoin="round"/>
<path d="M248.885 219.86H218.848C218.064 219.86 217.313 219.549 216.759 218.995C216.205 218.441 215.893 217.69 215.893 216.906V182.484" fill="#FAFAFA"/>
<path d="M248.885 219.86H218.848C218.064 219.86 217.313 219.549 216.759 218.995C216.205 218.441 215.893 217.69 215.893 216.906V182.484" stroke="#263238" stroke-linejoin="round"/>
<path d="M267.818 148.573V216.906C267.817 217.69 267.504 218.442 266.949 218.995C266.394 219.549 265.642 219.86 264.858 219.86H251.833" fill="#FAFAFA"/>
<path d="M267.818 148.573V216.906C267.817 217.69 267.504 218.442 266.949 218.995C266.394 219.549 265.642 219.86 264.858 219.86H251.833" stroke="#263238" stroke-linejoin="round"/>
<path d="M215.893 180.168V128.015C215.893 127.627 215.97 127.243 216.118 126.885C216.267 126.527 216.485 126.202 216.759 125.928C217.033 125.655 217.359 125.438 217.718 125.29C218.076 125.142 218.46 125.067 218.848 125.067H264.858C265.245 125.067 265.63 125.142 265.989 125.29C266.347 125.437 266.673 125.654 266.948 125.928C267.223 126.202 267.442 126.527 267.591 126.885C267.74 127.243 267.817 127.627 267.818 128.015V146.679" fill="#FAFAFA"/>
<path d="M215.893 180.168V128.015C215.893 127.627 215.97 127.243 216.118 126.885C216.267 126.527 216.485 126.202 216.759 125.928C217.033 125.655 217.359 125.438 217.718 125.29C218.076 125.142 218.46 125.067 218.848 125.067H264.858C265.245 125.067 265.63 125.142 265.989 125.29C266.347 125.437 266.673 125.654 266.948 125.928C267.223 126.202 267.442 126.527 267.591 126.885C267.74 127.243 267.817 127.627 267.818 128.015V146.679" stroke="#263238" stroke-linejoin="round"/>
<path d="M267.818 128.015V143.947H215.893V128.015C215.893 127.627 215.97 127.243 216.118 126.885C216.267 126.527 216.485 126.202 216.759 125.928C217.033 125.655 217.359 125.438 217.718 125.29C218.076 125.142 218.46 125.067 218.848 125.067H264.858C265.245 125.067 265.63 125.142 265.989 125.29C266.347 125.437 266.673 125.654 266.948 125.928C267.223 126.202 267.442 126.527 267.591 126.885C267.74 127.243 267.817 127.627 267.818 128.015Z" fill="#FAFAFA" stroke="#263238" stroke-linejoin="round"/>
<path d="M280.219 51.1943H39.4133V116.708H280.219V51.1943Z" fill="#FAFAFA" stroke="#263238" stroke-linejoin="round"/>
<path d="M262.266 101.172C265.309 100.422 267.167 97.3482 266.417 94.3061C265.667 91.2639 262.592 89.4058 259.55 90.1559C256.508 90.9059 254.65 93.9801 255.4 97.0222C256.15 100.064 259.224 101.922 262.266 101.172Z" fill="#D9D9D9" stroke="#263238" stroke-linejoin="round"/>
<path d="M243.843 93.29C244.262 93.29 244.602 92.9504 244.602 92.5314C244.602 92.1124 244.262 91.7727 243.843 91.7727C243.424 91.7727 243.084 92.1124 243.084 92.5314C243.084 92.9504 243.424 93.29 243.843 93.29Z" fill="#263238"/>
<path d="M247.569 92.5314C247.569 92.3813 247.525 92.2346 247.441 92.1099C247.358 91.9851 247.239 91.8879 247.101 91.8305C246.962 91.773 246.81 91.758 246.662 91.7873C246.515 91.8166 246.38 91.8888 246.274 91.9949C246.168 92.101 246.096 92.2362 246.066 92.3834C246.037 92.5305 246.052 92.6831 246.109 92.8217C246.167 92.9603 246.264 93.0788 246.389 93.1622C246.514 93.2455 246.66 93.29 246.81 93.29C247.011 93.2883 247.203 93.2078 247.345 93.0659C247.487 92.924 247.567 92.732 247.569 92.5314Z" fill="#263238"/>
<path d="M250.544 92.5314C250.544 92.3813 250.499 92.2346 250.416 92.1099C250.333 91.9851 250.214 91.8879 250.075 91.8305C249.937 91.773 249.784 91.758 249.637 91.7873C249.49 91.8166 249.355 91.8888 249.249 91.9949C249.143 92.101 249.07 92.2362 249.041 92.3834C249.012 92.5305 249.027 92.6831 249.084 92.8217C249.142 92.9603 249.239 93.0788 249.364 93.1622C249.488 93.2455 249.635 93.29 249.785 93.29C249.986 93.2883 250.178 93.2078 250.32 93.0659C250.462 92.924 250.542 92.732 250.544 92.5314Z" fill="#263238"/>
<path d="M244.595 95.6205C244.595 95.4701 244.55 95.3232 244.467 95.1983C244.383 95.0734 244.264 94.9761 244.125 94.9189C243.986 94.8617 243.833 94.8471 243.686 94.8769C243.539 94.9067 243.403 94.9796 243.298 95.0864C243.192 95.1932 243.12 95.329 243.091 95.4766C243.063 95.6242 243.079 95.777 243.137 95.9155C243.196 96.054 243.294 96.172 243.42 96.2545C243.545 96.3371 243.693 96.3804 243.843 96.3791C244.043 96.3773 244.234 96.2966 244.375 96.1545C244.516 96.0125 244.595 95.8205 244.595 95.6205Z" fill="#263238"/>
<path d="M247.569 95.6205C247.569 95.4704 247.525 95.3238 247.441 95.199C247.358 95.0742 247.239 94.977 247.101 94.9196C246.962 94.8622 246.81 94.8471 246.662 94.8764C246.515 94.9057 246.38 94.9779 246.274 95.084C246.168 95.1901 246.096 95.3253 246.066 95.4725C246.037 95.6196 246.052 95.7722 246.109 95.9108C246.167 96.0494 246.264 96.1679 246.389 96.2513C246.514 96.3347 246.66 96.3792 246.81 96.3792C247.011 96.3774 247.203 96.2969 247.345 96.155C247.487 96.0131 247.567 95.8212 247.569 95.6205Z" fill="#263238"/>
<path d="M250.544 95.6205C250.544 95.4704 250.499 95.3238 250.416 95.199C250.333 95.0742 250.214 94.977 250.075 94.9196C249.937 94.8622 249.784 94.8471 249.637 94.8764C249.49 94.9057 249.355 94.9779 249.249 95.084C249.143 95.1901 249.07 95.3253 249.041 95.4725C249.012 95.6196 249.027 95.7722 249.084 95.9108C249.142 96.0494 249.239 96.1679 249.364 96.2513C249.488 96.3347 249.635 96.3792 249.785 96.3792C249.986 96.3774 250.178 96.2969 250.32 96.155C250.462 96.0131 250.542 95.8212 250.544 95.6205Z" fill="#263238"/>
<path d="M244.595 98.6958C244.595 98.5454 244.55 98.3985 244.467 98.2736C244.383 98.1487 244.264 98.0515 244.125 97.9942C243.986 97.937 243.833 97.9224 243.686 97.9522C243.539 97.982 243.403 98.055 243.298 98.1617C243.192 98.2685 243.12 98.4043 243.091 98.5519C243.063 98.6995 243.079 98.8523 243.137 98.9908C243.196 99.1293 243.294 99.2473 243.42 99.3299C243.545 99.4124 243.693 99.4558 243.843 99.4544C244.043 99.4527 244.234 99.372 244.375 99.2299C244.516 99.0878 244.595 98.8958 244.595 98.6958Z" fill="#263238"/>
<path d="M247.569 98.6957C247.569 98.5456 247.525 98.399 247.441 98.2742C247.358 98.1494 247.239 98.0522 247.101 97.9948C246.962 97.9373 246.81 97.9223 246.662 97.9516C246.515 97.9809 246.38 98.0531 246.274 98.1592C246.168 98.2653 246.096 98.4005 246.066 98.5477C246.037 98.6948 246.052 98.8474 246.109 98.986C246.167 99.1246 246.264 99.2431 246.389 99.3265C246.514 99.4099 246.66 99.4543 246.81 99.4543C247.011 99.4526 247.203 99.3721 247.345 99.2302C247.487 99.0883 247.567 98.8963 247.569 98.6957Z" fill="#263238"/>
<path d="M250.544 98.6957C250.544 98.5456 250.499 98.399 250.416 98.2742C250.333 98.1494 250.214 98.0522 250.075 97.9948C249.937 97.9373 249.784 97.9223 249.637 97.9516C249.49 97.9809 249.355 98.0531 249.249 98.1592C249.143 98.2653 249.07 98.4005 249.041 98.5477C249.012 98.6948 249.027 98.8474 249.084 98.986C249.142 99.1246 249.239 99.2431 249.364 99.3265C249.488 99.4099 249.635 99.4543 249.785 99.4543C249.986 99.4526 250.178 99.3721 250.32 99.2302C250.462 99.0883 250.542 98.8963 250.544 98.6957Z" fill="#263238"/>
<path d="M208.166 97.9095C207.608 99.6359 206.517 101.141 205.05 102.208C203.584 103.276 201.816 103.851 200.002 103.851H121.893" fill="#FAFAFA"/>
<path d="M208.166 97.9095C207.608 99.6359 206.517 101.141 205.05 102.208C203.584 103.276 201.816 103.851 200.002 103.851H121.893" stroke="#263238" stroke-linejoin="round"/>
<path d="M139.094 86.7105H200.022C201.147 86.7096 202.262 86.9305 203.302 87.3606C204.342 87.7908 205.288 88.4217 206.084 89.2173C206.88 90.0129 207.512 90.9576 207.943 91.9974C208.374 93.0372 208.595 94.1517 208.595 95.2773" fill="#FAFAFA"/>
<path d="M139.094 86.7105H200.022C201.147 86.7096 202.262 86.9305 203.302 87.3606C204.342 87.7908 205.288 88.4217 206.084 89.2173C206.88 90.0129 207.512 90.9576 207.943 91.9974C208.374 93.0372 208.595 94.1517 208.595 95.2773" stroke="#263238" stroke-linejoin="round"/>
<path d="M117.609 103.851H76.9301C75.8045 103.851 74.69 103.629 73.6501 103.198C72.6103 102.767 71.6656 102.136 70.87 101.339C70.0744 100.543 69.4435 99.5979 69.0134 98.5578C68.5833 97.5176 68.3623 96.4029 68.3632 95.2773C68.3632 93.0052 69.2658 90.8262 70.8724 89.2196C72.479 87.613 74.658 86.7104 76.9301 86.7104H136.099" fill="#FAFAFA"/>
<path d="M117.609 103.851H76.9301C75.8045 103.851 74.69 103.629 73.6501 103.198C72.6103 102.767 71.6656 102.136 70.87 101.339C70.0744 100.543 69.4435 99.5979 69.0134 98.5578C68.5833 97.5176 68.3623 96.4029 68.3632 95.2773C68.3632 93.0052 69.2658 90.8262 70.8724 89.2196C72.479 87.613 74.658 86.7104 76.9301 86.7104H136.099" stroke="#263238" stroke-linejoin="round"/>
<path d="M186.957 90.6652V98.6815" stroke="#263238" stroke-width="0.5" stroke-linejoin="round"/>
<path d="M180.726 90.7393L173.207 98.2588" stroke="#263238" stroke-linejoin="round"/>
<path d="M173.207 90.7393L180.726 98.2588" stroke="#263238" stroke-linejoin="round"/>
<path d="M77.3262 97.4798H76.5138L75.782 92.1558H76.3594L76.9838 96.6876L77.5813 92.1625H78.1654L78.7495 96.6943L79.3538 92.1558H79.8707L79.1456 97.4798H78.3333L77.8297 93.8678L77.3262 97.4798Z" fill="#263238"/>
<path d="M82.2209 94.5123V95.0494H80.9184V96.9427H82.5163V97.4798H80.3276V92.1558H82.5163V92.6929H80.9184V94.5123H82.2209Z" fill="#263238"/>
<path d="M84.2618 92.1558C85.0876 92.1558 85.4165 92.5519 85.4165 93.3374V93.5858C85.4165 94.1498 85.2554 94.4989 84.7922 94.6466C85.3091 94.7876 85.5038 95.1971 85.5038 95.7812V96.2311C85.5289 96.3979 85.515 96.5683 85.4633 96.7289C85.4117 96.8894 85.3235 97.0359 85.2059 97.1568C85.0882 97.2777 84.9442 97.3698 84.7851 97.4258C84.626 97.4819 84.4561 97.5003 84.2886 97.4798H83.0667V92.1558H84.2618ZM84.1141 94.4183C84.584 94.4183 84.8324 94.2639 84.8324 93.7067V93.3978C84.8324 92.9211 84.6713 92.6929 84.2416 92.6929H83.6575V94.4183H84.1141ZM84.2886 96.9427C84.725 96.9427 84.9197 96.7145 84.9197 96.2176V95.7477C84.9197 95.1501 84.6847 94.9554 84.1745 94.9554H83.6575V96.9696L84.2886 96.9427Z" fill="#263238"/>
<path d="M89.5322 93.4313V93.579H88.9682V93.4044C88.9682 92.921 88.7869 92.639 88.364 92.639C87.941 92.639 87.753 92.921 87.753 93.3977C87.753 94.5928 89.5389 94.7069 89.5389 96.2041C89.5389 97.0097 89.1495 97.5469 88.3371 97.5469C87.5247 97.5469 87.142 97.0232 87.142 96.2041V95.8953H87.6993V96.2309C87.6993 96.7143 87.894 96.9963 88.3237 96.9963C88.7534 96.9963 88.9481 96.7143 88.9481 96.2309C88.9481 95.0493 87.1689 94.9352 87.1689 93.4313C87.1689 92.6122 87.5449 92.0885 88.3438 92.0885C89.1428 92.0885 89.5322 92.6525 89.5322 93.4313Z" fill="#263238"/>
<path d="M91.9556 94.5123V95.0494H90.6531V96.9427H92.251V97.4798H90.0825V92.1558H92.2779V92.6929H90.68V94.5123H91.9556Z" fill="#263238"/>
<path d="M93.3993 96.4056L93.1979 97.4798H92.6474L93.6679 92.1558H94.5273L95.5478 97.4798H94.9502L94.7488 96.4056H93.3993ZM93.4732 95.8954H94.6616L94.064 92.8271L93.4732 95.8954Z" fill="#263238"/>
<path d="M97.1996 92.1558C98.0321 92.1558 98.3812 92.5787 98.3812 93.371V93.8074C98.3812 94.3915 98.1798 94.7607 97.7099 94.9017C98.1932 95.0494 98.3812 95.4388 98.3812 96.0095V96.842C98.3643 97.0596 98.3988 97.2781 98.4819 97.4798H97.8844C97.7967 97.2676 97.7621 97.0371 97.7837 96.8085V96.0095C97.7837 95.412 97.5017 95.2173 97.0116 95.2173H96.5886V97.4933H95.9978V92.1692L97.1996 92.1558ZM97.0452 94.6667C97.5151 94.6667 97.7971 94.5123 97.7971 93.9349V93.4247C97.7971 92.948 97.6226 92.6929 97.1795 92.6929H96.6021V94.6667H97.0452Z" fill="#263238"/>
<path d="M101.362 93.438V93.9214H100.825V93.4111C100.825 92.9344 100.637 92.639 100.2 92.639C99.764 92.639 99.576 92.9344 99.576 93.4111V96.2242C99.576 96.7076 99.7774 96.9963 100.2 96.9963C100.623 96.9963 100.825 96.7076 100.825 96.2242V95.5528H101.389V96.2242C101.389 97.0299 101.006 97.567 100.187 97.567C99.3679 97.567 98.9919 97.0366 98.9919 96.2242V93.4648C98.9919 92.6592 99.3679 92.1221 100.187 92.1221C101.006 92.1221 101.362 92.6525 101.362 93.438Z" fill="#263238"/>
<path d="M102.497 95.083V97.4798H101.899V92.1558H102.497V94.5526H103.806V92.1558H104.397V97.4798H103.806V95.083H102.497Z" fill="#263238"/>
<path d="M200.089 98.4665C199.975 98.5903 199.818 98.6666 199.65 98.6803C199.482 98.694 199.315 98.644 199.183 98.5404L196.101 95.734L196.685 95.0291L199.988 97.5602C200.116 97.6708 200.198 97.8256 200.216 97.9936C200.235 98.1617 200.189 98.3305 200.089 98.4665Z" fill="#263238" stroke="#263238" stroke-linejoin="round"/>
<path d="M192.173 91.8943C191.807 92.3377 191.581 92.8795 191.523 93.4514C191.465 94.0233 191.578 94.5995 191.848 95.1073C192.117 95.615 192.531 96.0315 193.037 96.3041C193.543 96.5767 194.118 96.6931 194.691 96.6387C195.263 96.5843 195.806 96.3615 196.252 95.9984C196.697 95.6353 197.025 95.1483 197.194 94.5989C197.363 94.0494 197.365 93.4623 197.201 92.9116C197.036 92.3609 196.712 91.8714 196.269 91.5049C195.975 91.2605 195.635 91.0766 195.27 90.9639C194.905 90.8511 194.521 90.8117 194.14 90.8479C193.759 90.8841 193.39 90.9951 193.052 91.1747C192.715 91.3543 192.416 91.5989 192.173 91.8943ZM196.329 95.3318C196.015 95.7092 195.597 95.9852 195.126 96.1248C194.655 96.2645 194.154 96.2616 193.685 96.1164C193.216 95.9713 192.801 95.6905 192.491 95.3095C192.182 94.9284 191.992 94.4642 191.946 93.9755C191.9 93.4868 192 92.9954 192.233 92.5634C192.467 92.1314 192.822 91.7782 193.256 91.5484C193.69 91.3185 194.182 91.2223 194.67 91.2719C195.159 91.3216 195.622 91.5148 196 91.8272C196.254 92.0354 196.463 92.2917 196.617 92.5812C196.77 92.8708 196.865 93.1879 196.896 93.5143C196.927 93.8408 196.892 94.17 196.795 94.4831C196.698 94.7962 196.539 95.0869 196.329 95.3385V95.3318Z" fill="#263238" stroke="#263238" stroke-linejoin="round"/>
<path d="M280.212 51.1943H272.867V244.681H280.212V51.1943Z" fill="#D9D9D9" stroke="#263238" stroke-linejoin="round"/>
<path d="M280.212 89.7727H272.867V108.753H280.212V89.7727Z" fill="#8F8F8F" stroke="#263238" stroke-linejoin="round"/>
<path d="M280.219 51.1943H39.4133V73.8469H280.219V51.1943Z" fill="#10B981" stroke="#263238" stroke-linejoin="round"/>
<path d="M280.219 51.1943H80.6093V59.157H280.219V51.1943Z" fill="#263238" stroke="#263238" stroke-linejoin="round"/>
<path d="M275.6 53.1957L271.39 57.412" stroke="#FAFAFA" stroke-linejoin="round"/>
<path d="M271.39 53.1957L275.6 57.412" stroke="#FAFAFA" stroke-linejoin="round"/>
<path d="M263.36 53.5513H260.259V56.6531H263.36V53.5513Z" fill="#263238" stroke="#FAFAFA" stroke-linejoin="round"/>
<path d="M261.87 54.2963H258.768V57.3981H261.87V54.2963Z" fill="#263238" stroke="#FAFAFA" stroke-linejoin="round"/>
<path d="M249.093 55.4583H243.729" stroke="#FAFAFA" stroke-linejoin="round"/>
<path d="M84.8593 53.0483V57.8622" stroke="#FAFAFA" stroke-linejoin="round"/>
<path d="M87.2692 55.451H82.4554" stroke="#FAFAFA" stroke-linejoin="round"/>
<path d="M69.9746 130.176H119.53" stroke="#263238" stroke-linejoin="round"/>
<path d="M69.9746 134.507H132.903" stroke="#263238" stroke-linejoin="round"/>
<path d="M69.9746 139.616H199.767" stroke="#263238" stroke-linejoin="round"/>
<path d="M69.9746 144.336H199.767" stroke="#263238" stroke-linejoin="round"/>
<path d="M69.9746 149.056H199.767" stroke="#263238" stroke-linejoin="round"/>
<path d="M69.9746 160.073H119.53" stroke="#263238" stroke-linejoin="round"/>
<path d="M69.9746 164.397H132.903" stroke="#263238" stroke-linejoin="round"/>
<path d="M69.9746 169.512H199.767" stroke="#263238" stroke-linejoin="round"/>
<path d="M69.9746 174.232H199.767" stroke="#263238" stroke-linejoin="round"/>
<path d="M69.9746 178.952H199.767" stroke="#263238" stroke-linejoin="round"/>
<path d="M69.9746 189.963H119.53" stroke="#263238" stroke-linejoin="round"/>
<path d="M69.9746 194.293H132.903" stroke="#263238" stroke-linejoin="round"/>
<path d="M69.9746 199.403H199.767" stroke="#263238" stroke-linejoin="round"/>
<path d="M69.9746 204.123H199.767" stroke="#263238" stroke-linejoin="round"/>
<path d="M69.9746 208.842H199.767" stroke="#263238" stroke-linejoin="round"/>
<path d="M69.9746 219.853H119.53" stroke="#263238" stroke-linejoin="round"/>
<path d="M69.9746 224.184H132.903" stroke="#263238" stroke-linejoin="round"/>
<path d="M69.9746 229.293H199.767" stroke="#263238" stroke-linejoin="round"/>
<path d="M69.9746 234.012H199.767" stroke="#263238" stroke-linejoin="round"/>
<path d="M69.9746 238.732H199.767" stroke="#263238" stroke-linejoin="round"/>
<path d="M219.297 149.498H242.635" stroke="#263238" stroke-linejoin="round"/>
<path d="M219.297 152.634H242.635" stroke="#263238" stroke-linejoin="round"/>
<path d="M219.297 155.776H264.844" stroke="#263238" stroke-linejoin="round"/>
<path d="M219.297 158.918H264.844" stroke="#263238" stroke-linejoin="round"/>
<path d="M219.297 162.061H264.844" stroke="#263238" stroke-linejoin="round"/>
<path d="M219.297 165.203H264.844" stroke="#263238" stroke-linejoin="round"/>
<path d="M219.297 168.344H264.844" stroke="#263238" stroke-linejoin="round"/>
<path d="M219.297 171.487H264.844" stroke="#263238" stroke-linejoin="round"/>
<path d="M219.297 174.629H264.844" stroke="#263238" stroke-linejoin="round"/>
<path d="M219.297 177.771H264.844" stroke="#263238" stroke-linejoin="round"/>
<path d="M219.297 185.176H242.635" stroke="#263238" stroke-linejoin="round"/>
<path d="M219.297 188.312H242.635" stroke="#263238" stroke-linejoin="round"/>
<path d="M219.297 191.454H264.844" stroke="#263238" stroke-linejoin="round"/>
<path d="M219.297 194.596H264.844" stroke="#263238" stroke-linejoin="round"/>
<path d="M219.297 197.738H264.844" stroke="#263238" stroke-linejoin="round"/>
<path d="M219.297 200.88H264.844" stroke="#263238" stroke-linejoin="round"/>
<path d="M219.297 204.022H264.844" stroke="#263238" stroke-linejoin="round"/>
<path d="M219.297 207.164H264.844" stroke="#263238" stroke-linejoin="round"/>
<path d="M219.297 210.306H264.844" stroke="#263238" stroke-linejoin="round"/>
<path d="M219.297 213.449H264.844" stroke="#263238" stroke-linejoin="round"/>
<path d="M285.644 289.993H294.063" stroke="#263238" stroke-linejoin="round"/>
<path d="M66.7588 289.993H280.031" stroke="#263238" stroke-linejoin="round"/>
<path d="M19.6141 289.993H61.146" stroke="#263238" stroke-linejoin="round"/>
<path d="M158.785 276.894C158.785 276.894 165.969 277.317 167.661 276.894C169.353 276.471 172.737 273.725 173.16 275.84C173.583 277.955 171.26 280.916 169.803 282.601C168.346 284.286 162.418 285.777 160.712 286.629C159.007 287.482 156.483 289.59 154.368 289.59C152.253 289.59 151.011 282.608 151.011 282.608C151.011 282.608 157.349 278.808 159.067 276.055" fill="#FAFAFA"/>
<path d="M158.785 276.894C158.785 276.894 165.969 277.317 167.661 276.894C169.353 276.471 172.737 273.725 173.16 275.84C173.583 277.955 171.26 280.916 169.803 282.601C168.346 284.286 162.418 285.777 160.712 286.629C159.007 287.482 156.483 289.59 154.368 289.59C152.253 289.59 151.011 282.608 151.011 282.608C151.011 282.608 157.349 278.808 159.067 276.055" stroke="#263238" stroke-linejoin="round"/>
<path d="M172.784 275.202C168.474 283.152 161.37 284.501 161.37 284.501L152.374 287.502C152.897 288.664 153.555 289.583 154.314 289.583C156.429 289.583 158.967 287.469 160.659 286.623C162.351 285.777 168.272 284.293 169.749 282.594C171.226 280.896 173.556 277.948 173.106 275.833C173.085 275.589 172.969 275.363 172.784 275.202Z" fill="#FAFAFA" stroke="#263238" stroke-linejoin="round"/>
<path d="M82.5562 271.53C82.5562 271.53 77.0509 277.767 76.5809 279.586C76.1445 281.332 80.3474 283.87 81.435 284.635C84.2981 286.609 87.4206 288.177 90.7135 289.295C91.8817 289.697 97.6154 291.047 96.8634 288.207C96.3062 286.105 91.9019 283.682 91.3446 282.446C90.7874 281.211 89.8676 278.801 89.8676 278.801L82.5562 271.53Z" fill="#FAFAFA" stroke="#263238" stroke-linejoin="round"/>
<path d="M81.435 284.669C84.2981 286.643 87.4206 288.211 90.7135 289.328C91.7273 289.677 96.1853 290.738 96.85 289.154C94.8358 289.04 90.9687 288.402 86.0206 285.575C82.7415 283.748 79.622 281.648 76.695 279.298C76.6512 279.403 76.6131 279.511 76.5809 279.62C76.1445 281.359 80.3474 283.897 81.435 284.669Z" fill="#FAFAFA" stroke="#263238" stroke-linejoin="round"/>
<path d="M97.4678 193.246L99.7572 210.145L101.698 245.802C101.698 245.802 95.7759 251.509 92.3988 255.315C89.0218 259.122 81.3143 272.395 81.3143 272.395C81.3143 272.395 81.9252 275.719 85.7118 277.981C89.4984 280.244 91.5529 279.895 91.5529 279.895L94.2854 275.135L95.2656 272.986C95.2656 272.986 117.347 251.724 117.77 248.971C118.193 246.218 120.382 216.462 120.382 216.462L137.643 241.787C137.643 241.787 139.765 258.484 141.443 262.513C143.122 266.541 150.118 279.64 150.118 279.64L150.964 282.594C151.861 282.883 152.818 282.938 153.743 282.753C154.667 282.569 155.53 282.151 156.247 281.54C157.708 280.185 158.992 278.651 160.068 276.974L157.725 274.141L157.302 272.234C157.302 272.234 151.595 238.195 150.326 234.18C149.057 230.165 133.588 195.374 133.588 195.374L130.231 186.076C130.231 186.076 127.062 188.184 117.334 191.145C107.606 194.105 97.4678 193.246 97.4678 193.246Z" fill="#263238" stroke="#263238" stroke-linejoin="round"/>
<path d="M118.999 196.845C126.089 193.609 129.439 190.38 131.003 188.265L130.204 186.063C130.204 186.063 127.035 188.171 117.307 191.132C108.579 193.777 99.5892 193.387 97.7698 193.273L97.4408 193.32L98.0652 197.839C101.447 199.067 105.038 199.612 108.632 199.441C112.225 199.271 115.749 198.388 118.999 196.845Z" fill="#10B981" stroke="#263238" stroke-linejoin="round"/>
<path d="M93.7349 143.826L77.0845 156.193L95.9504 191.554C96.1379 192.875 96.8194 194.074 97.8572 194.911C99.6028 196.341 111.016 196.026 115.139 194.757C119.376 193.297 123.465 191.438 127.351 189.205C129.097 188.097 131.473 185.713 130.836 183.652C130.409 182.321 129.825 181.045 129.097 179.852L125.74 170.178C125.74 170.178 138.899 170.97 140.645 170.97C142.39 170.97 148.412 155.749 148.412 155.749C148.412 155.749 146.667 155.588 146.036 154.481C145.64 153.716 145.338 152.907 145.136 152.07C143.294 153.139 141.388 154.094 139.429 154.93C136.072 156.354 132.608 156.669 131.185 156.038C129.761 155.407 121.349 147.794 119.449 145.41C117.549 143.027 117.227 142.053 116.596 142.053C115.964 142.053 104.229 142.852 102.799 142.852C101.369 142.852 93.7349 143.826 93.7349 143.826Z" fill="#10B981" stroke="#263238" stroke-linejoin="round"/>
<path d="M146.063 154.454C145.662 153.722 145.351 152.944 145.136 152.138L144.639 152.708C144.639 152.708 142.101 154.608 142.739 157.307C143.135 158.993 145.082 159.563 146.801 159.711C147.768 157.435 148.446 155.723 148.446 155.723C148.446 155.723 146.694 155.562 146.063 154.454Z" fill="#10B981" stroke="#263238" stroke-linejoin="round"/>
<path d="M119.167 151.191L118.314 148.74" stroke="#263238" stroke-linejoin="round"/>
<path d="M125.767 170.151L119.912 153.339" stroke="#263238" stroke-linejoin="round"/>
<path d="M93.8893 204.458C92.967 203.695 92.2072 202.755 91.6552 201.692C91.1031 200.63 90.7699 199.468 90.6753 198.275C90.5808 197.081 90.7268 195.881 91.1048 194.745C91.4827 193.609 92.0848 192.561 92.8755 191.662L157.892 117.064L167.829 125.289L106.652 203.062C105.917 204.006 104.999 204.793 103.953 205.377C102.908 205.96 101.756 206.328 100.566 206.458C99.3759 206.588 98.1718 206.478 97.025 206.135C95.8782 205.791 94.8119 205.221 93.8893 204.458Z" fill="#263238" stroke="#263238" stroke-linejoin="round"/>
<path d="M140.598 136.91L92.8757 191.662C92.1263 192.566 91.5623 193.61 91.2161 194.732C90.8699 195.855 90.7482 197.035 90.858 198.204C90.9677 199.374 91.3067 200.51 91.8556 201.549C92.4046 202.587 93.1527 203.508 94.0573 204.257C94.9619 205.006 96.0053 205.57 97.1278 205.917C98.2503 206.263 99.4301 206.384 100.6 206.275C101.769 206.165 102.906 205.826 103.944 205.277C104.983 204.728 105.903 203.98 106.652 203.075L151.783 145.692L140.598 136.91Z" fill="#FAFAFA" stroke="#263238" stroke-linejoin="round"/>
<path d="M212.127 61.6883C205.879 56.5133 198.237 53.3073 190.167 52.4757C182.097 51.6442 173.962 53.2244 166.791 57.0167C159.619 60.8089 153.733 66.6428 149.877 73.7805C146.021 80.9181 144.369 89.039 145.129 97.1159C145.888 105.193 149.026 112.863 154.146 119.156C159.265 125.45 166.136 130.084 173.889 132.472C181.642 134.86 189.929 134.896 197.702 132.574C205.475 130.252 212.385 125.677 217.558 119.427C224.493 111.05 227.816 100.261 226.798 89.4333C225.779 78.6057 220.502 68.6258 212.127 61.6883ZM163.579 120.314C158.232 115.887 154.317 109.973 152.331 103.321C150.344 96.6696 150.375 89.5781 152.419 82.9436C154.462 76.3092 158.428 70.4298 163.813 66.0489C169.198 61.6681 175.761 58.9825 182.673 58.3318C189.585 57.6811 196.534 59.0946 202.642 62.3934C208.75 65.6922 213.743 70.7282 216.989 76.8646C220.235 83.0011 221.589 89.9623 220.879 96.8679C220.169 103.774 217.427 110.314 213 115.661C210.06 119.212 206.45 122.148 202.376 124.304C198.301 126.459 193.842 127.791 189.253 128.223C184.664 128.655 180.034 128.179 175.629 126.822C171.224 125.465 167.129 123.253 163.579 120.314Z" fill="#263238" stroke="#263238" stroke-linejoin="round"/>
<path d="M148.439 155.722L154.482 146.209C154.482 146.209 156.698 141.925 157.335 141.133C157.973 140.341 160.504 139.388 158.443 139.388C156.382 139.388 155.758 140.657 155.758 140.657V137.3C155.758 136.346 155.758 133.99 154.495 134.151C153.233 134.312 153.683 136.165 153.441 137.978C153.334 138.777 152.428 142.395 152.428 142.395L151.085 137.058C151.024 136.798 150.87 136.57 150.652 136.417C150.434 136.264 150.168 136.195 149.903 136.225C149.641 136.266 149.44 136.387 149.44 136.682C149.631 138.122 149.895 139.552 150.232 140.965L149.742 143.651C149.742 143.651 149.071 139.455 148.097 138.34C147.667 137.85 146.915 138.757 147.231 139.549C147.547 140.341 147.694 144.799 147.694 144.799L147.533 146.699C147.533 146.699 146.425 144.799 145.794 143.846C145.163 142.892 144.203 143.369 144.68 144.799C145.156 146.229 146.264 148.606 146.264 148.606L145.136 152.07C145.136 152.07 143.364 157.461 148.439 155.722Z" fill="#FAFAFA" stroke="#263238" stroke-linejoin="round"/>
<path d="M155.731 140.657L154.623 143.826" stroke="#263238" stroke-linejoin="round"/>
<path d="M80.0788 154.245C80.0788 154.245 76.2922 155.246 76.2922 156.83C76.2922 158.415 76.2922 191.4 76.1311 192.507C75.9699 193.615 110.701 188.701 110.701 188.701L111.493 183.33L90.2436 179.046L90.0824 163.819" fill="#10B981"/>
<path d="M80.0788 154.245C80.0788 154.245 76.2922 155.246 76.2922 156.83C76.2922 158.415 76.2922 191.4 76.1311 192.507C75.9699 193.615 110.701 188.701 110.701 188.701L111.493 183.33L90.2436 179.046L90.0824 163.819" stroke="#263238" stroke-linejoin="round"/>
<path d="M108.002 182.619L107.847 189.03L107.955 189.097L110.701 188.715L111.493 183.344L108.002 182.619Z" fill="#10B981" stroke="#263238" stroke-linejoin="round"/>
<path d="M111.493 183.289C111.493 183.289 115.931 177.582 117.837 177.582C119.744 177.582 122.591 177.744 123.209 177.744C123.826 177.744 125.27 177.421 124.477 178.536C123.685 179.65 120.986 179.482 120.986 179.482L124.518 181.409C124.76 181.54 124.969 181.724 125.128 181.947C125.288 182.171 125.393 182.429 125.438 182.7C125.482 182.971 125.463 183.249 125.383 183.512C125.302 183.775 125.163 184.015 124.974 184.216C124.175 185.008 122.114 185.008 122.114 185.008C122.114 185.008 119.899 188.654 118.469 188.969C117.039 189.285 111.016 187.861 111.016 187.861L111.493 183.289Z" fill="#FAFAFA" stroke="#263238" stroke-linejoin="round"/>
<path d="M107.774 154.232L108.183 143.839L104.135 142.489L104.806 146.672L107.774 154.232Z" fill="#10B981" stroke="#263238" stroke-linejoin="round"/>
<path d="M108.183 143.839L111.151 149.915L108.042 149.64L108.183 143.839Z" fill="#10B981" stroke="#263238" stroke-linejoin="round"/>
<path d="M110.07 135.883C108.727 136.286 105.478 144.114 105.478 144.114L107.774 154.232L104.135 149.103L103.134 144.175L94.5541 140.603L94.6884 134.936C93.909 134.514 93.1597 134.039 92.446 133.513C90.9186 132.454 89.6158 131.103 88.6124 129.538C86.7258 126.302 84.0268 121.314 88.2096 115.916C92.2379 110.706 96.4139 110.397 100.966 110.135H101.463C101.463 110.135 106.726 113.378 106.834 114.996C106.941 116.614 107.646 118.91 109.13 119.85C110.614 120.79 112.635 119.716 112.635 121.737C112.6 122.376 112.438 123.002 112.159 123.579C111.88 124.155 111.49 124.67 111.01 125.094C111.01 125.094 112.353 131.304 113.024 133.325C113.695 135.346 111.419 135.473 110.07 135.883Z" fill="#FAFAFA" stroke="#263238" stroke-linejoin="round"/>
<path d="M106.068 119.999C106.417 120.529 106.498 121.093 106.243 121.254C105.988 121.415 105.511 121.12 105.169 120.583C104.826 120.046 104.739 119.488 104.987 119.327C105.236 119.166 105.719 119.468 106.068 119.999Z" fill="#263238"/>
<path d="M102.92 119.689C102.92 119.689 103.054 117.393 105.209 117.393" stroke="#263238" stroke-linejoin="round"/>
<path d="M109.123 127.786C109.123 127.786 105.484 128.592 104.806 126.443" stroke="#263238" stroke-linejoin="round"/>
<path d="M100.221 114.969C101.436 116.178 96.9778 119.145 96.3065 120.502C95.6351 121.858 96.8503 124.006 96.9778 124.953C97.1054 125.899 93.8828 128.592 93.8828 128.592L92.6608 129.807L93.6075 133.587C93.6075 133.587 93.1778 133.587 92.446 133.513C90.9186 132.454 89.6158 131.103 88.6124 129.538C86.7258 126.302 84.0268 121.314 88.2096 115.916C92.2379 110.706 96.4139 110.397 100.966 110.135C100.18 110.666 99.1867 110.901 98.6227 111.478C97.7902 112.264 99.0054 113.747 100.221 114.969Z" fill="#A6A6A6" stroke="#263238" stroke-linejoin="round"/>
<path d="M95.5006 129.136C95.5006 129.136 93.4864 126.034 91.0426 127.793C88.5988 129.552 93.0568 133.594 93.8758 134.265C94.6949 134.937 97.2328 132.379 97.2328 132.379C97.6996 133.053 98.2964 133.627 98.9881 134.068C99.6799 134.508 100.453 134.806 101.261 134.943" fill="#FAFAFA"/>
<path d="M95.5006 129.136C95.5006 129.136 93.4864 126.034 91.0426 127.793C88.5988 129.552 93.0568 133.594 93.8758 134.265C94.6949 134.937 97.2328 132.379 97.2328 132.379C97.6996 133.053 98.2964 133.627 98.9881 134.068C99.6799 134.508 100.453 134.806 101.261 134.943" stroke="#263238" stroke-linejoin="round"/>
<path d="M97.9244 112.539C97.9244 112.539 92.1236 119.017 90.6399 121.985C89.6337 124.079 88.7767 126.242 88.0752 128.457C88.0752 128.457 85.1076 128.189 83.3755 126.302C81.6433 124.415 83.5098 116.99 86.8801 113.351C88.9828 111.111 91.4477 109.241 94.1713 107.819C94.1713 107.819 89.8543 107.953 91.4858 106.738C93.1173 105.523 97.1523 104.985 99.8513 106.335C100.208 106.473 100.533 106.681 100.808 106.947C101.083 107.212 101.302 107.53 101.453 107.882C101.604 108.233 101.683 108.611 101.686 108.993C101.688 109.376 101.615 109.755 101.469 110.108L97.9244 112.539Z" fill="#263238" stroke="#263238" stroke-linejoin="round"/>
<path d="M93.7415 139.79L90.962 145.692L101.838 151.936L103.678 143.772L93.7415 139.79Z" fill="#10B981" stroke="#263238" stroke-linejoin="round"/>
</svg>
