<svg width="27" height="32" viewBox="0 0 27 32" fill="none" xmlns="http://www.w3.org/2000/svg">
<path d="M25.7509 13.0337C26.1998 12.9896 26.5292 12.5983 26.5292 12.5983C26.5292 12.5983 26.1302 12.2783 25.6804 12.3225C25.6258 12.3276 25.5717 12.3381 25.5191 12.3539C25.5975 12.2261 25.6392 12.0793 25.6397 11.9295C25.5522 11.9367 25.4663 11.9573 25.385 11.9906C25.5242 10.7523 25.0846 9.49528 24.0712 8.42585C24.1113 8.43326 24.1518 8.43809 24.1925 8.44028C24.6611 8.46065 25.0566 8.10587 25.0566 8.10587C25.0566 8.10587 24.7171 7.74685 24.2732 7.70271C24.3748 7.64589 24.4701 7.57846 24.5575 7.50156C25.161 6.9643 25.2246 6.05019 25.2246 6.05019C25.2246 6.05019 24.3097 6.00776 23.7062 6.54502C23.6331 6.61066 23.5658 6.68251 23.5051 6.75975C23.4836 6.49185 23.3891 6.23497 23.2318 6.01709C23.1799 6.06151 23.1313 6.10974 23.0866 6.16138C22.4764 4.17021 20.6388 2.80796 18.1944 2.58644C18.2442 2.51164 18.2858 2.43168 18.3183 2.34794C18.3183 2.34794 17.9279 2.21893 17.585 2.36407C17.6372 2.28208 17.6805 2.19472 17.714 2.1035C17.9423 1.47118 17.6292 0.778597 17.6292 0.778597C17.6292 0.778597 16.9434 1.10961 16.715 1.74108C16.6877 1.8181 16.667 1.89733 16.6531 1.97788C16.5315 1.79034 16.3606 1.63997 16.1591 1.54332C16.1223 1.63979 16.0975 1.74041 16.0853 1.84293C15.0144 1.17755 13.7658 0.855362 12.5067 0.91953C11.2477 0.983698 10.0383 1.43116 9.04063 2.20195C9.03921 2.01577 8.99721 1.83214 8.91756 1.66384C8.91756 1.66384 8.556 1.86245 8.42953 2.21129C8.40487 2.11742 8.37045 2.02639 8.32683 1.93969C8.01958 1.34556 7.29815 1.10027 7.29815 1.10027C7.29815 1.10027 7.07238 1.82765 7.38302 2.42517C7.42018 2.49778 7.46393 2.56682 7.51373 2.63142C7.29372 2.59301 7.0674 2.61561 6.85934 2.69678C6.8861 2.7524 6.91732 2.80576 6.9527 2.85634C4.78414 3.24252 3.19868 4.54366 2.65208 6.34726C2.58129 6.28962 2.50544 6.23849 2.42546 6.19448C2.42546 6.19448 2.21243 6.64008 2.33125 7.07039C2.24173 6.99588 2.14441 6.93128 2.04098 6.87773C1.32293 6.50767 0.447021 6.77757 0.447021 6.77757C0.447021 6.77757 0.736446 7.6467 1.45534 8.0159C1.54292 8.06086 1.63439 8.09779 1.72864 8.12624C1.48644 8.2424 1.28089 8.42299 1.13451 8.64822C1.33031 8.75306 1.54675 8.81362 1.76853 8.82561C-0.117398 10.9738 0.190699 13.7416 2.65547 15.6411C2.65547 15.8108 2.65547 15.9713 2.67245 16.1325C2.46653 16.1137 2.25895 16.1368 2.0622 16.2004C2.0622 16.2004 2.23959 16.6613 2.6351 16.8684C2.51947 16.8835 2.4057 16.9105 2.2956 16.949C1.53173 17.2189 1.13112 18.0405 1.13112 18.0405C1.13112 18.0405 1.96204 18.425 2.72337 18.1551C2.81608 18.1224 2.90558 18.0812 2.99073 18.032C2.96155 18.1115 2.94161 18.1941 2.93132 18.2782C2.93085 18.2875 2.93085 18.2968 2.93132 18.3062C2.91457 18.4793 2.92662 18.6539 2.96697 18.8231C3.16149 18.7573 3.34096 18.6534 3.49489 18.5175H3.50932C3.5229 18.537 3.53733 18.5557 3.55176 18.5744C3.50174 18.6198 3.45521 18.6688 3.41256 18.7212C2.99328 19.2466 3.06882 20.0037 3.06882 20.0037C3.06882 20.0037 3.81826 19.9095 4.24264 19.3832L4.25961 19.3595C4.3725 19.4596 4.48284 19.5411 4.60591 19.6319C4.65938 19.6761 4.69078 19.7049 4.72388 19.7261C5.80859 20.49 7.25401 20.8923 8.90653 20.8083C11.4579 23.0745 15.116 23.0006 17.5443 20.6343C19.0585 20.6504 20.3791 20.2642 21.3917 19.5827C21.4563 19.7176 21.5567 19.8321 21.6819 19.9137C21.7629 19.7659 21.7944 19.5961 21.7719 19.4291C21.8186 19.4747 21.8701 19.5151 21.9255 19.5496C22.3092 19.7864 22.8082 19.6735 22.8082 19.6735C22.8082 19.6735 22.6843 19.1778 22.299 18.941C22.2715 18.9243 22.2432 18.909 22.2141 18.8952C22.2498 18.8579 22.2846 18.8205 22.3185 18.7832C22.39 18.7326 22.4535 18.6717 22.5069 18.6024L22.4849 18.5888C23.2131 17.6857 23.5942 16.5255 23.5093 15.2184C24.2732 14.5759 24.7994 13.8528 25.1041 13.0965C25.143 13.1897 25.2039 13.2721 25.2815 13.3367C25.4276 13.4372 25.6038 13.4842 25.7806 13.47C25.7555 13.3035 25.6779 13.1495 25.559 13.0303C25.6227 13.038 25.687 13.0392 25.7509 13.0337Z" fill="#047857"/>
<path fill-rule="evenodd" clip-rule="evenodd" d="M17.7721 0.713917L17.6291 0.778593L17.5609 0.637231L17.7058 0.567272L17.7721 0.713917ZM17.8672 2.14114C17.9885 1.79253 17.963 1.4361 17.9112 1.17354C17.8846 1.03901 17.8505 0.925637 17.8229 0.845523C17.809 0.805387 17.7967 0.773378 17.7877 0.750988C17.7832 0.739788 17.7795 0.730976 17.7769 0.72474L17.7736 0.717334L17.7727 0.715119L17.7723 0.71439L17.7721 0.713917C17.7721 0.713869 17.7721 0.713917 17.6291 0.778593C17.5609 0.637231 17.5609 0.637208 17.5609 0.637231L17.5604 0.637458L17.5597 0.637808L17.5575 0.638879L17.5503 0.642505C17.5442 0.64558 17.5357 0.649976 17.5251 0.655686C17.5038 0.667099 17.4738 0.6838 17.4373 0.705743C17.3647 0.74954 17.2657 0.814705 17.159 0.90097C16.9557 1.06535 16.7142 1.31456 16.5824 1.64789C16.4782 1.54803 16.3583 1.4648 16.2269 1.40179L16.0732 1.32804L16.0124 1.48737C15.9989 1.52279 15.9868 1.5587 15.9762 1.59502C14.9223 0.99053 13.7152 0.700763 12.4987 0.762763C11.2996 0.823873 10.1445 1.22402 9.1664 1.91395C9.14328 1.80471 9.10744 1.69821 9.05939 1.59669L8.98734 1.44446L8.84055 1.52703C8.81366 1.542 8.72144 1.59739 8.61734 1.6888C8.56683 1.73316 8.5113 1.78793 8.45844 1.85278C8.28589 1.52845 8.00739 1.30475 7.77991 1.16376C7.66329 1.09149 7.557 1.03904 7.47951 1.0045C7.44068 0.987203 7.40887 0.974304 7.38635 0.965585C7.37508 0.961223 7.36611 0.957901 7.35974 0.95559L7.35214 0.952877L7.34986 0.952082L7.3491 0.951824L7.34871 0.95169C7.34867 0.951673 7.34862 0.951657 7.29809 1.10027L7.34871 0.95169L7.19597 0.899757L7.14818 1.05374L7.29809 1.10027C7.14818 1.05374 7.14819 1.05369 7.14818 1.05374L7.14802 1.05424L7.14779 1.05501L7.14709 1.05734L7.1448 1.06511C7.14292 1.07165 7.14034 1.08087 7.13724 1.09257C7.13106 1.11596 7.12282 1.14932 7.11406 1.19094C7.09658 1.27402 7.07684 1.39095 7.06744 1.5279C7.04954 1.78867 7.06824 2.135 7.22414 2.45852C7.0802 2.46681 6.93778 2.49766 6.80224 2.55054L6.64437 2.61212L6.70777 2.7439C4.68267 3.16821 3.16935 4.39469 2.56906 6.09647C2.54672 6.08277 2.52405 6.0696 2.50107 6.05695L2.42195 6.19283C2.28379 6.12677 2.28377 6.12682 2.28375 6.12686L2.2836 6.12718L2.28332 6.12776L2.28255 6.12941L2.28015 6.13463C2.27818 6.13896 2.2755 6.14496 2.27225 6.15253C2.26576 6.16765 2.25695 6.18908 2.24693 6.2159C2.22695 6.2694 2.20187 6.3451 2.18085 6.43552C2.1598 6.52605 2.14209 6.63443 2.13875 6.75189C2.13024 6.7473 2.12168 6.74278 2.11309 6.73833C1.71846 6.53495 1.28721 6.51006 0.963915 6.53228C0.800941 6.54348 0.661746 6.56687 0.562912 6.58754C0.513412 6.59789 0.473805 6.60761 0.446139 6.61488C0.4323 6.61851 0.42143 6.62153 0.413783 6.62372L0.404756 6.62635L0.402111 6.62715L0.400964 6.6275C0.400912 6.62751 0.400743 6.62756 0.446954 6.77753L0.400964 6.6275L0.247314 6.67484L0.298039 6.82716L0.446954 6.77753C0.298027 6.82712 0.298022 6.82711 0.298039 6.82716L0.298213 6.82768L0.298495 6.82852L0.299388 6.83113L0.302495 6.84001C0.305158 6.8475 0.309016 6.8581 0.314102 6.87146C0.324272 6.89819 0.339384 6.93605 0.359733 6.98232C0.400362 7.07472 0.462246 7.20152 0.547882 7.34059C0.717558 7.61613 0.987848 7.95181 1.38212 8.15478C1.23374 8.26735 1.10522 8.40515 1.00284 8.56268L0.909733 8.70595L1.06036 8.7866C1.18925 8.85561 1.32624 8.90723 1.46775 8.94046C0.63028 9.9917 0.279228 11.1797 0.424672 12.346C0.577624 13.5726 1.27712 14.7559 2.49851 15.7178C2.49869 15.8015 2.49953 15.8853 2.50325 15.9695C2.33733 15.9724 2.17241 15.9998 2.01387 16.0511L2.06214 16.2004L1.90986 16.2385L1.95059 16.4014L1.97931 16.3921C2.00259 16.436 2.03256 16.488 2.06955 16.5436C2.12107 16.6211 2.18795 16.7084 2.27146 16.7914C2.26221 16.7945 2.25298 16.7976 2.24377 16.8008L2.24325 16.801C1.82357 16.9493 1.51036 17.246 1.30536 17.4966C1.20204 17.6229 1.12398 17.7402 1.07154 17.8263C1.04528 17.8694 1.02532 17.9048 1.01173 17.93C1.00493 17.9425 0.999708 17.9525 0.996082 17.9596L0.991834 17.9679L0.990604 17.9704L0.990213 17.9712L0.990074 17.9715C0.99005 17.9716 0.989971 17.9717 1.13106 18.0405L0.990074 17.9715L0.919765 18.1157L1.06514 18.183L1.13106 18.0405C1.06514 18.183 1.06509 18.1829 1.06514 18.183L1.06564 18.1832L1.06644 18.1836L1.06896 18.1847L1.07754 18.1885C1.08482 18.1917 1.09518 18.1962 1.10839 18.2016C1.13481 18.2125 1.17272 18.2274 1.22035 18.2443C1.31544 18.278 1.45013 18.3198 1.61003 18.3528C1.92674 18.418 2.35609 18.4512 2.77385 18.3037C2.75722 18.4899 2.77084 18.6776 2.81423 18.8595L2.85416 19.0269L3.01719 18.9718C3.04299 18.963 3.06855 18.9537 3.09386 18.9438C2.99831 19.1513 2.95094 19.3629 2.92777 19.539C2.90989 19.675 2.90598 19.7934 2.90654 19.8782C2.90683 19.9207 2.90824 19.955 2.90962 19.9791C2.91032 19.9912 2.911 20.0007 2.91154 20.0075L2.91222 20.0155L2.91244 20.0179L2.91252 20.0187L2.91256 20.0192C2.91256 20.0192 2.91257 20.0193 3.06876 20.0037L2.91256 20.0192L2.92856 20.1795L3.08834 20.1594L3.06876 20.0037C3.08834 20.1594 3.08828 20.1594 3.08834 20.1594L3.08885 20.1593L3.08965 20.1592L3.09204 20.1589L3.10001 20.1578C3.1067 20.1568 3.1161 20.1554 3.12795 20.1534C3.15164 20.1494 3.1852 20.1431 3.22648 20.134C3.30888 20.1157 3.42294 20.0856 3.5512 20.0379C3.77556 19.9546 4.05312 19.8139 4.27801 19.5801C4.35411 19.6412 4.4303 19.6975 4.50916 19.7556C4.51819 19.7631 4.52728 19.7708 4.53639 19.7785C4.56963 19.8065 4.60324 19.8348 4.63592 19.8562C5.73892 20.6321 7.19591 21.0401 8.85043 20.9681C11.4441 23.2306 15.1346 23.1572 17.6072 20.7917C19.0549 20.7964 20.3334 20.4386 21.341 19.803C21.4104 19.8982 21.4967 19.9804 21.5962 20.0452L21.7381 20.1377L21.8196 19.9891C21.8652 19.9057 21.8978 19.8165 21.9166 19.7245C22.1226 19.8294 22.3422 19.856 22.5094 19.8573C22.6044 19.8581 22.6861 19.8507 22.7445 19.8431C22.7738 19.8393 22.7974 19.8354 22.8141 19.8323C22.8225 19.8308 22.8292 19.8295 22.834 19.8285L22.8399 19.8273L22.8417 19.8269L22.8423 19.8267L22.8427 19.8266C22.8428 19.8266 22.8428 19.8266 22.8082 19.6735L22.8427 19.8266L22.9994 19.7912L22.9605 19.6354L22.8082 19.6735C22.9605 19.6354 22.9605 19.6355 22.9605 19.6354L22.9603 19.635L22.9597 19.6325L22.9582 19.6267C22.9569 19.622 22.955 19.6154 22.9526 19.6073C22.9478 19.591 22.9407 19.5681 22.9309 19.5403C22.9114 19.4848 22.8811 19.4086 22.8376 19.3241C22.7632 19.1798 22.6452 19.0022 22.4676 18.8667C22.5283 18.817 22.5832 18.7605 22.6312 18.6982L22.7377 18.5601L22.7161 18.5468C23.3843 17.6525 23.7343 16.534 23.6705 15.2873C24.3335 14.7168 24.8194 14.083 25.1353 13.4162C25.15 13.4305 25.1652 13.4442 25.181 13.4573L25.1866 13.462L25.1925 13.4661C25.3683 13.587 25.5804 13.6436 25.7931 13.6264L25.9607 13.6129L25.9357 13.4466C25.9216 13.3528 25.8935 13.2622 25.8529 13.1777C26.079 13.1359 26.2688 13.0248 26.4022 12.9253C26.4783 12.8684 26.539 12.8132 26.5809 12.7719C26.6019 12.7512 26.6183 12.7338 26.6298 12.7212C26.6356 12.715 26.6401 12.7099 26.6433 12.7062L26.6472 12.7017L26.6485 12.7003L26.6489 12.6997L26.6491 12.6995C26.6492 12.6994 26.6492 12.6994 26.5291 12.5983L26.6491 12.6995L26.7527 12.5764L26.6273 12.4759L26.5291 12.5983C26.6273 12.4759 26.6274 12.4759 26.6273 12.4759L26.627 12.4756L26.6264 12.4752L26.625 12.474L26.6202 12.4703C26.6163 12.4673 26.6109 12.4632 26.604 12.4582C26.5903 12.4481 26.5708 12.4342 26.5462 12.418C26.4971 12.3856 26.4268 12.3432 26.3411 12.3022C26.1941 12.232 25.992 12.1616 25.7679 12.1613C25.7866 12.086 25.7963 12.0084 25.7966 11.93L25.7972 11.759L25.6267 11.7731C25.6044 11.7749 25.5823 11.7775 25.5603 11.7808C25.6241 10.6678 25.2392 9.55566 24.4208 8.58182C24.5988 8.55161 24.7558 8.48395 24.8755 8.41841C24.9618 8.3712 25.032 8.32334 25.0809 8.28704C25.1055 8.26885 25.1248 8.25342 25.1384 8.24223C25.1452 8.23664 25.1506 8.23209 25.1544 8.22878L25.159 8.22476L25.1605 8.22348L25.161 8.22303L25.1613 8.22278C25.1613 8.22275 25.1613 8.22272 25.0565 8.10587L25.1613 8.22278L25.2813 8.11511L25.1706 7.99802L25.0565 8.10587C25.1706 7.99802 25.1706 7.99805 25.1706 7.99802L25.1703 7.99769L25.1698 7.99723L25.1686 7.99592L25.1646 7.9918C25.1612 7.98841 25.1566 7.98376 25.1507 7.978C25.1389 7.96651 25.1221 7.95059 25.1006 7.9316C25.0579 7.89372 24.9963 7.8431 24.9194 7.79096C24.8426 7.73881 24.7479 7.68334 24.6397 7.63797C24.6469 7.63184 24.654 7.62565 24.6611 7.61941L24.6618 7.61879C24.9934 7.32357 25.1716 6.93035 25.2673 6.62073C25.3155 6.46466 25.3438 6.32639 25.3601 6.22676C25.3683 6.17686 25.3735 6.13642 25.3767 6.108C25.3782 6.09379 25.3793 6.08256 25.3801 6.07464L25.3808 6.06527L25.3811 6.06252L25.3811 6.06164L25.3811 6.06133C25.3812 6.06127 25.3812 6.0611 25.2246 6.05019L25.3811 6.06133L25.3923 5.90084L25.2318 5.89339L25.2246 6.05019C25.2318 5.89339 25.2319 5.89339 25.2318 5.89339L25.2304 5.89333L25.2277 5.89322L25.2183 5.89293C25.2103 5.89272 25.199 5.89251 25.1847 5.89245C25.1562 5.89233 25.1154 5.89281 25.0649 5.89516C24.9641 5.89983 24.8235 5.91196 24.663 5.94181C24.3449 6.00095 23.9344 6.13222 23.6031 6.42663C23.5514 6.24744 23.4691 6.07768 23.359 5.92519L23.2592 5.787L23.1562 5.8751C22.477 4.00762 20.7263 2.73356 18.4439 2.45511C18.4511 2.4385 18.458 2.42174 18.4646 2.40485L18.5273 2.24366L18.3608 2.19683C18.3668 2.19853 18.1422 2.12284 17.8672 2.14114ZM18.0885 2.46045C17.9648 2.44524 17.7981 2.44431 17.6461 2.50861L17.1817 2.70522L17.4526 2.27976C17.4986 2.20739 17.5368 2.13029 17.5665 2.04978C17.667 1.77114 17.6501 1.47207 17.6032 1.23431C17.586 1.14732 17.5652 1.07036 17.5458 1.00806C17.4909 1.04349 17.4254 1.08926 17.3563 1.1451C17.1678 1.29754 16.9633 1.51615 16.8627 1.79408C16.8384 1.86253 16.82 1.93293 16.8077 2.0045L16.7396 2.40013L16.5213 2.06325C16.45 1.95315 16.3591 1.85776 16.2536 1.78151C16.2485 1.808 16.2443 1.83469 16.2411 1.86154L16.2118 2.10641L16.0024 1.97625C14.9587 1.32776 13.7418 1.01375 12.5147 1.07629C11.2876 1.13883 10.1089 1.57493 9.13655 2.32616L8.88603 2.51971L8.88361 2.20315C8.88285 2.10356 8.86886 2.00481 8.84222 1.90943C8.83639 1.91435 8.83047 1.91944 8.82449 1.9247C8.72862 2.00888 8.62776 2.12489 8.57705 2.26478L8.40554 2.73786L8.27766 2.25118C8.25586 2.16819 8.22546 2.08771 8.18696 2.01103C8.05152 1.74963 7.82093 1.55853 7.61452 1.4306C7.53891 1.38373 7.46816 1.34635 7.40917 1.31791C7.39772 1.38213 7.3867 1.46104 7.38064 1.5494C7.36404 1.79117 7.38548 2.08972 7.52224 2.35277L7.5227 2.35366C7.55547 2.41771 7.59407 2.47861 7.63799 2.53558L7.88463 2.85553L7.48667 2.78605C7.35741 2.76348 7.22564 2.76507 7.09793 2.79019L7.22216 2.96778L6.98017 3.01087C4.85898 3.38862 3.32875 4.65548 2.80224 6.39278L2.73438 6.61672L2.55292 6.46898C2.53752 6.45644 2.52185 6.44424 2.50592 6.4324C2.4993 6.45542 2.49276 6.48026 2.48663 6.50661C2.45133 6.65844 2.43276 6.84846 2.4825 7.02861L2.61587 7.5116L2.23077 7.19103C2.15 7.12379 2.06218 7.0655 1.96886 7.01717C1.64548 6.85057 1.27956 6.82526 0.98544 6.84547C0.857709 6.85425 0.746181 6.87143 0.661436 6.88791C0.69728 6.96639 0.748113 7.06704 0.815198 7.17598C0.969744 7.42695 1.20315 7.70994 1.52696 7.87625C1.60611 7.91688 1.68878 7.95026 1.77395 7.97597L2.16113 8.09286L1.79646 8.26777C1.63616 8.34465 1.49385 8.45315 1.37771 8.58606C1.50554 8.63345 1.64011 8.66147 1.77695 8.66887L2.09963 8.68632L1.88643 8.92917C0.969229 9.97392 0.593044 11.1592 0.736193 12.3072C0.879469 13.4561 1.54563 14.5876 2.75123 15.5168L2.81239 15.5639V15.6411C2.81239 15.8123 2.81253 15.9644 2.8285 16.1161L2.84851 16.3062L2.65814 16.2888C2.53504 16.2776 2.41129 16.2831 2.29018 16.3048C2.3024 16.3254 2.316 16.3473 2.331 16.3698C2.41712 16.4994 2.54253 16.6428 2.70786 16.7293L3.14759 16.9596L2.65543 17.024C2.55058 17.0378 2.44742 17.0622 2.34759 17.0971C2.00351 17.2188 1.73457 17.4677 1.54834 17.6954C1.4675 17.7942 1.4039 17.887 1.35808 17.9598C1.43979 17.9875 1.54797 18.0194 1.67335 18.0453C1.96195 18.1047 2.3279 18.1287 2.67087 18.0071C2.75449 17.9776 2.83541 17.9404 2.91221 17.8961L3.28727 17.6796L3.13803 18.0861C3.11375 18.1522 3.09694 18.2209 3.08789 18.2907C3.08786 18.2932 3.08791 18.2958 3.08803 18.2983L3.08861 18.3098L3.0875 18.3213C3.07842 18.4152 3.07875 18.5096 3.08839 18.6031C3.1975 18.5491 3.29926 18.4808 3.39094 18.3998L3.43546 18.3605H3.59128L3.63812 18.4279C3.64908 18.4436 3.66109 18.4592 3.67591 18.4784L3.76459 18.5932L3.65718 18.6906C3.61319 18.7305 3.57225 18.7737 3.53471 18.8197C3.3503 19.0511 3.27062 19.3397 3.23903 19.5799C3.22747 19.6678 3.22259 19.7473 3.22103 19.8126C3.28373 19.7966 3.35947 19.7743 3.44186 19.7436C3.66733 19.6599 3.93021 19.5187 4.11761 19.2881L4.23323 19.1263L4.36373 19.2421C4.47054 19.3368 4.57532 19.4143 4.69905 19.5056L4.70248 19.5081L4.70577 19.5109C4.72612 19.5277 4.74171 19.5408 4.75424 19.5513C4.78043 19.5734 4.79331 19.5842 4.80854 19.594L4.81141 19.5958L4.8142 19.5978C5.86612 20.3386 7.27565 20.734 8.8985 20.6515L8.96267 20.6483L9.01071 20.6909C11.5012 22.903 15.0659 22.8302 17.4347 20.5219L17.4811 20.4766L17.5459 20.4773C19.0327 20.4932 20.3212 20.1139 21.304 19.4525L21.4547 19.351L21.5332 19.5149C21.5549 19.5603 21.5817 19.6028 21.6128 19.6417C21.6236 19.5788 21.6249 19.5141 21.6163 19.45L21.5554 18.998L21.8816 19.3168C21.9201 19.3545 21.9626 19.3878 22.0084 19.4163C22.166 19.5134 22.354 19.5421 22.5119 19.5434C22.5409 19.5436 22.5683 19.5429 22.5938 19.5416C22.5835 19.5184 22.5718 19.4936 22.5585 19.468C22.4862 19.3276 22.3755 19.1724 22.217 19.0749C22.1942 19.0611 22.1707 19.0484 22.1466 19.037L21.9507 18.9438L22.1005 18.7868C22.1353 18.7504 22.1692 18.714 22.2023 18.6776L22.2138 18.6649L22.2278 18.655C22.2378 18.6479 22.2476 18.6406 22.2572 18.6331L22.2507 18.6291L22.3626 18.4903C23.0653 17.6189 23.435 16.4978 23.3526 15.2286L23.3475 15.1494L23.4082 15.0983C24.1547 14.4704 24.6644 13.7677 24.9585 13.0379L25.1014 12.6831L25.1603 12.8239L25.5779 12.8745C25.6305 12.8809 25.6836 12.8819 25.7364 12.8774C25.9208 12.859 26.0879 12.7681 26.2144 12.6737C26.2376 12.6564 26.259 12.6393 26.2785 12.6229C26.2562 12.6106 26.2319 12.5979 26.2058 12.5855C26.063 12.5173 25.8809 12.4605 25.6957 12.4787L25.695 12.4787C25.6507 12.4829 25.6068 12.4915 25.5641 12.5042L25.1705 12.6221L25.3853 12.2718C25.412 12.2283 25.4334 12.182 25.4493 12.1339C25.4477 12.1346 25.4461 12.1352 25.4445 12.1359L25.1994 12.2362L25.229 11.9731C25.3624 10.7864 24.9429 9.57404 23.9572 8.53381L23.6255 8.18383L24.0997 8.2715C24.1329 8.27763 24.1664 8.28164 24.2001 8.28349C24.3941 8.29171 24.5804 8.22203 24.7249 8.14301C24.7541 8.12702 24.7811 8.11092 24.8055 8.09546C24.7864 8.08098 24.7655 8.06593 24.7431 8.05072C24.6141 7.96312 24.4434 7.87738 24.2576 7.85891L23.7606 7.80949L24.1965 7.56571C24.2882 7.51441 24.3743 7.45355 24.4533 7.38415C24.725 7.14213 24.8803 6.80975 24.9673 6.52807C25.0051 6.40579 25.0292 6.2956 25.0444 6.21063C24.9583 6.21585 24.8461 6.22707 24.7204 6.25045C24.4306 6.30432 24.0825 6.42016 23.8107 6.66211C23.7444 6.72163 23.6834 6.78676 23.6284 6.85677L23.3805 7.17202L23.3485 6.77226C23.3344 6.59517 23.2845 6.42347 23.2025 6.2673L23.0196 6.4785L22.9365 6.20737C22.3484 4.28854 20.5738 2.95968 18.1802 2.74276L17.9176 2.71896L18.0637 2.49945C18.0722 2.48662 18.0805 2.47362 18.0885 2.46045ZM25.1811 12.8738L25.2489 13.036C25.2772 13.1037 25.3209 13.1638 25.3764 13.2115C25.4332 13.2495 25.4954 13.2775 25.5606 13.2949C25.5312 13.2386 25.4933 13.1867 25.4479 13.1412L25.1811 12.8738ZM25.6653 12.1662C25.6655 12.1662 25.6656 12.1662 25.6657 12.1662L25.6804 12.3225L25.665 12.1662C25.6651 12.1662 25.6652 12.1662 25.6653 12.1662Z" fill="#047857"/>
<path opacity="0.1" d="M25.7509 13.0337C26.1998 12.9896 26.5292 12.5983 26.5292 12.5983C26.5292 12.5983 26.1302 12.2783 25.6804 12.3225C25.6258 12.3276 25.5717 12.3381 25.5191 12.3539C25.5975 12.2261 25.6392 12.0793 25.6397 11.9295C25.5522 11.9367 25.4663 11.9573 25.385 11.9906C25.5242 10.7523 25.0846 9.49528 24.0712 8.42585C24.1113 8.43326 24.1518 8.43809 24.1926 8.44028C24.6611 8.46065 25.0566 8.10587 25.0566 8.10587C25.0566 8.10587 24.7171 7.74685 24.2732 7.70271C24.3748 7.64589 24.4701 7.57846 24.5575 7.50156C25.161 6.9643 25.2246 6.05019 25.2246 6.05019C25.2246 6.05019 24.3097 6.00776 23.7062 6.54502C23.6331 6.61066 23.5658 6.68251 23.5051 6.75975C23.4836 6.49185 23.3891 6.23497 23.2318 6.01709C23.1799 6.06151 23.1313 6.10974 23.0866 6.16138C22.4764 4.17021 20.6388 2.80796 18.1944 2.58644C18.2442 2.51164 18.2858 2.43168 18.3183 2.34794C18.3183 2.34794 17.9279 2.21893 17.585 2.36407C17.6372 2.28208 17.6805 2.19472 17.714 2.1035C17.9423 1.47118 17.6292 0.778597 17.6292 0.778597C17.6292 0.778597 16.9434 1.10961 16.715 1.74108C16.6877 1.8181 16.667 1.89733 16.6531 1.97788C16.5315 1.79034 16.3606 1.63997 16.1591 1.54332C16.1223 1.63979 16.0975 1.74041 16.0853 1.84293C15.0144 1.17755 13.7658 0.855362 12.5067 0.91953C11.2477 0.983698 10.0383 1.43116 9.04063 2.20195C9.03921 2.01577 8.99721 1.83214 8.91756 1.66384C8.91756 1.66384 8.556 1.86245 8.42953 2.21129C8.40487 2.11742 8.37045 2.02639 8.32683 1.93969C8.01958 1.34556 7.29815 1.10027 7.29815 1.10027C7.29815 1.10027 7.07238 1.82765 7.38302 2.42517C7.42018 2.49778 7.46393 2.56682 7.51373 2.63142C7.29372 2.59301 7.0674 2.61561 6.85934 2.69678C6.8861 2.7524 6.91732 2.80576 6.9527 2.85634C4.78414 3.24252 3.19867 4.54366 2.65208 6.34726C2.58129 6.28962 2.50544 6.23849 2.42546 6.19448C2.42546 6.19448 2.21243 6.64008 2.33125 7.07039C2.24173 6.99588 2.14441 6.93128 2.04098 6.87773C1.32293 6.50767 0.447021 6.77757 0.447021 6.77757C0.447021 6.77757 0.736446 7.6467 1.45534 8.0159C1.54292 8.06086 1.63439 8.09779 1.72864 8.12624C1.48644 8.2424 1.28089 8.42299 1.13451 8.64822C1.33031 8.75306 1.54675 8.81362 1.76853 8.82561C-0.117399 10.9738 0.190699 13.7416 2.65547 15.6411C2.65547 15.8108 2.65547 15.9713 2.67245 16.1325C2.46653 16.1137 2.25895 16.1368 2.0622 16.2004C2.0622 16.2004 2.23959 16.6613 2.6351 16.8684C2.51947 16.8835 2.4057 16.9105 2.2956 16.949C1.53173 17.2189 1.13112 18.0405 1.13112 18.0405C1.13112 18.0405 1.96204 18.425 2.72337 18.1551C2.81608 18.1224 2.90558 18.0812 2.99073 18.032C2.9688 18.0906 2.95232 18.1512 2.9415 18.2128C2.93034 18.2745 2.92382 18.3369 2.92198 18.3995C2.91865 18.4561 2.91865 18.5127 2.92198 18.5693C2.92198 18.6151 2.93047 18.6609 2.93811 18.7059C2.94235 18.7356 2.94829 18.7653 2.95508 18.7908C2.95508 18.8001 2.95508 18.8086 2.96102 18.818C3.15555 18.7522 3.33502 18.6483 3.48895 18.5124H3.50338C3.51696 18.5319 3.53138 18.5506 3.54581 18.5693C3.4958 18.6147 3.44927 18.6637 3.40662 18.7161C2.98734 19.2415 3.06288 19.9986 3.06288 19.9986C3.06288 19.9986 3.81826 19.9095 4.24264 19.3832L4.25961 19.3595C4.3725 19.4596 4.46756 19.5292 4.58978 19.6209C4.65853 19.671 4.69163 19.7058 4.72388 19.7261C5.80859 20.49 7.25401 20.8923 8.90653 20.8083C11.4579 23.0745 15.116 23.0006 17.5443 20.6343C19.0585 20.6504 20.3791 20.2642 21.3917 19.5827C21.4563 19.7176 21.5567 19.8321 21.6819 19.9137C21.7629 19.7659 21.7944 19.5961 21.7719 19.4291C21.8186 19.4747 21.8701 19.5151 21.9255 19.5496C22.3092 19.7864 22.8082 19.6735 22.8082 19.6735C22.8082 19.6735 22.6843 19.1778 22.299 18.941C22.2715 18.9243 22.2432 18.909 22.2141 18.8952C22.2498 18.8579 22.2846 18.8205 22.3185 18.7832C22.39 18.7326 22.4535 18.6717 22.5069 18.6024L22.4849 18.5888C23.2131 17.6857 23.5942 16.5255 23.5093 15.2184C24.2732 14.5759 24.7994 13.8528 25.1041 13.0965C25.143 13.1897 25.2039 13.2721 25.2815 13.3367C25.4276 13.4372 25.6038 13.4842 25.7806 13.47C25.7555 13.3035 25.6779 13.1495 25.559 13.0303C25.6227 13.038 25.687 13.0392 25.7509 13.0337Z" fill="#047857"/>
<path d="M19.3759 30.5791C18.0382 30.3652 16.1922 29.4282 16.1922 27.6934C16.1922 25.9585 15.9248 15.9585 16.1922 15.2897C16.4595 14.6209 17.0486 14.8653 17.6351 15.0758C17.9112 15.183 18.1481 15.3719 18.3141 15.6173C18.3328 15.6453 18.3575 15.6689 18.3864 15.6862C18.4153 15.7035 18.4477 15.7141 18.4813 15.7174C18.5148 15.7206 18.5487 15.7164 18.5804 15.7049C18.6121 15.6935 18.6409 15.6752 18.6646 15.6513C18.6873 15.6262 18.7039 15.5962 18.7132 15.5637C18.7224 15.5311 18.724 15.4969 18.7178 15.4636C18.7117 15.4304 18.6979 15.399 18.6777 15.3719C18.6574 15.3448 18.6311 15.3228 18.6009 15.3075C18.3599 15.1887 18.0323 14.9867 17.9831 14.755C17.8982 14.3807 18.0094 14.407 18.1698 14.3001C18.3422 14.1629 18.5063 14.0155 18.6612 13.8587C18.6858 13.8379 18.7057 13.8122 18.7195 13.7831C18.7334 13.7541 18.741 13.7224 18.7417 13.6903C18.7424 13.6581 18.7364 13.6261 18.7238 13.5965C18.7113 13.5669 18.6926 13.5402 18.669 13.5183C18.6455 13.4964 18.6175 13.4798 18.587 13.4695C18.5565 13.4592 18.5242 13.4555 18.4922 13.4587C18.4601 13.4618 18.4291 13.4717 18.4012 13.4877C18.3733 13.5037 18.3491 13.5254 18.3302 13.5515C18.1375 13.8112 17.703 14.2839 17.1538 14.1668C16.4044 14.0064 15.896 13.391 16.1353 12.1298C16.3051 11.2581 16.9968 10.3092 17.4084 9.80931C17.4393 9.77698 17.4619 9.73764 17.4742 9.69467C17.4864 9.6517 17.4881 9.60639 17.479 9.56264C17.4699 9.51888 17.4503 9.47799 17.4219 9.44349C17.3935 9.40898 17.3571 9.3819 17.3159 9.36456C17.2501 9.3347 17.1753 9.33145 17.1071 9.3555C17.0389 9.37954 16.9827 9.42901 16.9501 9.49357C16.7082 9.97481 16.0555 11.1614 15.5217 11.1402C15.0523 11.1215 14.5032 10.8134 14.2188 10.6309C14.2 10.6182 14.1788 10.6096 14.1565 10.6055C14.1341 10.6015 14.1112 10.6022 14.0891 10.6076C14.0671 10.6129 14.0464 10.6228 14.0284 10.6366C14.0104 10.6504 13.9955 10.6679 13.9846 10.6878C13.9657 10.7246 13.962 10.7675 13.9744 10.807C13.9868 10.8465 14.0142 10.8796 14.0508 10.8991C14.6101 11.1928 15.2059 11.8005 15.2806 12.0763C15.3613 12.3708 15.2008 12.8521 14.6661 13.8417C14.1314 14.8314 12.6291 15.3398 11.8839 14.2432C11.2898 13.3707 11.1319 11.4491 11.2177 10.5825C11.2222 10.5437 11.219 10.5043 11.2082 10.4667C11.1973 10.4291 11.179 10.394 11.1545 10.3636C11.1299 10.3331 11.0994 10.3079 11.065 10.2894C11.0305 10.2709 10.9926 10.2594 10.9537 10.2558C10.9142 10.2532 10.8746 10.2588 10.8374 10.2723C10.8001 10.2857 10.7661 10.3068 10.7374 10.334C10.7087 10.3613 10.686 10.3942 10.6706 10.4307C10.6552 10.4672 10.6476 10.5064 10.6481 10.546C10.6583 11.197 10.9622 12.583 10.7067 13.307C10.3859 14.2169 9.34276 14.671 8.70025 14.1897C8.24872 13.8502 8.34038 12.9811 8.43459 12.4922C8.44395 12.4612 8.44493 12.4283 8.43742 12.3968C8.42991 12.3652 8.41419 12.3363 8.39185 12.3128C8.36951 12.2894 8.34136 12.2722 8.31025 12.2632C8.27914 12.2542 8.2462 12.2535 8.21477 12.2614C8.17154 12.2693 8.13248 12.2922 8.1044 12.326C8.07632 12.3598 8.06101 12.4024 8.06114 12.4464C8.06114 12.7664 8.02465 13.5727 7.6843 13.7849C7.40421 13.9597 7.136 13.7467 6.98408 13.5778C6.95424 13.5439 6.91261 13.5226 6.86767 13.5184C6.82272 13.5141 6.77785 13.5272 6.74218 13.5549C6.72281 13.5704 6.70697 13.5899 6.69572 13.612C6.68448 13.6342 6.67808 13.6585 6.67695 13.6833C6.67583 13.7081 6.68001 13.7329 6.6892 13.756C6.6984 13.779 6.71241 13.7999 6.7303 13.8171C6.84149 13.9232 7.02482 14.0964 7.24719 14.3043C7.32697 14.4172 7.43476 14.6141 7.36347 14.7754C7.29217 14.9366 6.92212 15.0181 6.70229 15.0495C6.68234 15.0525 6.66326 15.0597 6.64631 15.0706C6.62937 15.0815 6.61495 15.096 6.60402 15.1129C6.5931 15.1299 6.58592 15.1489 6.58296 15.1689C6.58 15.1888 6.58133 15.2092 6.58686 15.2286V15.2354C6.59294 15.256 6.60357 15.275 6.61797 15.2909C6.63237 15.3069 6.65016 15.3194 6.67004 15.3275C6.68992 15.3357 6.71138 15.3392 6.73283 15.338C6.75427 15.3367 6.77516 15.3307 6.79396 15.3203C7.09017 15.1649 7.787 15.1505 7.94147 15.1556C8.72572 15.2057 9.49299 15.7013 9.90972 16.3574C10.3265 17.0135 10.3052 17.9149 10.3519 18.6677C10.4589 20.406 10.4911 28.4097 10.0362 29.0785C9.58126 29.7473 7.91431 30.6436 7.91431 30.6436" fill="#047857"/>
<path fill-rule="evenodd" clip-rule="evenodd" d="M17.363 9.25669C17.4212 9.28144 17.4725 9.31985 17.5127 9.36866C17.5532 9.41789 17.5812 9.47623 17.5942 9.53866C17.6072 9.60109 17.6048 9.66574 17.5873 9.72705C17.5702 9.78685 17.5391 9.84171 17.4968 9.88717C17.2935 10.1342 17.0227 10.4903 16.782 10.8908C16.5396 11.2941 16.332 11.7356 16.2509 12.152C16.1345 12.7654 16.2035 13.2032 16.3757 13.5024C16.5467 13.7993 16.8293 13.9769 17.1783 14.0517M17.363 9.25669C17.2699 9.21489 17.1642 9.2105 17.0679 9.24447C16.971 9.27862 16.8911 9.34889 16.8449 9.44059C16.725 9.67922 16.5047 10.0894 16.2504 10.4356C16.1231 10.609 15.9905 10.7617 15.861 10.8688C15.7289 10.978 15.6164 11.0261 15.5263 11.0225C15.313 11.014 15.074 10.9389 14.8483 10.8393C14.6247 10.7406 14.4223 10.6216 14.2834 10.5325C14.2513 10.5111 14.2152 10.4965 14.1772 10.4897C14.1388 10.4827 14.0993 10.4839 14.0613 10.4932C14.0233 10.5024 13.9877 10.5194 13.9567 10.5432C13.9256 10.567 13.8999 10.597 13.8812 10.6313L13.8798 10.634C13.8468 10.6984 13.8404 10.7732 13.862 10.8422C13.8836 10.9112 13.9315 10.969 13.9953 11.003L13.996 11.0033C14.2631 11.1436 14.5428 11.3613 14.7651 11.5786C14.8759 11.6869 14.9706 11.7934 15.0413 11.8878C15.114 11.985 15.1542 12.0602 15.1669 12.1071L15.167 12.1074C15.1979 12.2202 15.1871 12.3865 15.0928 12.66C14.9991 12.9314 14.8291 13.2923 14.5625 13.7858C14.3117 14.2499 13.8315 14.603 13.3294 14.7096C12.8334 14.815 12.323 14.68 11.9812 14.177C11.6998 13.7638 11.5147 13.0874 11.4122 12.3934C11.3104 11.7034 11.2931 11.0168 11.3346 10.5951C11.3408 10.5411 11.3363 10.4863 11.3212 10.434C11.306 10.3813 11.2804 10.3322 11.246 10.2896C11.2115 10.247 11.1689 10.2116 11.1206 10.1857C11.0723 10.1597 11.0193 10.1437 10.9647 10.1386L10.9613 10.1383C10.9056 10.1346 10.8497 10.1426 10.7972 10.1616C10.7447 10.1806 10.6967 10.2102 10.6562 10.2487C10.6158 10.2871 10.5837 10.3336 10.562 10.385C10.5404 10.4365 10.5296 10.4918 10.5304 10.5477C10.533 10.7169 10.5546 10.9312 10.5804 11.1633C10.586 11.2129 10.5917 11.2635 10.5975 11.3148C10.6192 11.5055 10.642 11.7066 10.6597 11.9094C10.7052 12.4298 10.7138 12.933 10.5956 13.2678C10.4463 13.6912 10.129 14.0078 9.77677 14.1622C9.42422 14.3168 9.05 14.3046 8.77079 14.0955C8.58728 13.9574 8.50123 13.7 8.48015 13.389C8.45955 13.0851 8.50317 12.7595 8.54913 12.5197C8.56271 12.4707 8.56367 12.419 8.55187 12.3695C8.53954 12.3177 8.51371 12.2702 8.47703 12.2316C8.44035 12.1931 8.39412 12.165 8.34304 12.1502C8.29313 12.1357 8.24034 12.1343 8.18981 12.1463C8.12087 12.1598 8.05868 12.1967 8.01375 12.2508C7.96805 12.3058 7.94314 12.3752 7.94335 12.4467L8.06107 12.4464H7.94335C7.94335 12.6033 7.93429 12.8763 7.88468 13.1338C7.85987 13.2625 7.8257 13.383 7.77992 13.4816C7.73363 13.5813 7.68003 13.6487 7.62194 13.685C7.5212 13.7479 7.42604 13.7426 7.33291 13.7022C7.23453 13.6595 7.14307 13.5785 7.07189 13.4994C7.02229 13.4434 6.95324 13.4083 6.8787 13.4012C6.80393 13.3941 6.72927 13.4158 6.66993 13.4618L6.66842 13.463C6.63601 13.4891 6.60951 13.5217 6.59069 13.5587C6.57187 13.5958 6.56116 13.6364 6.55928 13.678C6.5574 13.7195 6.56438 13.7609 6.57978 13.7996C6.59517 13.8382 6.61861 13.873 6.64854 13.9019L6.64896 13.9023C6.759 14.0073 6.93918 14.1775 7.15767 14.3818C7.1923 14.4321 7.22877 14.495 7.2503 14.5591C7.27351 14.6283 7.27477 14.6847 7.25572 14.7278C7.25117 14.7381 7.23632 14.7578 7.19748 14.7826C7.16003 14.8066 7.10969 14.8293 7.05013 14.8498C6.93118 14.8909 6.7919 14.9178 6.68557 14.933L6.68488 14.9331C6.64837 14.9385 6.61343 14.9517 6.58241 14.9717C6.5514 14.9917 6.525 15.0181 6.505 15.0491C6.485 15.0802 6.47185 15.1151 6.46643 15.1516C6.46186 15.1824 6.46288 15.2137 6.46938 15.2441C6.47 15.2524 6.4715 15.2607 6.47387 15.2687C6.48494 15.3062 6.5043 15.3408 6.53051 15.3698C6.55673 15.3988 6.58913 15.4216 6.62532 15.4364C6.66152 15.4513 6.70058 15.4578 6.73964 15.4555C6.77815 15.4533 6.81567 15.4425 6.84951 15.424C6.97522 15.3585 7.20165 15.3173 7.43217 15.2949C7.65604 15.2732 7.86222 15.2709 7.93574 15.2732C8.67818 15.3213 9.41202 15.7936 9.81028 16.4206C10.0054 16.7278 10.1012 17.0977 10.1528 17.4916C10.1897 17.7732 10.2033 18.0583 10.2167 18.3375C10.2221 18.4512 10.2275 18.5639 10.2343 18.675C10.2875 19.5395 10.3224 21.9713 10.287 24.2724C10.2693 25.4224 10.234 26.5376 10.175 27.4061C10.1454 27.8406 10.11 28.2114 10.0682 28.4932C10.0473 28.6342 10.0251 28.7508 10.0018 28.8411C9.97765 28.9347 9.9551 28.9883 9.93877 29.0123C9.83492 29.165 9.65625 29.3377 9.43863 29.5137C9.22268 29.6883 8.97532 29.8606 8.74044 30.0132C8.5058 30.1656 8.28504 30.2974 8.12287 30.3912C8.04183 30.4381 7.97553 30.4754 7.92958 30.5009C7.90661 30.5137 7.88873 30.5235 7.87664 30.5301L7.86295 30.5375L7.85871 30.5398C7.80144 30.5706 7.77976 30.6421 7.81055 30.6994C7.84134 30.7566 7.91272 30.7781 7.96999 30.7473L7.91424 30.6436C7.96999 30.7473 7.96996 30.7473 7.96999 30.7473L7.97037 30.7471L7.97511 30.7445L7.98949 30.7367C8.00205 30.7299 8.02042 30.7198 8.04392 30.7067C8.09091 30.6806 8.15839 30.6427 8.24074 30.595C8.40534 30.4999 8.62975 30.3658 8.86871 30.2106C9.10743 30.0555 9.36211 29.8783 9.58666 29.6968C9.80954 29.5166 10.0098 29.3265 10.1335 29.1447C10.174 29.0851 10.2045 28.9979 10.2298 28.8999C10.256 28.7986 10.2796 28.673 10.3011 28.5277C10.3442 28.237 10.3801 27.8592 10.4099 27.4221C10.4694 26.5475 10.5047 25.4277 10.5224 24.276C10.5578 21.9734 10.5231 19.5342 10.4694 18.6605C10.4629 18.5563 10.4577 18.4477 10.4524 18.3364C10.4389 18.0535 10.4245 17.7528 10.3862 17.461C10.3326 17.0519 10.2306 16.6431 10.009 16.2943C9.57414 15.6097 8.77432 15.0908 7.9489 15.0381L7.94528 15.0379C7.86272 15.0352 7.64479 15.0377 7.40942 15.0606C7.17944 15.0829 6.90992 15.1265 6.73921 15.216L6.73683 15.2173C6.73346 15.2191 6.72971 15.2202 6.72587 15.2205C6.72203 15.2207 6.71818 15.22 6.71461 15.2186C6.71105 15.2171 6.70786 15.2149 6.70528 15.212C6.70439 15.211 6.70357 15.21 6.70285 15.2089C6.70213 15.2046 6.70118 15.2004 6.7 15.1963C6.69906 15.193 6.69883 15.1896 6.69933 15.1862C6.69984 15.1828 6.70105 15.1796 6.7029 15.1767C6.70475 15.1738 6.7072 15.1714 6.71007 15.1695C6.71294 15.1677 6.71617 15.1664 6.71955 15.1659L6.70222 15.0495L6.71887 15.166C6.83236 15.1498 6.98803 15.1203 7.12689 15.0724C7.19623 15.0485 7.26551 15.0186 7.32437 14.981C7.38183 14.9442 7.43997 14.8933 7.47107 14.823C7.52332 14.7048 7.50633 14.5821 7.47352 14.4842C7.44042 14.3856 7.3865 14.2975 7.34325 14.2364C7.33864 14.2298 7.33337 14.2238 7.32752 14.2183C7.10551 14.0107 6.92259 13.8379 6.81176 13.7322C6.80599 13.7266 6.80146 13.7198 6.79849 13.7124C6.79548 13.7048 6.79412 13.6967 6.79449 13.6886C6.79485 13.6805 6.79694 13.6726 6.80062 13.6653C6.80415 13.6584 6.80906 13.6522 6.81506 13.6473C6.82692 13.6384 6.8417 13.6342 6.85649 13.6356C6.87161 13.637 6.88561 13.6442 6.89565 13.6556L6.89648 13.6565C6.97718 13.7462 7.09564 13.8559 7.2392 13.9182C7.38817 13.9828 7.56722 13.9967 7.74656 13.8847C7.85862 13.8148 7.93719 13.702 7.99347 13.5808C8.05025 13.4585 8.08902 13.3177 8.11588 13.1783C8.1696 12.8995 8.1788 12.6094 8.1788 12.4464L8.1788 12.446C8.17875 12.4297 8.18445 12.4138 8.1949 12.4012C8.20536 12.3886 8.2199 12.3801 8.236 12.3771C8.2384 12.3767 8.24078 12.3762 8.24315 12.3756C8.2544 12.3728 8.26619 12.373 8.27732 12.3762C8.28845 12.3795 8.29852 12.3856 8.30652 12.394C8.31451 12.4024 8.32014 12.4128 8.32283 12.424C8.32551 12.4353 8.32517 12.4471 8.32182 12.4582C8.32065 12.4621 8.31969 12.466 8.31892 12.4699C8.27103 12.7185 8.22249 13.0694 8.24524 13.4049C8.26765 13.7356 8.3615 14.0824 8.62943 14.2838C8.99273 14.5559 9.46147 14.5575 9.8713 14.3779C10.2815 14.198 10.6461 13.8327 10.8176 13.3462C10.955 12.9571 10.9394 12.4053 10.8942 11.8889C10.8762 11.6828 10.853 11.4777 10.8313 11.2867C10.8255 11.2358 10.8199 11.1859 10.8144 11.1372C10.7884 10.9038 10.7682 10.7006 10.7658 10.5443C10.7655 10.521 10.77 10.4979 10.779 10.4764C10.7881 10.4549 10.8015 10.4355 10.8184 10.4194C10.8353 10.4033 10.8554 10.3909 10.8773 10.383C10.8988 10.3752 10.9215 10.3719 10.9442 10.3731C10.967 10.3755 10.989 10.3823 11.0092 10.3931C11.0298 10.4042 11.0481 10.4193 11.0628 10.4376C11.0775 10.4558 11.0885 10.4768 11.095 10.4993C11.1015 10.5218 11.1034 10.5454 11.1007 10.5687L11.1004 10.5709C11.0564 11.0159 11.0752 11.7228 11.1793 12.4278C11.2829 13.1293 11.4738 13.8501 11.7865 14.3094C12.1899 14.903 12.8032 15.0621 13.3783 14.94C13.9474 14.8191 14.4857 14.4232 14.7696 13.8977C15.0377 13.4015 15.2153 13.0269 15.3153 12.7367C15.4147 12.4487 15.4438 12.2272 15.3942 12.0456M17.2672 9.47178C17.2291 9.45446 17.1857 9.45258 17.1462 9.46652C17.1067 9.48044 17.0741 9.50908 17.0552 9.54644M17.3309 9.51831C17.3147 9.49853 17.2938 9.48301 17.2702 9.47307L17.2672 9.47178M17.3309 9.51831C17.3472 9.53809 17.3585 9.56153 17.3637 9.58661ZM17.3637 9.58661C17.3689 9.6117 17.3679 9.63767 17.3609 9.6623ZM17.3609 9.6623C17.3538 9.68693 17.3409 9.70948 17.3232 9.72801ZM17.3232 9.72801C17.3212 9.73009 17.3193 9.73225 17.3175 9.73448ZM17.3175 9.73448C17.1093 9.98726 16.8297 10.3543 16.5802 10.7695ZM16.5802 10.7695C16.3314 11.1834 16.1083 11.6521 16.0197 12.1073ZM14.0886 10.7428C14.0844 10.7519 14.0837 10.7622 14.0867 10.7718C14.0898 10.7817 14.0966 10.7901 14.1058 10.795C14.3979 10.9485 14.6956 11.1814 14.9297 11.4102C15.047 11.525 15.1503 11.6405 15.2298 11.7468C15.3072 11.8502 15.3694 11.9543 15.3941 12.0452M16.0197 12.1073L16.0196 12.1078ZM16.0196 12.1078C15.8967 12.7555 15.9622 13.256 16.1717 13.6198ZM16.1717 13.6198C16.3824 13.986 16.7287 14.1962 17.1291 14.2819ZM18.4806 13.3415C18.5292 13.3367 18.5783 13.3423 18.6246 13.358C18.6708 13.3736 18.7133 13.3988 18.7491 13.432C18.7849 13.4653 18.8132 13.5057 18.8322 13.5507C18.8512 13.5957 18.8605 13.6442 18.8593 13.693C18.8582 13.7418 18.8467 13.7898 18.8257 13.8339C18.8054 13.8762 18.7768 13.9139 18.7415 13.9448C18.5844 14.1037 18.4179 14.2531 18.243 14.3922C18.2404 14.3942 18.2377 14.3962 18.235 14.398C18.203 14.4193 18.1686 14.4384 18.1434 14.4523C18.1342 14.4574 18.1263 14.4618 18.1201 14.4654C18.0918 14.4819 18.0843 14.4897 18.081 14.4945C18.0762 14.5014 18.0548 14.5396 18.0978 14.729L18.0981 14.7305C18.114 14.805 18.1806 14.8916 18.2934 14.9816C18.4023 15.0684 18.5361 15.1443 18.6529 15.2019L18.654 15.2025C18.7004 15.2259 18.7407 15.2598 18.7718 15.3013C18.803 15.3429 18.8241 15.3911 18.8335 15.4422C18.843 15.4933 18.8405 15.5459 18.8263 15.5958C18.8122 15.6458 18.7866 15.6918 18.7518 15.7303C18.7506 15.7316 18.7493 15.733 18.7481 15.7342C18.712 15.7705 18.6684 15.7983 18.6202 15.8157C18.5721 15.833 18.5208 15.8395 18.4699 15.8346C18.419 15.8296 18.3698 15.8134 18.3259 15.7872C18.2821 15.761 18.2446 15.7254 18.2163 15.683C18.064 15.458 17.8469 15.2847 17.5938 15.1861C17.5726 15.1785 17.5515 15.1709 17.5306 15.1634C17.254 15.0637 17.0051 14.9739 16.7921 14.9707C16.6822 14.9691 16.5903 14.9912 16.5131 15.0425C16.4357 15.094 16.3618 15.1824 16.3014 15.3334C16.2913 15.3587 16.2779 15.4221 16.265 15.5336C16.2527 15.6406 16.242 15.7805 16.2329 15.9498C16.2148 16.2882 16.2033 16.7386 16.197 17.2674C16.1845 18.3246 16.1929 19.6903 16.2096 21.0904C16.2264 22.4986 16.2517 23.9424 16.2726 25.1398C16.2933 26.3209 16.3098 27.2623 16.3098 27.6934C16.3098 28.5135 16.7446 29.15 17.3536 29.6129C17.9641 30.0769 18.741 30.3584 19.3944 30.4629C19.4586 30.4731 19.5023 30.5335 19.492 30.5977C19.4818 30.6619 19.4214 30.7056 19.3572 30.6954C18.673 30.586 17.858 30.292 17.2111 29.8003C16.5626 29.3075 16.0744 28.6081 16.0744 27.6934C16.0744 27.2634 16.058 26.3258 16.0373 25.1478C16.0163 23.951 15.991 22.5061 15.9741 21.0932C15.9574 19.6927 15.9491 18.3247 15.9616 17.2646C15.9679 16.7347 15.9794 16.2805 15.9978 15.9372C16.007 15.7657 16.018 15.6205 16.0311 15.5067C16.0437 15.3974 16.0595 15.3043 16.0828 15.246C16.1561 15.0626 16.2561 14.9307 16.3827 14.8465C16.5094 14.7622 16.6515 14.7331 16.7956 14.7353C17.0504 14.7391 17.337 14.8428 17.6013 14.9385C17.626 14.9474 17.6505 14.9563 17.6748 14.965L17.6776 14.966C17.9761 15.0819 18.2321 15.2861 18.4115 15.5514L18.4119 15.5519C18.4209 15.5654 18.4328 15.5768 18.4468 15.5851C18.4607 15.5935 18.4764 15.5986 18.4926 15.6002C18.5087 15.6018 18.5251 15.5997 18.5404 15.5942C18.5548 15.589 18.568 15.5808 18.5791 15.5702C18.5887 15.559 18.5958 15.5458 18.5998 15.5315C18.6041 15.5164 18.6049 15.5005 18.602 15.4851C18.5992 15.4696 18.5928 15.455 18.5833 15.4425C18.574 15.43 18.562 15.4199 18.5482 15.4128C18.4241 15.3516 18.2739 15.2672 18.1466 15.1656C18.0232 15.0672 17.9017 14.9372 17.868 14.7804C17.8262 14.5958 17.8181 14.4602 17.8877 14.3601C17.9216 14.3112 17.9667 14.2822 18.0017 14.2619C18.0159 14.2536 18.0283 14.2468 18.04 14.2403C18.0603 14.2292 18.0785 14.2191 18.1004 14.2047C18.2677 14.0714 18.427 13.9282 18.5774 13.776C18.5792 13.7742 18.581 13.7724 18.5829 13.7707C18.5836 13.7701 18.5844 13.7694 18.5851 13.7688C18.597 13.7588 18.6065 13.7464 18.6132 13.7324C18.6199 13.7184 18.6236 13.7031 18.6239 13.6876C18.6243 13.672 18.6214 13.6566 18.6153 13.6423C18.6093 13.628 18.6003 13.6152 18.5889 13.6046C18.5775 13.594 18.564 13.586 18.5493 13.5811C18.5346 13.5761 18.519 13.5743 18.5035 13.5758C18.4881 13.5773 18.4731 13.5821 18.4597 13.5898C18.4462 13.5975 18.4345 13.608 18.4254 13.6206L18.4247 13.6216C18.3245 13.7566 18.1584 13.9515 17.9415 14.098C17.7237 14.2451 17.4451 14.3493 17.1291 14.2819M18.4806 13.3415C18.432 13.3462 18.385 13.3612 18.3426 13.3855ZM18.3426 13.3855C18.3005 13.4097 18.2639 13.4425 18.2352 13.4818ZM18.2352 13.4818C18.1427 13.6064 17.9953 13.7775 17.8097 13.9029C17.6248 14.0278 17.4114 14.1014 17.1783 14.0517" fill="#047857"/>
<path d="M19.3759 30.5791C18.0382 30.3652 16.1922 29.4282 16.1922 27.6934C16.1922 25.9585 15.9248 15.9585 16.1922 15.2897C16.4595 14.6209 17.0486 14.8653 17.6351 15.0758C17.9112 15.183 18.1481 15.3719 18.3141 15.6173C18.3328 15.6453 18.3575 15.6689 18.3864 15.6862C18.4153 15.7035 18.4477 15.7141 18.4813 15.7174C18.5148 15.7206 18.5487 15.7164 18.5804 15.7049C18.6121 15.6935 18.6409 15.6752 18.6646 15.6513C18.6873 15.6262 18.7039 15.5962 18.7132 15.5637C18.7224 15.5311 18.724 15.4969 18.7178 15.4636C18.7117 15.4304 18.6979 15.399 18.6777 15.3719C18.6574 15.3448 18.6311 15.3228 18.6009 15.3075C18.3599 15.1887 18.0323 14.9867 17.9831 14.755C17.8982 14.3807 18.0094 14.407 18.1698 14.3001C18.3422 14.1629 18.5063 14.0155 18.6612 13.8587C18.6858 13.8379 18.7057 13.8122 18.7195 13.7831C18.7334 13.7541 18.741 13.7224 18.7417 13.6903C18.7424 13.6581 18.7364 13.6261 18.7238 13.5965C18.7113 13.5669 18.6926 13.5402 18.669 13.5183C18.6455 13.4964 18.6175 13.4798 18.587 13.4695C18.5565 13.4592 18.5242 13.4555 18.4922 13.4587C18.4601 13.4618 18.4291 13.4717 18.4012 13.4877C18.3733 13.5037 18.3491 13.5254 18.3302 13.5515C18.1375 13.8112 17.703 14.2839 17.1538 14.1668C16.4044 14.0064 15.896 13.391 16.1353 12.1298C16.3051 11.2581 16.9968 10.3092 17.4084 9.80931C17.4393 9.77698 17.4619 9.73764 17.4742 9.69467C17.4864 9.6517 17.4881 9.60639 17.479 9.56264C17.4699 9.51888 17.4503 9.47799 17.4219 9.44349C17.3935 9.40898 17.3571 9.3819 17.3159 9.36456C17.2501 9.3347 17.1753 9.33145 17.1071 9.3555C17.0389 9.37954 16.9827 9.42901 16.9501 9.49357C16.7082 9.97481 16.0555 11.1614 15.5217 11.1402C15.0523 11.1215 14.5032 10.8134 14.2188 10.6309C14.2 10.6182 14.1788 10.6096 14.1565 10.6055C14.1341 10.6015 14.1112 10.6022 14.0891 10.6076C14.0671 10.6129 14.0464 10.6228 14.0284 10.6366C14.0104 10.6504 13.9955 10.6679 13.9846 10.6878C13.9657 10.7246 13.962 10.7675 13.9744 10.807C13.9868 10.8465 14.0142 10.8796 14.0508 10.8991C14.6101 11.1928 15.2059 11.8005 15.2806 12.0763C15.3613 12.3708 15.2008 12.8521 14.6661 13.8417C14.1314 14.8314 12.6291 15.3398 11.8839 14.2432C11.2898 13.3707 11.1319 11.4491 11.2177 10.5825C11.2222 10.5437 11.219 10.5043 11.2082 10.4667C11.1973 10.4291 11.179 10.394 11.1545 10.3636C11.1299 10.3331 11.0994 10.3079 11.065 10.2894C11.0305 10.2709 10.9926 10.2594 10.9537 10.2558C10.9142 10.2532 10.8746 10.2588 10.8374 10.2723C10.8001 10.2857 10.7661 10.3068 10.7374 10.334C10.7087 10.3613 10.686 10.3942 10.6706 10.4307C10.6552 10.4672 10.6476 10.5064 10.6481 10.546C10.6583 11.197 10.9622 12.583 10.7067 13.307C10.3859 14.2169 9.34276 14.671 8.70025 14.1897C8.24872 13.8502 8.34038 12.9811 8.43459 12.4922C8.44395 12.4612 8.44493 12.4283 8.43742 12.3968C8.42991 12.3652 8.41419 12.3363 8.39185 12.3128C8.36951 12.2894 8.34136 12.2722 8.31025 12.2632C8.27914 12.2542 8.2462 12.2535 8.21477 12.2614C8.17154 12.2693 8.13248 12.2922 8.1044 12.326C8.07632 12.3598 8.06101 12.4024 8.06114 12.4464C8.06114 12.7664 8.02465 13.5727 7.6843 13.7849C7.40421 13.9597 7.136 13.7467 6.98408 13.5778C6.95424 13.5439 6.91261 13.5226 6.86767 13.5184C6.82272 13.5141 6.77785 13.5272 6.74218 13.5549C6.72281 13.5704 6.70697 13.5899 6.69572 13.612C6.68448 13.6342 6.67808 13.6585 6.67695 13.6833C6.67583 13.7081 6.68001 13.7329 6.6892 13.756C6.6984 13.779 6.71241 13.7999 6.7303 13.8171C6.84149 13.9232 7.02482 14.0964 7.24719 14.3043C7.32697 14.4172 7.43476 14.6141 7.36347 14.7754C7.29217 14.9366 6.92212 15.0181 6.70229 15.0495C6.68234 15.0525 6.66326 15.0597 6.64631 15.0706C6.62937 15.0815 6.61495 15.096 6.60402 15.1129C6.5931 15.1299 6.58592 15.1489 6.58296 15.1689C6.58 15.1888 6.58133 15.2092 6.58686 15.2286V15.2354C6.59294 15.256 6.60357 15.275 6.61797 15.2909C6.63237 15.3069 6.65016 15.3194 6.67004 15.3275C6.68992 15.3357 6.71138 15.3392 6.73283 15.338C6.75427 15.3367 6.77516 15.3307 6.79396 15.3203C7.09017 15.1649 7.787 15.1505 7.94147 15.1556C8.72572 15.2057 9.49299 15.7013 9.90972 16.3574C10.3265 17.0135 10.3052 17.9149 10.3519 18.6677C10.4589 20.406 10.4911 28.4097 10.0362 29.0785C9.58126 29.7473 7.91431 30.6436 7.91431 30.6436" fill="#047857"/>
<path fill-rule="evenodd" clip-rule="evenodd" d="M17.363 9.25669C17.4212 9.28144 17.4725 9.31985 17.5127 9.36866C17.5532 9.41789 17.5812 9.47623 17.5942 9.53866C17.6072 9.60109 17.6048 9.66574 17.5873 9.72705C17.5702 9.78685 17.5391 9.84171 17.4968 9.88717C17.2935 10.1342 17.0227 10.4903 16.782 10.8908C16.5396 11.2941 16.332 11.7356 16.2509 12.152C16.1345 12.7654 16.2035 13.2032 16.3757 13.5024C16.5467 13.7993 16.8293 13.9769 17.1783 14.0517M17.363 9.25669C17.2699 9.21489 17.1642 9.2105 17.0679 9.24447C16.971 9.27862 16.8911 9.34889 16.8449 9.44059C16.725 9.67922 16.5047 10.0894 16.2504 10.4356C16.1231 10.609 15.9905 10.7617 15.861 10.8688C15.7289 10.978 15.6164 11.0261 15.5263 11.0225C15.313 11.014 15.074 10.9389 14.8483 10.8393C14.6247 10.7406 14.4223 10.6216 14.2834 10.5325C14.2513 10.5111 14.2152 10.4965 14.1772 10.4897C14.1388 10.4827 14.0993 10.4839 14.0613 10.4932C14.0233 10.5024 13.9877 10.5194 13.9567 10.5432C13.9256 10.567 13.8999 10.597 13.8812 10.6313L13.8798 10.634C13.8468 10.6984 13.8404 10.7732 13.862 10.8422C13.8836 10.9112 13.9315 10.969 13.9953 11.003L13.996 11.0033C14.2631 11.1436 14.5428 11.3613 14.7651 11.5786C14.8759 11.6869 14.9706 11.7934 15.0413 11.8878C15.114 11.985 15.1542 12.0602 15.1669 12.1071L15.167 12.1074C15.1979 12.2202 15.1871 12.3865 15.0928 12.66C14.9991 12.9314 14.8291 13.2923 14.5625 13.7858C14.3117 14.2499 13.8315 14.603 13.3294 14.7096C12.8334 14.815 12.323 14.68 11.9812 14.177C11.6998 13.7638 11.5147 13.0874 11.4122 12.3934C11.3104 11.7034 11.2931 11.0168 11.3346 10.5951C11.3408 10.5411 11.3363 10.4863 11.3212 10.434C11.306 10.3813 11.2804 10.3322 11.246 10.2896C11.2115 10.247 11.1689 10.2116 11.1206 10.1857C11.0723 10.1597 11.0193 10.1437 10.9647 10.1386L10.9613 10.1383C10.9056 10.1346 10.8497 10.1426 10.7972 10.1616C10.7447 10.1806 10.6967 10.2102 10.6562 10.2487C10.6158 10.2871 10.5837 10.3336 10.562 10.385C10.5404 10.4365 10.5296 10.4918 10.5304 10.5477C10.533 10.7169 10.5546 10.9312 10.5804 11.1633C10.586 11.2129 10.5917 11.2635 10.5975 11.3148C10.6192 11.5055 10.642 11.7066 10.6597 11.9094C10.7052 12.4298 10.7138 12.933 10.5956 13.2678C10.4463 13.6912 10.129 14.0078 9.77677 14.1622C9.42422 14.3168 9.05 14.3046 8.77079 14.0955C8.58728 13.9574 8.50123 13.7 8.48015 13.389C8.45955 13.0851 8.50317 12.7595 8.54913 12.5197C8.56271 12.4707 8.56367 12.419 8.55187 12.3695C8.53954 12.3177 8.51371 12.2702 8.47703 12.2316C8.44035 12.1931 8.39412 12.165 8.34304 12.1502C8.29313 12.1357 8.24034 12.1343 8.18981 12.1463C8.12087 12.1598 8.05868 12.1967 8.01375 12.2508C7.96805 12.3058 7.94314 12.3752 7.94335 12.4467L8.06107 12.4464H7.94335C7.94335 12.6033 7.93429 12.8763 7.88468 13.1338C7.85987 13.2625 7.8257 13.383 7.77992 13.4816C7.73363 13.5813 7.68003 13.6487 7.62194 13.685C7.5212 13.7479 7.42604 13.7426 7.33291 13.7022C7.23453 13.6595 7.14307 13.5785 7.07189 13.4994C7.02229 13.4434 6.95324 13.4083 6.8787 13.4012C6.80393 13.3941 6.72927 13.4158 6.66993 13.4618L6.66842 13.463C6.63601 13.4891 6.60951 13.5217 6.59069 13.5587C6.57187 13.5958 6.56116 13.6364 6.55928 13.678C6.5574 13.7195 6.56438 13.7609 6.57978 13.7996C6.59517 13.8382 6.61861 13.873 6.64854 13.9019L6.64896 13.9023C6.759 14.0073 6.93918 14.1775 7.15767 14.3818C7.1923 14.4321 7.22877 14.495 7.2503 14.5591C7.27351 14.6283 7.27477 14.6847 7.25572 14.7278C7.25117 14.7381 7.23632 14.7578 7.19748 14.7826C7.16003 14.8066 7.10969 14.8293 7.05013 14.8498C6.93118 14.8909 6.7919 14.9178 6.68557 14.933L6.68488 14.9331C6.64837 14.9385 6.61343 14.9517 6.58241 14.9717C6.5514 14.9917 6.525 15.0181 6.505 15.0491C6.485 15.0802 6.47185 15.1151 6.46643 15.1516C6.46186 15.1824 6.46288 15.2137 6.46938 15.2441C6.47 15.2524 6.4715 15.2607 6.47387 15.2687C6.48494 15.3062 6.5043 15.3408 6.53051 15.3698C6.55673 15.3988 6.58913 15.4216 6.62532 15.4364C6.66152 15.4513 6.70058 15.4578 6.73964 15.4555C6.77815 15.4533 6.81567 15.4425 6.84951 15.424C6.97522 15.3585 7.20165 15.3173 7.43217 15.2949C7.65604 15.2732 7.86222 15.2709 7.93574 15.2732C8.67818 15.3213 9.41202 15.7936 9.81028 16.4206C10.0054 16.7278 10.1012 17.0977 10.1528 17.4916C10.1897 17.7732 10.2033 18.0583 10.2167 18.3375C10.2221 18.4512 10.2275 18.5639 10.2343 18.675C10.2875 19.5395 10.3224 21.9713 10.287 24.2724C10.2693 25.4224 10.234 26.5376 10.175 27.4061C10.1454 27.8406 10.11 28.2114 10.0682 28.4932C10.0473 28.6342 10.0251 28.7508 10.0018 28.8411C9.97765 28.9347 9.9551 28.9883 9.93877 29.0123C9.83492 29.165 9.65625 29.3377 9.43863 29.5137C9.22268 29.6883 8.97532 29.8606 8.74044 30.0132C8.5058 30.1656 8.28504 30.2974 8.12287 30.3912C8.04183 30.4381 7.97553 30.4754 7.92958 30.5009C7.90661 30.5137 7.88873 30.5235 7.87664 30.5301L7.86295 30.5375L7.85871 30.5398C7.80144 30.5706 7.77976 30.6421 7.81055 30.6994C7.84134 30.7566 7.91272 30.7781 7.96999 30.7473L7.91424 30.6436C7.96999 30.7473 7.96996 30.7473 7.96999 30.7473L7.97037 30.7471L7.97511 30.7445L7.98949 30.7367C8.00205 30.7299 8.02042 30.7198 8.04392 30.7067C8.09091 30.6806 8.15839 30.6427 8.24074 30.595C8.40534 30.4999 8.62975 30.3658 8.86871 30.2106C9.10743 30.0555 9.36211 29.8783 9.58666 29.6968C9.80954 29.5166 10.0098 29.3265 10.1335 29.1447C10.174 29.0851 10.2045 28.9979 10.2298 28.8999C10.256 28.7986 10.2796 28.673 10.3011 28.5277C10.3442 28.237 10.3801 27.8592 10.4099 27.4221C10.4694 26.5475 10.5047 25.4277 10.5224 24.276C10.5578 21.9734 10.5231 19.5342 10.4694 18.6605C10.4629 18.5563 10.4577 18.4477 10.4524 18.3364C10.4389 18.0535 10.4245 17.7528 10.3862 17.461C10.3326 17.0519 10.2306 16.6431 10.009 16.2943C9.57414 15.6097 8.77432 15.0908 7.9489 15.0381L7.94528 15.0379C7.86272 15.0352 7.64479 15.0377 7.40942 15.0606C7.17944 15.0829 6.90992 15.1265 6.73921 15.216L6.73683 15.2173C6.73346 15.2191 6.72971 15.2202 6.72587 15.2205C6.72203 15.2207 6.71818 15.22 6.71461 15.2186C6.71105 15.2171 6.70786 15.2149 6.70528 15.212C6.70439 15.211 6.70357 15.21 6.70285 15.2089C6.70213 15.2046 6.70118 15.2004 6.7 15.1963C6.69906 15.193 6.69883 15.1896 6.69933 15.1862C6.69984 15.1828 6.70105 15.1796 6.7029 15.1767C6.70475 15.1738 6.7072 15.1714 6.71007 15.1695C6.71294 15.1677 6.71617 15.1664 6.71955 15.1659L6.70222 15.0495L6.71887 15.166C6.83236 15.1498 6.98803 15.1203 7.12689 15.0724C7.19623 15.0485 7.26551 15.0186 7.32437 14.981C7.38183 14.9442 7.43997 14.8933 7.47107 14.823C7.52332 14.7048 7.50633 14.5821 7.47352 14.4842C7.44042 14.3856 7.3865 14.2975 7.34325 14.2364C7.33864 14.2298 7.33337 14.2238 7.32752 14.2183C7.10551 14.0107 6.92259 13.8379 6.81176 13.7322C6.80599 13.7266 6.80146 13.7198 6.79849 13.7124C6.79548 13.7048 6.79412 13.6967 6.79449 13.6886C6.79485 13.6805 6.79694 13.6726 6.80062 13.6653C6.80415 13.6584 6.80906 13.6522 6.81506 13.6473C6.82692 13.6384 6.8417 13.6342 6.85649 13.6356C6.87161 13.637 6.88561 13.6442 6.89565 13.6556L6.89648 13.6565C6.97718 13.7462 7.09564 13.8559 7.2392 13.9182C7.38817 13.9828 7.56722 13.9967 7.74656 13.8847C7.85862 13.8148 7.93719 13.702 7.99347 13.5808C8.05025 13.4585 8.08902 13.3177 8.11588 13.1783C8.1696 12.8995 8.1788 12.6094 8.1788 12.4464L8.1788 12.446C8.17875 12.4297 8.18445 12.4138 8.1949 12.4012C8.20536 12.3886 8.2199 12.3801 8.236 12.3771C8.2384 12.3767 8.24078 12.3762 8.24315 12.3756C8.2544 12.3728 8.26619 12.373 8.27732 12.3762C8.28845 12.3795 8.29852 12.3856 8.30652 12.394C8.31451 12.4024 8.32014 12.4128 8.32283 12.424C8.32551 12.4353 8.32517 12.4471 8.32182 12.4582C8.32065 12.4621 8.31969 12.466 8.31892 12.4699C8.27103 12.7185 8.22249 13.0694 8.24524 13.4049C8.26765 13.7356 8.3615 14.0824 8.62943 14.2838C8.99273 14.5559 9.46147 14.5575 9.8713 14.3779C10.2815 14.198 10.6461 13.8327 10.8176 13.3462C10.955 12.9571 10.9394 12.4053 10.8942 11.8889C10.8762 11.6828 10.853 11.4777 10.8313 11.2867C10.8255 11.2358 10.8199 11.1859 10.8144 11.1372C10.7884 10.9038 10.7682 10.7006 10.7658 10.5443C10.7655 10.521 10.77 10.4979 10.779 10.4764C10.7881 10.4549 10.8015 10.4355 10.8184 10.4194C10.8353 10.4033 10.8554 10.3909 10.8773 10.383C10.8988 10.3752 10.9215 10.3719 10.9442 10.3731C10.967 10.3755 10.989 10.3823 11.0092 10.3931C11.0298 10.4042 11.0481 10.4193 11.0628 10.4376C11.0775 10.4558 11.0885 10.4768 11.095 10.4993C11.1015 10.5218 11.1034 10.5454 11.1007 10.5687L11.1004 10.5709C11.0564 11.0159 11.0752 11.7228 11.1793 12.4278C11.2829 13.1293 11.4738 13.8501 11.7865 14.3094C12.1899 14.903 12.8032 15.0621 13.3783 14.94C13.9474 14.8191 14.4857 14.4232 14.7696 13.8977C15.0377 13.4015 15.2153 13.0269 15.3153 12.7367C15.4147 12.4487 15.4438 12.2272 15.3942 12.0456M17.2672 9.47178C17.2291 9.45446 17.1857 9.45258 17.1462 9.46652C17.1067 9.48044 17.0741 9.50908 17.0552 9.54644M17.3309 9.51831C17.3147 9.49853 17.2938 9.48301 17.2702 9.47307L17.2672 9.47178M17.3309 9.51831C17.3472 9.53809 17.3585 9.56153 17.3637 9.58661ZM17.3637 9.58661C17.3689 9.6117 17.3679 9.63767 17.3609 9.6623ZM17.3609 9.6623C17.3538 9.68693 17.3409 9.70948 17.3232 9.72801ZM17.3232 9.72801C17.3212 9.73009 17.3193 9.73225 17.3175 9.73448ZM17.3175 9.73448C17.1093 9.98726 16.8297 10.3543 16.5802 10.7695ZM16.5802 10.7695C16.3314 11.1834 16.1083 11.6521 16.0197 12.1073ZM14.0886 10.7428C14.0844 10.7519 14.0837 10.7622 14.0867 10.7718C14.0898 10.7817 14.0966 10.7901 14.1058 10.795C14.3979 10.9485 14.6956 11.1814 14.9297 11.4102C15.047 11.525 15.1503 11.6405 15.2298 11.7468C15.3072 11.8502 15.3694 11.9543 15.3941 12.0452M16.0197 12.1073L16.0196 12.1078ZM16.0196 12.1078C15.8967 12.7555 15.9622 13.256 16.1717 13.6198ZM16.1717 13.6198C16.3824 13.986 16.7287 14.1962 17.1291 14.2819ZM18.4806 13.3415C18.5292 13.3367 18.5783 13.3423 18.6246 13.358C18.6708 13.3736 18.7133 13.3988 18.7491 13.432C18.7849 13.4653 18.8132 13.5057 18.8322 13.5507C18.8512 13.5957 18.8605 13.6442 18.8593 13.693C18.8582 13.7418 18.8467 13.7898 18.8257 13.8339C18.8054 13.8762 18.7768 13.9139 18.7415 13.9448C18.5844 14.1037 18.4179 14.2531 18.243 14.3922C18.2404 14.3942 18.2377 14.3962 18.235 14.398C18.203 14.4193 18.1686 14.4384 18.1434 14.4523C18.1342 14.4574 18.1263 14.4618 18.1201 14.4654C18.0918 14.4819 18.0843 14.4897 18.081 14.4945C18.0762 14.5014 18.0548 14.5396 18.0978 14.729L18.0981 14.7305C18.114 14.805 18.1806 14.8916 18.2934 14.9816C18.4023 15.0684 18.5361 15.1443 18.6529 15.2019L18.654 15.2025C18.7004 15.2259 18.7407 15.2598 18.7718 15.3013C18.803 15.3429 18.8241 15.3911 18.8335 15.4422C18.843 15.4933 18.8405 15.5459 18.8263 15.5958C18.8122 15.6458 18.7866 15.6918 18.7518 15.7303C18.7506 15.7316 18.7493 15.733 18.7481 15.7342C18.712 15.7705 18.6684 15.7983 18.6202 15.8157C18.5721 15.833 18.5208 15.8395 18.4699 15.8346C18.419 15.8296 18.3698 15.8134 18.3259 15.7872C18.2821 15.761 18.2446 15.7254 18.2163 15.683C18.064 15.458 17.8469 15.2847 17.5938 15.1861C17.5726 15.1785 17.5515 15.1709 17.5306 15.1634C17.254 15.0637 17.0051 14.9739 16.7921 14.9707C16.6822 14.9691 16.5903 14.9912 16.5131 15.0425C16.4357 15.094 16.3618 15.1824 16.3014 15.3334C16.2913 15.3587 16.2779 15.4221 16.265 15.5336C16.2527 15.6406 16.242 15.7805 16.2329 15.9498C16.2148 16.2882 16.2033 16.7386 16.197 17.2674C16.1845 18.3246 16.1929 19.6903 16.2096 21.0904C16.2264 22.4986 16.2517 23.9424 16.2726 25.1398C16.2933 26.3209 16.3098 27.2623 16.3098 27.6934C16.3098 28.5135 16.7446 29.15 17.3536 29.6129C17.9641 30.0769 18.741 30.3584 19.3944 30.4629C19.4586 30.4731 19.5023 30.5335 19.492 30.5977C19.4818 30.6619 19.4214 30.7056 19.3572 30.6954C18.673 30.586 17.858 30.292 17.2111 29.8003C16.5626 29.3075 16.0744 28.6081 16.0744 27.6934C16.0744 27.2634 16.058 26.3258 16.0373 25.1478C16.0163 23.951 15.991 22.5061 15.9741 21.0932C15.9574 19.6927 15.9491 18.3247 15.9616 17.2646C15.9679 16.7347 15.9794 16.2805 15.9978 15.9372C16.007 15.7657 16.018 15.6205 16.0311 15.5067C16.0437 15.3974 16.0595 15.3043 16.0828 15.246C16.1561 15.0626 16.2561 14.9307 16.3827 14.8465C16.5094 14.7622 16.6515 14.7331 16.7956 14.7353C17.0504 14.7391 17.337 14.8428 17.6013 14.9385C17.626 14.9474 17.6505 14.9563 17.6748 14.965L17.6776 14.966C17.9761 15.0819 18.2321 15.2861 18.4115 15.5514L18.4119 15.5519C18.4209 15.5654 18.4328 15.5768 18.4468 15.5851C18.4607 15.5935 18.4764 15.5986 18.4926 15.6002C18.5087 15.6018 18.5251 15.5997 18.5404 15.5942C18.5548 15.589 18.568 15.5808 18.5791 15.5702C18.5887 15.559 18.5958 15.5458 18.5998 15.5315C18.6041 15.5164 18.6049 15.5005 18.602 15.4851C18.5992 15.4696 18.5928 15.455 18.5833 15.4425C18.574 15.43 18.562 15.4199 18.5482 15.4128C18.4241 15.3516 18.2739 15.2672 18.1466 15.1656C18.0232 15.0672 17.9017 14.9372 17.868 14.7804C17.8262 14.5958 17.8181 14.4602 17.8877 14.3601C17.9216 14.3112 17.9667 14.2822 18.0017 14.2619C18.0159 14.2536 18.0283 14.2468 18.04 14.2403C18.0603 14.2292 18.0785 14.2191 18.1004 14.2047C18.2677 14.0714 18.427 13.9282 18.5774 13.776C18.5792 13.7742 18.581 13.7724 18.5829 13.7707C18.5836 13.7701 18.5844 13.7694 18.5851 13.7688C18.597 13.7588 18.6065 13.7464 18.6132 13.7324C18.6199 13.7184 18.6236 13.7031 18.6239 13.6876C18.6243 13.672 18.6214 13.6566 18.6153 13.6423C18.6093 13.628 18.6003 13.6152 18.5889 13.6046C18.5775 13.594 18.564 13.586 18.5493 13.5811C18.5346 13.5761 18.519 13.5743 18.5035 13.5758C18.4881 13.5773 18.4731 13.5821 18.4597 13.5898C18.4462 13.5975 18.4345 13.608 18.4254 13.6206L18.4247 13.6216C18.3245 13.7566 18.1584 13.9515 17.9415 14.098C17.7237 14.2451 17.4451 14.3493 17.1291 14.2819M18.4806 13.3415C18.432 13.3462 18.385 13.3612 18.3426 13.3855ZM18.3426 13.3855C18.3005 13.4097 18.2639 13.4425 18.2352 13.4818ZM18.2352 13.4818C18.1427 13.6064 17.9953 13.7775 17.8097 13.9029C17.6248 14.0278 17.4114 14.1014 17.1783 14.0517" fill="#047857"/>
<g style="mix-blend-mode:multiply" opacity="0.5">
<path d="M13.2249 29.0318C13.2249 29.0318 12.9754 28.5531 12.2853 28.9741C11.5953 29.3951 11.5215 29.9714 11.0394 30.125C10.5573 30.2787 10.2534 30.1055 10.1575 30.5078C10.0616 30.9101 9.9657 31.0638 10.0421 31.1215C10.1185 31.1792 10.0998 30.6971 10.368 30.5851C10.6362 30.473 11.1158 30.451 11.4799 30.1607C11.844 29.8704 12.669 28.9173 13.2249 29.0318Z" fill="#047857"/>
</g>
<path fill-rule="evenodd" clip-rule="evenodd" d="M9.26964 15.3842C9.30138 15.3274 9.37311 15.3071 9.42985 15.3389C9.91021 15.6076 10.2677 16.052 10.4272 16.5788C10.446 16.641 10.4108 16.7067 10.3486 16.7256C10.2864 16.7444 10.2207 16.7092 10.2018 16.647C10.06 16.1785 9.7421 15.7833 9.31492 15.5444C9.25817 15.5126 9.2379 15.4409 9.26964 15.3842Z" fill="#047857"/>
<path fill-rule="evenodd" clip-rule="evenodd" d="M10.3606 16.6861C10.4247 16.6754 10.4854 16.7187 10.4961 16.7828C10.5291 16.9809 10.5522 17.1806 10.5653 17.381C10.5696 17.4459 10.5204 17.5019 10.4555 17.5061C10.3906 17.5104 10.3346 17.4612 10.3304 17.3963C10.3178 17.2037 10.2956 17.0119 10.2638 16.8216C10.2531 16.7574 10.2964 16.6968 10.3606 16.6861Z" fill="#047857"/>
<path fill-rule="evenodd" clip-rule="evenodd" d="M10.5533 18.1181C10.6182 18.1158 10.6727 18.1667 10.675 18.2317L10.5573 18.2357L10.4396 18.2398C10.4374 18.1748 10.4883 18.1203 10.5533 18.1181ZM10.5573 18.2357C10.4396 18.2398 10.4396 18.2397 10.4396 18.2398L10.4417 18.3025C10.4431 18.3437 10.4451 18.4043 10.4475 18.4823C10.4525 18.6382 10.4593 18.8633 10.4671 19.14C10.4827 19.6934 10.5018 20.4532 10.5163 21.2785C10.5453 22.9314 10.5553 24.8406 10.4806 25.8856C10.476 25.9505 10.5248 26.0068 10.5897 26.0114C10.6545 26.0161 10.7108 25.9673 10.7155 25.9024C10.791 24.8451 10.7807 22.9251 10.7517 21.2744C10.7372 20.448 10.718 19.6874 10.7025 19.1334C10.6947 18.8564 10.6878 18.631 10.6829 18.4748C10.6804 18.3968 10.6784 18.336 10.6771 18.2947L10.675 18.2317C10.675 18.2316 10.675 18.2317 10.5573 18.2357Z" fill="#047857"/>
<path fill-rule="evenodd" clip-rule="evenodd" d="M10.6038 26.0633C10.6688 26.0665 10.7188 26.1217 10.7156 26.1867L10.598 26.1809L10.4805 26.1751C10.4837 26.1102 10.5389 26.0601 10.6038 26.0633ZM10.598 26.1809L10.4805 26.1751L10.4775 26.2347C10.4756 26.2728 10.4728 26.3275 10.4694 26.3938C10.4626 26.5264 10.4533 26.7054 10.443 26.8913C10.4224 27.2663 10.3987 27.6597 10.3854 27.7632C10.3771 27.8277 10.4227 27.8867 10.4871 27.895C10.5516 27.9033 10.6106 27.8577 10.6189 27.7932C10.6336 27.6787 10.6578 27.2733 10.6781 26.9042C10.6884 26.718 10.6978 26.5386 10.7046 26.4058C10.708 26.3394 10.7107 26.2846 10.7127 26.2465L10.7156 26.1867L10.598 26.1809Z" fill="#047857"/>
<path fill-rule="evenodd" clip-rule="evenodd" d="M11.127 19.2783C11.192 19.2765 11.2461 19.3277 11.2479 19.3927L11.2759 20.4163C11.2776 20.4813 11.2264 20.5355 11.1614 20.5372C11.0964 20.539 11.0423 20.4878 11.0405 20.4228L11.0125 19.3992C11.0107 19.3342 11.062 19.2801 11.127 19.2783Z" fill="#047857"/>
<path fill-rule="evenodd" clip-rule="evenodd" d="M11.1697 20.643C11.2347 20.6419 11.2884 20.6937 11.2895 20.7587L11.1718 20.7608L11.0541 20.7628C11.0529 20.6978 11.1047 20.6442 11.1697 20.643ZM11.1718 20.7608C11.0541 20.7628 11.0541 20.7628 11.0541 20.7628L11.0569 20.93C11.0587 21.0373 11.0611 21.1921 11.0639 21.3817C11.0694 21.7611 11.0762 22.2801 11.0812 22.8387C11.0914 23.9574 11.0948 25.2306 11.0678 25.8618C11.065 25.9268 11.1154 25.9817 11.1804 25.9845C11.2453 25.9872 11.3002 25.9368 11.303 25.8719C11.3303 25.2333 11.3269 23.9535 11.3167 22.8366C11.3116 22.2774 11.3048 21.758 11.2993 21.3783C11.2965 21.1885 11.2941 21.0336 11.2923 20.9262L11.2895 20.7587C11.2895 20.7586 11.2895 20.7587 11.1718 20.7608Z" fill="#047857"/>
<path fill-rule="evenodd" clip-rule="evenodd" d="M11.6874 26.5962C11.7524 26.5946 11.8064 26.6459 11.808 26.7109L11.8216 27.2431C11.8233 27.3081 11.7719 27.3621 11.7069 27.3638C11.6419 27.3654 11.5879 27.3141 11.5863 27.2491L11.5727 26.7169C11.571 26.6519 11.6224 26.5979 11.6874 26.5962Z" fill="#047857"/>
<path fill-rule="evenodd" clip-rule="evenodd" d="M15.3729 11.8117C15.4295 11.7797 15.5013 11.7997 15.5333 11.8563L15.4308 11.9142C15.5333 11.8563 15.5333 11.8564 15.5334 11.8564L15.5334 11.8565L15.5336 11.8568L15.5338 11.8573L15.5345 11.8585L15.5362 11.8616C15.5374 11.864 15.5389 11.867 15.5407 11.8707C15.5441 11.8779 15.5485 11.8877 15.5533 11.9C15.5629 11.9247 15.5743 11.9594 15.5844 12.0047C15.6046 12.0953 15.6191 12.227 15.6032 12.4027L15.6028 12.4067L15.6028 12.4067C15.5724 12.6503 15.5043 12.8877 15.4009 13.1104C15.3736 13.1694 15.3036 13.195 15.2446 13.1677C15.1856 13.1403 15.16 13.0703 15.1874 13.0113C15.2801 12.8113 15.3414 12.5982 15.3689 12.3795C15.3824 12.2286 15.3693 12.122 15.3546 12.0559C15.3472 12.0226 15.3393 11.9994 15.3339 11.9856C15.3312 11.9787 15.3292 11.9742 15.3281 11.972C15.3278 11.9713 15.3275 11.9708 15.3274 11.9706C15.3274 11.9705 15.3274 11.9705 15.3274 11.9705C15.3273 11.9704 15.3273 11.9703 15.3273 11.9703L15.3276 11.9708L15.3279 11.9714L15.3281 11.9717L15.3282 11.9719" fill="#047857"/>
<path fill-rule="evenodd" clip-rule="evenodd" d="M15.2798 13.1606C15.3377 13.1901 15.3607 13.2611 15.3312 13.319L15.2263 13.2654L15.1215 13.2119C15.151 13.154 15.2219 13.131 15.2798 13.1606ZM15.1215 13.2119L15.2263 13.2654L15.3312 13.319L15.3274 13.3264L15.3167 13.3471C15.3075 13.365 15.2942 13.3907 15.278 13.4218C15.2456 13.484 15.2014 13.5682 15.154 13.6559C15.1067 13.7434 15.0559 13.8353 15.0106 13.9126C14.9675 13.986 14.9233 14.0571 14.8901 14.0945C14.8471 14.1433 14.7727 14.1478 14.724 14.1048C14.6753 14.0617 14.6707 13.9873 14.7137 13.9386C14.729 13.9214 14.7619 13.8712 14.8075 13.7935C14.8508 13.7196 14.9001 13.6306 14.9468 13.544C14.9934 13.4576 15.0371 13.3746 15.0692 13.313C15.0852 13.2823 15.0983 13.2569 15.1074 13.2393L15.1178 13.219L15.1215 13.2119Z" fill="#047857"/>
<path fill-rule="evenodd" clip-rule="evenodd" d="M10.4115 14.1831C10.4555 14.231 10.4523 14.3054 10.4044 14.3494C10.2344 14.5056 10.0284 14.6172 9.80481 14.6745C9.58119 14.7317 9.34688 14.7327 9.12277 14.6775C9.05964 14.6619 9.02109 14.5981 9.03665 14.535C9.05222 14.4719 9.11602 14.4333 9.17914 14.4489C9.36555 14.4948 9.56043 14.494 9.74642 14.4464C9.93242 14.3988 10.1037 14.3059 10.2451 14.176C10.293 14.132 10.3675 14.1352 10.4115 14.1831Z" fill="#047857"/>
<path fill-rule="evenodd" clip-rule="evenodd" d="M11.1031 26.6233C11.1681 26.6233 11.2208 26.676 11.2208 26.7411V29.2805C11.2208 29.2923 11.219 29.304 11.2155 29.3152L11.1031 29.2805C11.2155 29.3152 11.2155 29.3153 11.2155 29.3154L11.2154 29.3156L11.2153 29.316L11.215 29.3169L11.2143 29.3191L11.2122 29.325C11.2106 29.3295 11.2083 29.3354 11.2053 29.3425C11.1993 29.3566 11.1903 29.3754 11.1775 29.398C11.1518 29.4434 11.1108 29.5035 11.0469 29.5711C10.9188 29.7067 10.7016 29.8695 10.3386 30.0045C10.3334 30.0065 10.3281 30.008 10.3226 30.0092C10.1532 30.0461 10.0024 30.1419 9.89716 30.2797L9.89625 30.2809L9.89624 30.2809C9.82938 30.3661 9.77708 30.4434 9.72433 30.5213C9.69407 30.566 9.66366 30.6109 9.63027 30.6577C9.54165 30.7818 9.44193 30.9033 9.2942 31.0196C9.24312 31.0598 9.1691 31.051 9.12888 30.9999C9.08865 30.9489 9.09745 30.8748 9.14853 30.8346C9.27241 30.7371 9.35729 30.6349 9.43864 30.5209C9.46536 30.4835 9.49298 30.4428 9.52206 30.3999C9.57815 30.3172 9.63966 30.2265 9.71052 30.1361C9.8479 29.9566 10.0438 29.831 10.264 29.781C10.5924 29.6578 10.7759 29.5151 10.8757 29.4094C10.9262 29.356 10.956 29.3113 10.9726 29.282C10.9783 29.272 10.9824 29.2638 10.9853 29.2576V26.7411C10.9853 26.676 11.038 26.6233 11.1031 26.6233Z" fill="#047857"/>
<path fill-rule="evenodd" clip-rule="evenodd" d="M11.5303 17.7174C11.5953 17.7162 11.649 17.7679 11.6502 17.8329L11.7674 23.9515C11.7686 24.0165 11.7169 24.0702 11.6519 24.0715C11.5869 24.0727 11.5332 24.021 11.5319 23.956L11.4148 17.8374C11.4136 17.7724 11.4653 17.7187 11.5303 17.7174Z" fill="#047857"/>
<path fill-rule="evenodd" clip-rule="evenodd" d="M11.9643 29.8538C11.8507 29.9631 11.7374 30.0721 11.6269 30.1632C11.3969 30.353 11.2301 30.4437 11.1145 30.4862C11.0564 30.5075 11.0106 30.5168 10.9759 30.52C10.9586 30.5216 10.9441 30.5217 10.9324 30.521C10.9265 30.5207 10.9213 30.5202 10.9169 30.5196C10.9146 30.5192 10.9126 30.5189 10.9107 30.5186L10.908 30.5181L10.9068 30.5178L10.9062 30.5177L10.9059 30.5176C10.9058 30.5176 10.9056 30.5176 10.9303 30.4046L10.9056 30.5176C10.8421 30.5037 10.8018 30.441 10.8157 30.3774C10.829 30.3169 10.8866 30.2775 10.947 30.286C10.9483 30.286 10.9507 30.2859 10.9541 30.2856C10.9662 30.2844 10.992 30.2803 11.0334 30.2651C11.1168 30.2345 11.2607 30.1602 11.4771 29.9816C11.5804 29.8963 11.6878 29.7931 11.8039 29.6814C11.8084 29.677 11.813 29.6727 11.8176 29.6682C11.9375 29.5529 12.0657 29.4303 12.2008 29.3189C12.469 29.0979 12.7826 28.9056 13.1451 28.9056C13.4906 28.9056 13.7495 29.0107 13.9229 29.1175C14.0093 29.1707 14.0743 29.2242 14.1183 29.2652C14.1403 29.2857 14.1571 29.3031 14.1688 29.3158C14.1746 29.3222 14.1792 29.3274 14.1825 29.3313L14.1865 29.336L14.1877 29.3376L14.1882 29.3382L14.1884 29.3384L14.1885 29.3385C14.1885 29.3385 14.1885 29.3386 14.1021 29.4077L14.1886 29.3386C14.2291 29.3894 14.2209 29.4635 14.1701 29.504C14.1193 29.5446 14.0452 29.5364 14.0046 29.4856L14.0966 29.4121C14.0046 29.4856 14.0047 29.4856 14.0047 29.4857L14.0047 29.4857L14.0048 29.4859L14.0034 29.4842C14.0018 29.4823 13.9991 29.4792 13.9952 29.4749C13.9874 29.4664 13.9749 29.4534 13.9578 29.4375C13.9235 29.4056 13.8708 29.3619 13.7994 29.3179C13.6573 29.2304 13.4405 29.1411 13.1451 29.1411C12.8669 29.1411 12.6072 29.2891 12.3506 29.5006C12.2234 29.6054 12.1013 29.722 11.9808 29.8379C11.9753 29.8432 11.9698 29.8485 11.9643 29.8538Z" fill="#047857"/>
<path fill-rule="evenodd" clip-rule="evenodd" d="M14.122 29.4418C14.1806 29.4136 14.2509 29.4383 14.2791 29.4969C14.3551 29.6554 14.4047 29.8253 14.4256 29.9998C14.4334 30.0644 14.3873 30.123 14.3228 30.1307C14.2582 30.1385 14.1996 30.0924 14.1918 30.0279C14.174 29.879 14.1317 29.734 14.0668 29.5988C14.0387 29.5402 14.0634 29.4699 14.122 29.4418Z" fill="#047857"/>
<path fill-rule="evenodd" clip-rule="evenodd" d="M15.1361 29.0084C15.0402 29.0168 14.958 29.0574 14.8915 29.1498C14.7582 29.3352 14.8078 29.56 14.9233 29.7703C14.9793 29.8722 15.0459 29.9611 15.0993 30.0251C15.1258 30.0569 15.1487 30.0821 15.1647 30.0991C15.1727 30.1076 15.1789 30.114 15.183 30.1182L15.1876 30.1227L15.1885 30.1237C15.2352 30.169 15.2363 30.2436 15.1911 30.2902C15.1458 30.3369 15.0713 30.338 15.0246 30.2927L15.1066 30.2082C15.0246 30.2927 15.0246 30.2927 15.0246 30.2927L15.0243 30.2924L15.0237 30.2918L15.0219 30.29L15.0155 30.2836C15.0101 30.2782 15.0025 30.2704 14.9932 30.2604C14.9744 30.2405 14.9484 30.2118 14.9185 30.1759C14.8589 30.1045 14.7824 30.0029 14.717 29.8837C14.5897 29.652 14.484 29.3132 14.7004 29.0123C14.8088 28.8616 14.9547 28.7879 15.1156 28.7738C15.2709 28.7603 15.4341 28.8024 15.5877 28.8684C15.895 29.0003 16.203 29.2444 16.4117 29.4431C16.4588 29.4879 16.4606 29.5625 16.4158 29.6095C16.3709 29.6566 16.2964 29.6585 16.2493 29.6136C16.0498 29.4236 15.7653 29.2009 15.4948 29.0847C15.3595 29.0267 15.2375 28.9995 15.1361 29.0084Z" fill="#047857"/>
<path fill-rule="evenodd" clip-rule="evenodd" d="M16.7301 29.6768C16.7098 29.6287 16.659 29.5984 16.6049 29.6062C16.5405 29.6155 16.4959 29.6751 16.5051 29.7395L16.6216 29.7227C16.5051 29.7395 16.5052 29.7398 16.5052 29.7401L16.5053 29.7407L16.5055 29.7419L16.5059 29.7444C16.5062 29.7461 16.5066 29.7478 16.507 29.7494C16.5077 29.7528 16.5087 29.7562 16.5097 29.7596C16.5119 29.7664 16.5146 29.7732 16.5179 29.7801C16.5244 29.7938 16.5334 29.8079 16.5451 29.8225C16.5682 29.8514 16.6044 29.8859 16.6621 29.9274C16.7768 30.01 16.9892 30.1301 17.3884 30.2958C17.3899 30.2966 17.3923 30.2979 17.3953 30.2996C17.4023 30.3035 17.4127 30.3097 17.4248 30.318C17.4496 30.335 17.4779 30.3585 17.4994 30.3865C17.5205 30.4141 17.5321 30.4419 17.533 30.471C17.5339 30.4989 17.5254 30.5421 17.4807 30.6024C17.3115 30.8152 17.1219 31.0111 16.9147 31.1871C16.8651 31.2291 16.859 31.3034 16.9011 31.353C16.9432 31.4026 17.0175 31.4086 17.0671 31.3665C17.2865 31.1802 17.4871 30.9728 17.6661 30.7474L17.6662 30.7474L17.6682 30.7447C17.7389 30.6503 17.7713 30.5556 17.7684 30.4635C17.7655 30.3725 17.7284 30.2984 17.6863 30.2434C17.6446 30.1889 17.595 30.1492 17.5579 30.1238C17.539 30.1108 17.5224 30.1009 17.5101 30.094C17.504 30.0906 17.4989 30.0879 17.4951 30.086L17.4903 30.0836L17.4887 30.0828L17.4881 30.0825L17.4879 30.0824L17.4878 30.0823C17.4877 30.0823 17.4877 30.0823 17.4373 30.1887L17.4877 30.0823C17.4859 30.0815 17.4842 30.0807 17.4824 30.0799C17.0879 29.9164 16.8935 29.8039 16.7997 29.7364C16.7553 29.7044 16.7365 29.6846 16.7301 29.6768ZM17.3863 30.2948C17.3863 30.2948 17.3863 30.2948 17.3864 30.2948L17.3863 30.2948Z" fill="#047857"/>
<path fill-rule="evenodd" clip-rule="evenodd" d="M10.8888 30.401C10.9108 30.4622 10.879 30.5296 10.8178 30.5516C10.6856 30.599 10.5771 30.696 10.5153 30.8221C10.4593 30.9449 10.4327 31.0213 10.4202 31.0648C10.414 31.0865 10.4115 31.0994 10.4105 31.1052C10.4103 31.1065 10.4102 31.1074 10.4101 31.108C10.4101 31.108 10.4101 31.108 10.4101 31.108C10.41 31.1085 10.41 31.1088 10.41 31.1088C10.41 31.1088 10.41 31.1087 10.41 31.1086L10.4102 31.1065L10.4102 31.1045L10.4102 31.1033L10.4103 31.1026L10.4103 31.1023M10.2925 31.1019C10.1748 31.1019 10.1748 31.1019 10.1748 31.1018L10.1748 31.1016L10.1748 31.1012L10.1748 31.1005L10.1748 31.099L10.175 31.0956C10.1751 31.0933 10.1752 31.0907 10.1755 31.0878C10.176 31.0821 10.1768 31.0752 10.1782 31.0671C10.1809 31.0508 10.1856 31.0289 10.1939 30.9999C10.2105 30.9421 10.2419 30.8539 10.3017 30.7229L10.3029 30.7202L10.303 30.7202C10.3916 30.5383 10.5478 30.3983 10.7383 30.33C10.7995 30.308 10.8669 30.3398 10.8888 30.401" fill="#047857"/>
<path fill-rule="evenodd" clip-rule="evenodd" d="M17.575 30.9697C17.6882 30.8288 17.8741 30.6541 18.1162 30.6541C18.3249 30.6541 18.5759 30.7343 18.7645 30.8076C18.861 30.8452 18.9454 30.8826 19.0057 30.9107C19.0359 30.9248 19.0602 30.9365 19.077 30.9448C19.0854 30.949 19.092 30.9523 19.0966 30.9546L19.1018 30.9572L19.1033 30.958L19.1037 30.9582C19.1037 30.9582 19.1039 30.9583 19.0513 31.0601L19.1037 30.9582C19.1614 30.988 19.1843 31.0592 19.1545 31.1169C19.1246 31.1747 19.0536 31.1973 18.9959 31.1675C18.9958 31.1675 18.9959 31.1675 18.9959 31.1675L18.9947 31.1669L18.9903 31.1647C18.9864 31.1627 18.9805 31.1598 18.9728 31.156C18.9574 31.1484 18.9348 31.1374 18.9063 31.1241C18.8494 31.0976 18.7698 31.0623 18.6792 31.0271C18.4934 30.9548 18.2777 30.8895 18.1162 30.8895C17.9883 30.8895 17.8636 30.9864 17.7586 31.1171C17.7089 31.179 17.6693 31.2415 17.642 31.2889C17.6284 31.3124 17.6181 31.3319 17.6113 31.3452C17.6079 31.3519 17.6054 31.357 17.6038 31.3603L17.6021 31.3638L17.6018 31.3644C17.5745 31.4234 17.5045 31.4491 17.4455 31.4218C17.3865 31.3945 17.3608 31.3246 17.3881 31.2656L17.495 31.315C17.3881 31.2656 17.3881 31.2656 17.3881 31.2656L17.3883 31.2652L17.3885 31.2647L17.3893 31.263L17.3919 31.2575C17.3942 31.2528 17.3975 31.2463 17.4016 31.2381C17.41 31.2217 17.4222 31.1987 17.438 31.1713C17.4694 31.1169 17.5157 31.0436 17.575 30.9697Z" fill="#047857"/>
<path fill-rule="evenodd" clip-rule="evenodd" d="M15.5853 18.9048C15.6503 18.9048 15.703 18.9575 15.703 19.0225V26.2335C15.703 26.2985 15.6503 26.3512 15.5853 26.3512C15.5202 26.3512 15.4675 26.2985 15.4675 26.2335V19.0225C15.4675 18.9575 15.5202 18.9048 15.5853 18.9048Z" fill="#047857"/>
<path fill-rule="evenodd" clip-rule="evenodd" d="M15.8612 23.8292C15.9262 23.8288 15.9793 23.8812 15.9797 23.9462L16.0043 27.5635C16.0048 27.6286 15.9524 27.6816 15.8874 27.6821C15.8224 27.6825 15.7693 27.6302 15.7689 27.5652L15.7443 23.9478C15.7438 23.8828 15.7962 23.8297 15.8612 23.8292Z" fill="#047857"/>
<path fill-rule="evenodd" clip-rule="evenodd" d="M15.5894 26.5648C15.6544 26.5671 15.7053 26.6216 15.703 26.6866L15.7027 26.6944L15.702 26.7174C15.7014 26.7374 15.7005 26.7667 15.6996 26.8034C15.6976 26.8768 15.6953 26.9799 15.6938 27.0986C15.6907 27.3367 15.6908 27.6353 15.7029 27.8828C15.7135 28.0992 15.8167 28.2765 15.9236 28.4035C15.9766 28.4665 16.029 28.5153 16.0679 28.5482C16.0873 28.5645 16.1032 28.5768 16.1139 28.5847C16.1192 28.5887 16.1232 28.5916 16.1257 28.5933L16.1283 28.5951C16.1284 28.5952 16.1283 28.5951 16.1283 28.5951M16.1283 28.5951C16.1824 28.6312 16.1972 28.7044 16.1611 28.7585C16.1251 28.8126 16.052 28.8272 15.9979 28.7911L16.0631 28.6933C15.9979 28.7911 15.9979 28.7912 15.9979 28.7911L15.9975 28.7909L15.997 28.7905L15.9954 28.7895L15.9904 28.786C15.9863 28.7831 15.9805 28.779 15.9734 28.7737C15.9593 28.7632 15.9395 28.7479 15.9161 28.7281C15.8692 28.6886 15.8068 28.6304 15.7434 28.5551C15.6175 28.4054 15.4818 28.1804 15.4677 27.8943C15.4553 27.6394 15.4553 27.335 15.4584 27.0956C15.4599 26.9756 15.4623 26.8714 15.4642 26.7972C15.4652 26.7601 15.466 26.7305 15.4667 26.7101L15.4674 26.6866L15.4677 26.6785C15.4699 26.6136 15.5245 26.5626 15.5894 26.5648" fill="#047857"/>
<path fill-rule="evenodd" clip-rule="evenodd" d="M15.1329 18.4023C15.1979 18.4023 15.2506 18.455 15.2506 18.5201V21.0324C15.2506 21.0974 15.1979 21.1501 15.1329 21.1501C15.0678 21.1501 15.0151 21.0974 15.0151 21.0324V18.5201C15.0151 18.455 15.0678 18.4023 15.1329 18.4023Z" fill="#047857"/>
<path fill-rule="evenodd" clip-rule="evenodd" d="M14.4888 14.4247C14.5296 14.3741 14.6037 14.3662 14.6543 14.407C14.7049 14.4478 14.7128 14.522 14.672 14.5726L14.5806 14.4988C14.672 14.5726 14.672 14.5725 14.672 14.5726L14.6717 14.5729L14.6713 14.5735L14.6697 14.5753L14.6644 14.5817C14.6599 14.5872 14.6533 14.5949 14.6448 14.6045C14.6278 14.6239 14.6031 14.6511 14.5714 14.6837C14.508 14.7488 14.416 14.836 14.3008 14.9249C14.0725 15.1012 13.7427 15.2923 13.358 15.3197C12.9794 15.3467 12.6446 15.2384 12.4075 15.1263C12.2884 15.0701 12.1924 15.0121 12.1258 14.968C12.0925 14.9459 12.0664 14.9272 12.0483 14.9137C12.0393 14.907 12.0323 14.9016 12.0274 14.8978L12.0215 14.8932L12.0198 14.8918L12.0193 14.8913L12.019 14.8911C12.019 14.8911 12.019 14.8911 12.0935 14.8L12.019 14.8911C11.9687 14.8499 11.9613 14.7757 12.0024 14.7254C12.0436 14.6751 12.1177 14.6677 12.168 14.7088L12.1687 14.7094L12.1725 14.7123C12.176 14.7151 12.1815 14.7193 12.189 14.7249C12.2039 14.736 12.2264 14.7522 12.2559 14.7718C12.3149 14.8109 12.401 14.8629 12.5081 14.9135C12.7231 15.0151 13.0164 15.108 13.3413 15.0849C13.6603 15.0622 13.9459 14.9015 14.1569 14.7385C14.2615 14.6578 14.3452 14.5784 14.4027 14.5194C14.4313 14.49 14.4533 14.4658 14.4679 14.4491C14.4752 14.4408 14.4806 14.4345 14.4842 14.4303L14.4879 14.4257L14.4888 14.4247ZM12.168 14.7088C12.168 14.7088 12.168 14.7088 12.168 14.7088Z" fill="#047857"/>
<path fill-rule="evenodd" clip-rule="evenodd" d="M10.622 15.7382C10.6739 15.6989 10.7477 15.7092 10.787 15.7611C11.1024 16.1782 11.2611 16.693 11.2352 17.2153L11.2809 19.0195C11.2826 19.0845 11.2312 19.1386 11.1662 19.1402C11.1012 19.1418 11.0472 19.0905 11.0456 19.0255L10.9997 17.2168C10.9997 17.2138 10.9997 17.2108 10.9999 17.2078C11.024 16.7393 10.8821 16.2773 10.5991 15.9031C10.5599 15.8512 10.5702 15.7774 10.622 15.7382Z" fill="#047857"/>
<path fill-rule="evenodd" clip-rule="evenodd" d="M10.9261 29.5963C10.9261 29.5964 10.9261 29.5965 10.8138 29.6247L10.9261 29.5965C10.9419 29.6596 10.9036 29.7235 10.8406 29.7393C10.7785 29.7549 10.7156 29.718 10.6985 29.6567C10.6984 29.6565 10.6983 29.656 10.6981 29.6555C10.6971 29.6529 10.695 29.6482 10.6915 29.6424C10.6846 29.6309 10.6727 29.6163 10.6525 29.6047C10.6168 29.5841 10.5157 29.552 10.2822 29.657C10.0467 29.7628 9.70559 30.011 9.39152 30.2687C9.07885 30.5251 8.80833 30.778 8.71446 30.8839C8.67131 30.9325 8.5969 30.9369 8.54826 30.8938C8.49963 30.8506 8.49518 30.7762 8.53833 30.7276C8.64476 30.6076 8.92678 30.3454 9.24219 30.0866C9.5562 29.8291 9.91868 29.5622 10.1857 29.4422C10.4546 29.3213 10.6425 29.3271 10.7702 29.4007C10.8317 29.4362 10.8701 29.4827 10.893 29.5207C10.9045 29.5396 10.9122 29.5567 10.9174 29.5698C10.9199 29.5763 10.9219 29.582 10.9233 29.5865C10.924 29.5888 10.9246 29.5907 10.925 29.5924L10.9257 29.5947L10.9259 29.5956L10.926 29.5961L10.9261 29.5963Z" fill="#047857"/>
<path d="M9.47253 10.0283C9.47253 10.0283 10.7737 11.1622 12.2734 9.89503Z" fill="#047857"/>
<path fill-rule="evenodd" clip-rule="evenodd" d="M12.3634 9.81906C12.4054 9.86872 12.3991 9.943 12.3494 9.98496C11.5684 10.6449 10.8288 10.6844 10.2827 10.5512C10.0123 10.4853 9.79191 10.3777 9.63913 10.2868C9.56261 10.2413 9.50262 10.1997 9.46134 10.1691C9.44068 10.1538 9.42467 10.1413 9.41358 10.1323C9.40803 10.1278 9.4037 10.1242 9.40063 10.1216L9.39698 10.1185L9.39587 10.1176L9.39549 10.1173L9.39535 10.1171C9.39529 10.1171 9.39524 10.117 9.47152 10.0295L9.39524 10.117C9.34622 10.0743 9.34112 9.99996 9.38383 9.95094C9.42651 9.90198 9.50077 9.89683 9.54978 9.93941L9.55009 9.93967L9.55209 9.94137C9.55404 9.94301 9.55721 9.94563 9.56155 9.94915C9.57025 9.95617 9.58365 9.96672 9.60151 9.97995C9.63724 10.0064 9.69062 10.0435 9.75951 10.0845C9.89756 10.1666 10.0962 10.2634 10.3385 10.3225C10.8179 10.4394 11.4788 10.4124 12.1975 9.80511C12.2472 9.76315 12.3214 9.76939 12.3634 9.81906Z" fill="#047857"/>
<path d="M7.57056 12.23C7.57056 12.23 8.13837 12.931 8.87169 12.0967Z" fill="#047857"/>
<path fill-rule="evenodd" clip-rule="evenodd" d="M8.94934 12.0083C8.99818 12.0512 9.00297 12.1256 8.96005 12.1744C8.76649 12.3946 8.57673 12.5216 8.39585 12.5813C8.21388 12.6413 8.04915 12.6306 7.91184 12.5888C7.77609 12.5476 7.6688 12.4768 7.59632 12.4177C7.55982 12.388 7.53135 12.3606 7.51168 12.3403C7.50183 12.3301 7.49412 12.3216 7.48865 12.3154C7.48592 12.3123 7.48374 12.3097 7.48213 12.3078L7.48014 12.3054L7.47946 12.3046L7.47921 12.3043L7.4791 12.3042C7.47905 12.3041 7.479 12.304 7.57049 12.23L7.479 12.304C7.43808 12.2535 7.44587 12.1794 7.49639 12.1385C7.5468 12.0976 7.6207 12.1053 7.66168 12.1555L7.66215 12.1561L7.66544 12.1599C7.66865 12.1635 7.67385 12.1693 7.68095 12.1766C7.6952 12.1914 7.71683 12.2122 7.74501 12.2352C7.80192 12.2815 7.88241 12.3338 7.98028 12.3636C8.07659 12.3928 8.19131 12.4009 8.32206 12.3577C8.45388 12.3142 8.61009 12.2159 8.7832 12.019C8.82612 11.9701 8.90051 11.9653 8.94934 12.0083Z" fill="#047857"/>
<path d="M6.9705 13.1975C6.9705 13.1975 7.30406 14.065 6.23633 13.9614Z" fill="#047857"/>
<path fill-rule="evenodd" clip-rule="evenodd" d="M6.92818 13.0876C6.98887 13.0643 7.05698 13.0946 7.08032 13.1553L6.97043 13.1975C7.08032 13.1553 7.08034 13.1553 7.08036 13.1554L7.08042 13.1555L7.08055 13.1559L7.0809 13.1568L7.08193 13.1596C7.08277 13.1619 7.08388 13.165 7.08521 13.1689C7.08788 13.1766 7.09144 13.1874 7.09547 13.2009C7.10349 13.2277 7.11346 13.2654 7.12167 13.3102C7.13779 13.3983 7.14864 13.5219 7.11808 13.6464C7.08659 13.7746 7.01083 13.9032 6.85907 13.9884C6.71141 14.0713 6.50498 14.1057 6.2249 14.0786C6.16019 14.0723 6.11281 14.0148 6.11909 13.95C6.12536 13.8853 6.18291 13.838 6.24763 13.8442C6.50141 13.8688 6.65368 13.8337 6.74378 13.7831C6.82978 13.7348 6.87083 13.6659 6.88942 13.5902C6.90893 13.5108 6.90313 13.424 6.89007 13.3526C6.88369 13.3178 6.87594 13.2886 6.86989 13.2683C6.86688 13.2583 6.86433 13.2506 6.86263 13.2456L6.86078 13.2404L6.86055 13.2398C6.86054 13.2397 6.86053 13.2397 6.86051 13.2397M6.92818 13.0876C6.86753 13.111 6.83725 13.179 6.86051 13.2397Z" fill="#047857"/>
<path d="M6.30334 14.8322C6.30334 14.8322 6.97046 15.002 6.70311 15.6334Z" fill="#047857"/>
<path fill-rule="evenodd" clip-rule="evenodd" d="M6.18921 14.8032C6.20524 14.7402 6.26932 14.7021 6.33233 14.7181L6.3033 14.8322C6.33233 14.7181 6.33239 14.7181 6.33245 14.7182L6.33258 14.7182L6.33289 14.7183L6.33371 14.7185L6.33605 14.7191L6.3435 14.7212C6.34965 14.723 6.35812 14.7256 6.36849 14.729C6.3892 14.7359 6.41779 14.7463 6.45093 14.7609C6.51648 14.7899 6.60362 14.837 6.68268 14.909C6.76236 14.9815 6.83622 15.0816 6.86791 15.2146C6.89974 15.3482 6.88614 15.503 6.81147 15.6793C6.78612 15.7392 6.71704 15.7672 6.65716 15.7419C6.59729 15.7165 6.5693 15.6474 6.59465 15.5875C6.65366 15.4482 6.65693 15.345 6.63887 15.2691C6.62067 15.1927 6.57788 15.1319 6.5242 15.0831C6.4699 15.0337 6.40698 14.9989 6.35579 14.9763C6.33057 14.9652 6.30913 14.9574 6.29439 14.9525C6.28705 14.9501 6.28145 14.9484 6.27795 14.9474L6.27436 14.9463L6.27386 14.9462C6.27385 14.9462 6.27388 14.9462 6.27395 14.9462L6.27408 14.9463L6.27417 14.9463C6.21122 14.9302 6.17319 14.8662 6.18921 14.8032Z" fill="#047857"/>
<path d="M13.1426 10.6623C13.1426 10.6623 13.1426 10.9959 13.8097 10.9959C14.4768 10.9959 14.3105 10.2617 14.3105 10.2617" fill="#047857"/>
<path fill-rule="evenodd" clip-rule="evenodd" d="M14.2845 10.1469C14.3479 10.1325 14.411 10.1723 14.4253 10.2357L14.3105 10.2617C14.4253 10.2357 14.4253 10.2357 14.4253 10.2358L14.4254 10.2359L14.4254 10.2362L14.4256 10.237L14.4261 10.2394L14.4277 10.2473C14.429 10.2538 14.4307 10.263 14.4326 10.2745C14.4363 10.2973 14.4406 10.3293 14.4435 10.3676C14.4492 10.4432 14.4495 10.5477 14.4251 10.6549C14.4006 10.7624 14.3496 10.8795 14.2472 10.9695C14.1434 11.0609 13.9991 11.1136 13.8097 11.1136C13.458 11.1136 13.256 11.0256 13.1428 10.9123C13.0867 10.8563 13.0569 10.7982 13.0414 10.7517C13.0337 10.7286 13.0296 10.7086 13.0274 10.6933C13.0263 10.6856 13.0257 10.6791 13.0253 10.6739C13.0252 10.6713 13.025 10.669 13.025 10.6671L13.0249 10.6644L13.0249 10.6633L13.0249 10.6628L13.0249 10.6625C13.0249 10.6624 13.0249 10.6623 13.1401 10.6623H13.0249C13.0249 10.5973 13.0776 10.5446 13.1426 10.5446C13.2064 10.5446 13.2583 10.5953 13.2603 10.6586C13.2603 10.6589 13.2604 10.6594 13.2605 10.66C13.2609 10.6629 13.262 10.669 13.2647 10.6772C13.2701 10.6932 13.2819 10.7185 13.3093 10.7458C13.3628 10.7994 13.4943 10.8781 13.8097 10.8781C13.9539 10.8781 14.0391 10.8391 14.0917 10.7928C14.1457 10.7452 14.1782 10.6787 14.1955 10.6026C14.2129 10.5263 14.2133 10.4473 14.2087 10.3852C14.2064 10.3547 14.2029 10.3294 14.2001 10.312C14.1987 10.3034 14.1975 10.2968 14.1967 10.2926L14.1958 10.2882L14.1957 10.2877C14.1957 10.2877 14.1957 10.2877 14.1957 10.2876M14.2845 10.1469C14.2211 10.1612 14.1814 10.2242 14.1957 10.2876Z" fill="#047857"/>
<path d="M16.445 9.02846C16.445 9.02846 16.3449 9.76263 17.1792 9.99604C18.0135 10.2294 18.5134 9.42823 18.5134 9.42823" fill="#047857"/>
<path fill-rule="evenodd" clip-rule="evenodd" d="M16.5617 9.04425C16.5617 9.04425 16.5617 9.04425 16.5617 9.04425L16.5617 9.04425L16.5618 9.04414L16.5618 9.04397L16.5618 9.04383C16.5618 9.04382 16.5618 9.04399 16.5617 9.04431L16.5613 9.04819C16.561 9.05204 16.5604 9.05834 16.56 9.06681C16.5591 9.08378 16.5585 9.10925 16.5601 9.1409C16.5633 9.20453 16.5752 9.29119 16.6096 9.38362C16.6765 9.56306 16.8321 9.77666 17.211 9.88266C17.5823 9.98656 17.8787 9.8622 18.0888 9.70531C18.1943 9.62656 18.2764 9.54061 18.3321 9.47414C18.3599 9.44104 18.3808 9.41311 18.3945 9.39384C18.4014 9.38421 18.4065 9.37678 18.4097 9.37197L18.4131 9.36679L18.4136 9.3659L18.4137 9.36583C18.4481 9.31073 18.5207 9.29394 18.5758 9.32834C18.631 9.36276 18.6478 9.43538 18.6134 9.49054L18.5135 9.42822C18.6134 9.49054 18.6133 9.49059 18.6133 9.49064L18.6132 9.49075L18.6131 9.49103L18.6126 9.49182L18.611 9.49424L18.6057 9.50236C18.6012 9.50917 18.5947 9.51872 18.5862 9.53055C18.5694 9.55418 18.5447 9.58703 18.5126 9.62539C18.4485 9.70186 18.3534 9.80163 18.2297 9.894C17.9813 10.0794 17.6105 10.2389 17.1475 10.1094C16.6921 9.98201 16.4806 9.71182 16.389 9.46582C16.3442 9.34554 16.329 9.23407 16.3249 9.15274C16.3228 9.11192 16.3236 9.0782 16.3249 9.05411C16.3255 9.04205 16.3263 9.03236 16.327 9.02534C16.3273 9.02183 16.3277 9.01898 16.3279 9.01684L16.3282 9.01415L16.3284 9.01321L16.3284 9.01285L16.3284 9.01269C16.3284 9.01262 16.3284 9.01255 16.4448 9.02842L16.3284 9.01255C16.3372 8.94813 16.3966 8.90303 16.461 8.91182C16.5254 8.9206 16.5705 8.97987 16.5617 9.04425C16.5617 9.04425 16.5617 9.04425 16.5617 9.04425Z" fill="#047857"/>
<path d="M18.4167 12.9972C18.4167 12.9972 17.983 13.3647 18.3165 13.7984C18.6501 14.2322 19.0498 14.065 19.0498 14.065" fill="#047857"/>
<path fill-rule="evenodd" clip-rule="evenodd" d="M18.4931 13.0868C18.4931 13.0868 18.493 13.0868 18.4929 13.0869L18.4908 13.0888C18.4887 13.0907 18.4853 13.0939 18.4808 13.0983C18.4717 13.1071 18.4585 13.1206 18.4434 13.1382C18.4128 13.1738 18.3761 13.224 18.3486 13.2841C18.2962 13.3989 18.2748 13.5511 18.4099 13.7267C18.5557 13.9163 18.7083 13.9674 18.8186 13.9771C18.8757 13.9821 18.9243 13.9761 18.9582 13.9691C18.975 13.9655 18.9879 13.9618 18.996 13.9592C19 13.9579 19.0028 13.9569 19.0043 13.9564L19.0053 13.956C19.0651 13.9315 19.1335 13.9598 19.1585 14.0195C19.1836 14.0795 19.1553 14.1485 19.0953 14.1736L19.0499 14.065C19.0953 14.1736 19.0952 14.1736 19.0952 14.1736L19.095 14.1737L19.0947 14.1738L19.0939 14.1741L19.092 14.1749L19.0863 14.1771C19.0817 14.1788 19.0756 14.1809 19.0681 14.1834C19.053 14.1882 19.032 14.1942 19.0062 14.1996C18.9547 14.2103 18.8825 14.219 18.798 14.2116C18.625 14.1965 18.411 14.1143 18.2232 13.8702C18.0247 13.6121 18.0534 13.3637 18.1344 13.1863C18.1737 13.1003 18.2246 13.0315 18.2649 12.9847C18.2852 12.961 18.3033 12.9424 18.3166 12.9295C18.3233 12.9229 18.3289 12.9178 18.333 12.9141L18.338 12.9097L18.3396 12.9083L18.3402 12.9078L18.3404 12.9076L18.3405 12.9075C18.3405 12.9074 18.3406 12.9074 18.4167 12.9972L18.3406 12.9074C18.3902 12.8654 18.4645 12.8715 18.5065 12.9211" fill="#047857"/>
<path d="M19.3504 15.2999C19.3504 15.2999 18.8191 14.8127 18.3828 15.4696C17.9465 16.1266 18.7503 16.6044 18.7503 16.6044" fill="#047857"/>
<path fill-rule="evenodd" clip-rule="evenodd" d="M19.4299 15.213C19.4299 15.2131 19.43 15.2131 19.3532 15.2969L19.43 15.2131C19.4779 15.2571 19.4811 15.3315 19.4372 15.3794C19.3934 15.4273 19.3191 15.4306 19.2712 15.387C19.2711 15.3869 19.271 15.3868 19.2709 15.3867L19.3504 15.3C19.2709 15.3867 19.2709 15.3867 19.2709 15.3867L19.271 15.3868L19.2711 15.3869L19.2709 15.3867L19.268 15.3842C19.2651 15.3817 19.2605 15.3779 19.2542 15.3729C19.2415 15.363 19.2225 15.349 19.1982 15.3338C19.149 15.3031 19.0819 15.2697 19.0058 15.2536C18.931 15.2377 18.8488 15.2387 18.7637 15.2745C18.6783 15.3104 18.5801 15.3854 18.4809 15.5348C18.3858 15.678 18.3623 15.8041 18.3733 15.9121C18.3846 16.0226 18.4331 16.1245 18.4983 16.2142C18.5634 16.3039 18.6419 16.3767 18.7053 16.4277C18.7368 16.453 18.7639 16.4724 18.7828 16.4852C18.7923 16.4916 18.7996 16.4964 18.8044 16.4994L18.8096 16.5027L18.8105 16.5032L18.8106 16.5033C18.8664 16.5365 18.8848 16.6087 18.8515 16.6646C18.8183 16.7205 18.7461 16.7388 18.6902 16.7056L18.7504 16.6044C18.6902 16.7056 18.6902 16.7056 18.6901 16.7056L18.69 16.7055L18.6897 16.7053L18.6889 16.7049L18.6865 16.7034L18.6785 16.6984C18.6717 16.6941 18.6622 16.6879 18.6505 16.68C18.6272 16.6641 18.5949 16.641 18.5579 16.6113C18.4842 16.5521 18.389 16.4645 18.3078 16.3526C18.2265 16.2407 18.1558 16.1 18.1391 15.936C18.1221 15.7697 18.1618 15.5897 18.2848 15.4045C18.4037 15.2254 18.5355 15.115 18.6725 15.0574C18.8097 14.9998 18.9421 14.9994 19.0546 15.0232C19.166 15.0468 19.259 15.0942 19.323 15.1342C19.3554 15.1544 19.3812 15.1734 19.3993 15.1875C19.4084 15.1946 19.4156 15.2006 19.4207 15.205L19.4269 15.2104L19.4289 15.2121L19.4295 15.2127L19.4298 15.2129L19.4299 15.213Z" fill="#047857"/>
<path opacity="0.1" d="M9.47253 10.0283C9.47253 10.0283 10.7737 11.1622 12.2734 9.89503Z" fill="#047857"/>
<path opacity="0.1" d="M7.57056 12.23C7.57056 12.23 8.13837 12.931 8.87169 12.0967Z" fill="#047857"/>
<path opacity="0.1" d="M6.9705 13.1975C6.9705 13.1975 7.30406 14.065 6.23633 13.9614Z" fill="#047857"/>
<path opacity="0.1" d="M6.30334 14.8322C6.30334 14.8322 6.97046 15.002 6.70311 15.6334Z" fill="#047857"/>
<path opacity="0.1" d="M13.1426 10.6623C13.1426 10.6623 13.1426 10.9959 13.8097 10.9959C14.4768 10.9959 14.3105 10.2617 14.3105 10.2617" fill="#047857"/>
<path opacity="0.1" d="M16.445 9.02846C16.445 9.02846 16.3449 9.76263 17.1792 9.99604C18.0135 10.2294 18.5134 9.42823 18.5134 9.42823" fill="#047857"/>
<path opacity="0.1" d="M18.4167 12.9972C18.4167 12.9972 17.983 13.3647 18.3165 13.7984C18.6501 14.2322 19.0498 14.065 19.0498 14.065" fill="#047857"/>
<path opacity="0.1" d="M19.3504 15.2999C19.3504 15.2999 18.8191 14.8127 18.3828 15.4696C17.9465 16.1266 18.7503 16.6044 18.7503 16.6044" fill="#047857"/>
<path d="M19.6514 11.9903C19.6514 15.4952 16.8101 18.3365 13.3053 18.3365M19.6514 11.9903C19.6514 8.48547 16.8101 5.6442 13.3053 5.6442M19.6514 11.9903H6.95911M13.3053 18.3365C9.80038 18.3365 6.95911 15.4952 6.95911 11.9903M13.3053 18.3365C14.4736 18.3365 15.4206 15.4952 15.4206 11.9903C15.4206 8.48547 14.4736 5.6442 13.3053 5.6442M13.3053 18.3365C12.137 18.3365 11.1899 15.4952 11.1899 11.9903C11.1899 8.48547 12.137 5.6442 13.3053 5.6442M6.95911 11.9903C6.95911 8.48547 9.80038 5.6442 13.3053 5.6442" stroke="#FAFAFA" stroke-linecap="round" stroke-linejoin="round"/>
</svg>
