<svg xmlns="http://www.w3.org/2000/svg" width="256" height="256"><path fill="#1976D2" fill-opacity=".016" fill-rule="evenodd" d="M0 128.004v128.004l128.25-.254 128.25-.254.254-127.75L257.008 0H0v128.004m.485.496c0 70.4.119 99.053.265 63.672.146-35.38.146-92.98 0-128C.604 29.153.485 58.1.485 128.5"/><path fill="#1976D2" fill-opacity=".271" fill-rule="evenodd" d="M110.211 1.538c-.733.83-3.042 1.462-5.346 1.462-2.231 0-5.251.607-6.711 1.348-9.338 4.743-10.065 4.971-11.658 3.649-1.224-1.016-2.109-1.039-4.155-.106-2.178.992-2.945.894-4.721-.603-1.166-.984-2.48-2.35-2.92-3.038-1.119-1.749-7.196-1.563-8.715.268-.84 1.012-1.063 3.177-.669 6.5.503 4.249.339 4.987-1.113 5.014-.937.017-2.577.692-3.644 1.5-1.068.807-3.248 1.468-4.846 1.468-1.597 0-4.099.607-5.559 1.348-1.46.742-4.391 2.189-6.513 3.217-6.634 3.211-13.84 9.212-17.642 14.693-6.761 9.743-8.367 11.025-12.869 10.264-2.18-.368-6.026-.36-8.547.018C.32 49.179 0 49.435 0 52.203c0 2.211 1.153 4.096 4.486 7.336 2.468 2.398 4.043 4.634 3.5 4.969-1.334.825-1.251 4.827.129 6.207.821.821.409 2.043-1.559 4.622-1.471 1.929-3.119 5.117-3.662 7.085C2.351 84.39 1.477 86 .953 86c-1.649 0-1.158 14.938.547 16.643.825.825 1.5 2.313 1.5 3.306 0 .993.675 2.366 1.5 3.051s1.5 1.868 1.5 2.629c0 .761 3.15 4.591 7 8.51 3.85 3.92 7 7.239 7 7.377 0 .138-.9.486-2 .774-1.416.37-2 1.364-2 3.405 0 2.191-1.078 3.782-4.5 6.643-3.36 2.809-4.5 4.469-4.5 6.553 0 2.566.441 2.89 5.492 4.02 3.021.676 6.336.961 7.368.633 2.648-.84 4.949 3.08 5.33 9.079.298 4.694.432 4.889 3.551 5.19 1.802.173 4.233-.382 5.473-1.25 2.752-1.928 8.173-2.033 10.011-.195.753.753 2.472 1.713 3.822 2.135 1.349.421 3.341 1.381 4.426 2.132 1.084.751 3.167 1.365 4.627 1.365 1.461 0 4.271.675 6.246 1.5 2.222.929 6.783 1.5 11.972 1.5 7.645 0 8.731.253 12.351 2.875 2.183 1.582 4.95 3.187 6.15 3.568 2.156.684 2.181.95 2.166 22.874-.015 23.322-1.272 33.132-4.732 36.956-.919 1.016-3.827 3.057-6.461 4.537-2.635 1.479-4.79 3.028-4.791 3.44-.001.412-1.036.75-2.301.75-1.265 0-2.805.505-3.422 1.122-1.781 1.781-.317 3.878 2.707 3.878 1.523 0 3.364.716 4.09 1.59 1.198 1.444 1.445 1.421 2.684-.25 1.324-1.785 1.407-1.784 2.755.035 1.396 1.884 4.486 1.647 4.486-.344 0-1.612 3.995-1.208 4.638.469.317.825 1.38 1.5 2.362 1.5.982 0 2.045-.675 2.362-1.5.494-1.289 4.946-1.5 31.607-1.5 28.018 0 34.363.507 29.531 2.362-3.308 1.269-1.232 2.638 4 2.638 3.025 0 5.5-.45 5.5-1s2.025-1 4.5-1 4.5.45 4.5 1 .675 1 1.5 1c.933 0 1.5-.944 1.5-2.5 0-1.578.565-2.5 1.531-2.5 2.09 0 3.089-2.994 1.365-4.086-.768-.486-2.971-.905-4.896-.93-1.925-.026-4.374-.708-5.441-1.516-1.068-.807-2.89-1.468-4.051-1.468-1.16 0-4.607-2.227-7.661-4.949l-5.553-4.948-.657-14.802c-.361-8.14-.926-20.426-1.254-27.301l-.596-12.5 5.249-3.876c3.9-2.88 6.69-4.081 10.857-4.674 20.706-2.949 20.119-2.807 29.823-7.239 1.588-.726 2.638-.662 3.707.225 1.199.995 1.935.926 3.757-.349 1.287-.902 4.291-1.587 6.959-1.587 5.398 0 6.439-1.37 3.712-4.885-2.5-3.222-2.389-3.864 1.649-9.544 1.925-2.708 3.503-5.631 3.506-6.497.004-.866.679-2.863 1.5-4.438.822-1.576 1.494-4.897 1.494-7.382 0-4.232.426-4.949 6.75-11.378 5.94-6.039 7.197-6.863 10.474-6.869 3.124-.006 3.975-.491 5.276-3.007.853-1.65 2.199-3 2.99-3 2.489 0 3.516-3.605 3.33-11.684l-.18-7.816-.57 7.414c-.497 6.467-.745 7.202-1.942 5.75-.755-.915-2.206-1.664-3.225-1.664-1.729 0-5.381-5.189-4.366-6.204 1.161-1.16-5.995-18.796-7.626-18.796-1.925 0-.786-3.528 1.839-5.695l2.75-2.271-2.283-1.796c-2.235-1.759-2.247-1.871-.579-5.267.938-1.909 2.109-3.742 2.603-4.073.494-.331.754-2.356.578-4.5L243.5 43.5l-5 .35c-2.75.192-6.624.905-8.608 1.584-3.292 1.126-3.796 1.039-5.75-.991-1.178-1.224-2.142-2.669-2.142-3.212 0-1.451-12.757-14.983-15.52-16.464-10.44-5.594-16.832-7.964-22.98-8.52-3.156-.286-5.66-1.152-6.789-2.35-.984-1.043-2.221-1.897-2.75-1.897-.529 0-.961-.907-.961-2.016 0-1.108-.56-3.808-1.243-6C170.696.588 170.102 0 167.723 0c-1.83 0-3.884 1.119-5.968 3.25-2.943 3.011-3.584 3.225-8.716 2.916-3.046-.184-6.536-.971-7.754-1.75S141.512 3 139.607 3c-1.905 0-4.139-.675-4.964-1.5-2.129-2.129-22.549-2.098-24.432.038M112 43.422c0 .233 1.529.928 3.399 1.545 2.691.888 4.096.817 6.75-.341l3.351-1.463-6.75-.081c-3.713-.045-6.75.108-6.75.34m19.497 1.574c1.343 1.484 2.141 1.72 3.107.918.715-.594 2.462-1.207 3.881-1.363 5.221-.573 3.662-1.551-2.473-1.551-6.255 0-6.303.021-4.515 1.996M101 47c0 .55.45 1 1 1s1-.45 1-1-.45-1-1-1-1 .45-1 1m48.5 0c.34.55 1.041 1 1.559 1s.941-.45.941-1-.702-1-1.559-1-1.281.45-.941 1m12.5 6c0 .55.477 1 1.059 1s.781-.45.441-1-.816-1-1.059-1-.441.45-.441 1m-20 10c0 .55.45 1 1 1s1-.45 1-1-.45-1-1-1-1 .45-1 1m-34.985 12.75c.011 2.001.258 2.366.908 1.341.49-.775.66-2.013.377-2.75-.811-2.115-1.301-1.577-1.285 1.409M145 78.441c0 1.343.45 2.719 1 3.059.583.361 1-.656 1-2.441 0-1.682-.45-3.059-1-3.059s-1 1.098-1 2.441m39.079.142c.048 1.165.285 1.402.604.605.289-.722.253-1.585-.079-1.917-.332-.332-.568.258-.525 1.312m-118.382 7.81c-.409 1.041-.508 2.129-.221 2.417.913.912 1.715-.583 1.333-2.482-.35-1.74-.404-1.737-1.112.065M.349 94c0 4.675.173 6.587.383 4.25.211-2.338.211-6.163 0-8.5-.21-2.338-.383-.425-.383 4.25M187 89.633c0 1.632-.54 3.507-1.2 4.167-.933.933-.933 1.467 0 2.4.66.66 1.229 2.573 1.263 4.25.053 2.543.195 2.718.856 1.05.902-2.276.684-13.23-.282-14.196-.35-.351-.637.698-.637 2.329M65.473 94.044c-.905 1.464.411 2.938 2.059 2.305C68.339 96.04 69 95.432 69 95c0-1.239-2.871-2.018-3.527-.956m79.224-.237c-1.428.285-1.56.653-.636 1.767 1.155 1.391 5.465 1.048 7.264-.579.946-.855-3.926-1.729-6.628-1.188M102 95c0 .55 1.8 1 4 1s4-.45 4-1-1.8-1-4-1-4 .45-4 1m-37 8.441c0 .793.45 1.719 1 2.059.55.34 1-.309 1-1.441 0-1.132-.45-2.059-1-2.059s-1 .648-1 1.441m80.667 5.226c-1.047 1.047-.779 5.333.333 5.333.55 0 1-1.35 1-3 0-3.107-.204-3.463-1.333-2.333M107.272 114c0 2.475.195 3.487.434 2.25.238-1.237.238-3.263 0-4.5-.239-1.237-.434-.225-.434 2.25m76.807-1.417c.048 1.165.285 1.402.604.605.289-.722.253-1.585-.079-1.917-.332-.332-.568.258-.525 1.312m-3.536 6.348c-.317.512-.118 1.213.441 1.559.559.345 1.016-.074 1.016-.931 0-1.757-.6-2.015-1.457-.628M177 124.059c0 .582.45.781 1 .441s1-.816 1-1.059-.45-.441-1-.441-1 .477-1 1.059m-35 3c0 1.132.45 1.781 1 1.441.55-.34 1-1.266 1-2.059 0-.793-.45-1.441-1-1.441s-1 .927-1 2.059m-32 1.882c0 1.132.45 2.059 1 2.059s1-.648 1-1.441-.45-1.719-1-2.059c-.55-.34-1 .309-1 1.441m3.5 8.059c.34.55.816 1 1.059 1s.441-.45.441-1-.477-1-1.059-1-.781.45-.441 1m44.5 3.059c0 .582.45.781 1 .441s1-.816 1-1.059-.45-.441-1-.441-1 .477-1 1.059m-41 3.834c0 2.49 3.51 4.709 4.616 2.919.406-.657.2-1.373-.457-1.592-.657-.219-1.862-1.066-2.677-1.881-1.309-1.309-1.482-1.245-1.482.554M109 146c0 .55.927 1 2.059 1 1.132 0 1.781-.45 1.441-1-.34-.55-1.266-1-2.059-1-.793 0-1.441.45-1.441 1m22.5 0c-.34.55.309 1 1.441 1 1.132 0 2.059-.45 2.059-1s-.648-1-1.441-1-1.719.45-2.059 1m9 0c-1.772.762-1.687.867.75.93 1.512.038 2.75-.38 2.75-.93 0-1.174-.769-1.174-3.5 0"/><path fill="#1976D2" fill-opacity=".344" fill-rule="evenodd" d="M163 4.044c-3.086 3.43-4.032 3.888-8 3.879-2.475-.006-6.3-.706-8.5-1.556-6.203-2.395-21.386-4.578-27.5-3.953-11.838 1.211-15.576 1.765-17.5 2.594-9.479 4.087-11.61 4.67-17.266 4.724-3.916.037-6.529-.398-6.993-1.165-1.3-2.147-6.958-4.89-8.704-4.22-1.335.513-1.628 1.726-1.41 5.838.27 5.097.205 5.231-3.676 7.459-2.173 1.248-5.162 2.289-6.642 2.313-1.48.023-2.948.458-3.261.966-.314.508-1.975 1.231-3.691 1.608-5.045 1.109-14.092 6.944-19.153 12.355-2.587 2.765-4.713 5.385-4.723 5.821-.011.436-1.586 2.588-3.5 4.782C20.566 47.683 19 49.865 19 50.337c0 .473-2.679.548-5.954.168C6.434 49.738 0 51.253 0 53.578 0 54.36.48 55 1.067 55s2.696 1.688 4.686 3.75c3.148 3.262 3.646 4.447 3.828 9.106.171 4.407-.285 6.091-2.574 9.5-4.033 6.007-5.457 14.05-4.008 22.641.64 3.791 1.802 7.423 2.582 8.07.78.648 1.419 1.827 1.419 2.62 0 .793 3.42 4.818 7.6 8.944 4.18 4.126 7.443 7.636 7.25 7.8-.192.164-1.368.828-2.613 1.476-1.79.931-2.059 1.558-1.287 2.999 1.046 1.954.432 2.788-5.58 7.577-3.908 3.113-4.864 6.182-2.346 7.53 1.015.543 4.558.987 7.875.987 7.143 0 8.445 1.448 8.541 9.5.056 4.69.215 4.991 2.56 4.856 1.375-.078 4.42-.866 6.768-1.751l4.267-1.607 8.344 4.001c4.589 2.2 9.419 4.008 10.732 4.016 1.314.008 4.189.664 6.389 1.456 2.2.793 7.455 1.461 11.679 1.485 4.771.027 8.178.523 9 1.309.726.695 3.421 2.362 5.987 3.703 3.252 1.7 4.819 3.211 5.173 4.986.279 1.4.133 13.626-.324 27.169-.662 19.582-1.165 25.267-2.459 27.769-1.806 3.493-7.372 7.872-14.212 11.183-5.356 2.594-4.56 4.39 1.933 4.36 2.441-.012 4.667.563 5.276 1.363.886 1.164 1.261 1.131 2.372-.208 1.74-2.097 5.037-2.024 6.624.147 1.206 1.649 1.367 1.649 3.189 0 1.736-1.571 4.895-1.737 33.034-1.737h31.115l1.772 3c1.981 3.353 2.856 3.707 3.703 1.5.339-.885 1.841-1.5 3.661-1.5 1.698 0 5.2-.984 7.782-2.186l4.695-2.187-4.992-.877c-2.745-.483-5.705-1.524-6.578-2.314-.873-.79-2.404-1.436-3.401-1.436-2.89 0-12.247-8.617-13.509-12.44-.619-1.875-1.477-14.581-1.906-28.235l-.781-24.825 3.083-2.723c1.696-1.498 3.647-2.735 4.334-2.75.688-.015 1.25-.375 1.25-.8 0-1.835 7.106-4.174 14.5-4.772 7.922-.64 20.836-3.816 23.252-5.718.689-.542 2.584-.72 4.212-.394 1.627.325 3.227.156 3.556-.376.329-.532 2.746-.967 5.372-.967s5.061-.287 5.412-.637c.35-.351-.25-1.883-1.334-3.404-1.083-1.522-1.97-3.041-1.97-3.375 0-.333 1.717-3.189 3.815-6.345 4.062-6.11 7.185-14.854 7.185-20.116 0-2.359.988-4.203 3.75-6.999a302.945 302.945 0 0 0 7.111-7.493c2.403-2.641 3.901-3.524 5.25-3.096 2.759.876 5.597-.311 6.193-2.589.286-1.094 1.937-2.483 3.67-3.087l3.15-1.098-2.236-2.38c-1.23-1.31-2.836-2.381-3.569-2.381-2.625 0-5.753-4.969-6.057-9.619-.29-4.443-2.692-10.281-6.393-15.535-2.541-3.61-2.348-5.714.631-6.846 3.01-1.144 3.195-2.557.524-3.987-1.924-1.03-1.898-1.202 1-6.558 4.13-7.634 3.982-9.454-.774-9.46-2.062-.003-5.822.738-8.355 1.645-4.43 1.588-4.68 1.575-6.596-.341-1.095-1.095-3.37-3.973-5.055-6.395-3.506-5.038-10.92-12.483-14.39-14.45C197.693 21.395 185.519 17 181.439 17c-1.443 0-3.768-.9-5.166-2-1.399-1.1-3.157-2-3.908-2-.82 0-1.369-1.098-1.376-2.75-.006-1.512-.29-4.437-.631-6.5-.803-4.858-2.793-4.778-7.358.294m-48.283 37.884c-3.73.406-7.308 1.263-7.95 1.905-.642.642-2.395 1.167-3.896 1.167-1.5 0-3.403.675-4.228 1.5-.825.825-2.042 1.5-2.704 1.5-1.39 0-7.603 3.707-9.995 5.964-.895.845-3.753 3.27-6.35 5.389-2.597 2.12-5.132 4.932-5.633 6.25C73.46 66.921 72.588 68 72.025 68c-.564 0-1.025.845-1.025 1.878 0 1.032-.675 2.437-1.5 3.122s-1.503 1.752-1.506 2.372c-.004.621-.776 2.478-1.718 4.128-2.534 4.444-2.554 27.901-.026 31.473.963 1.359 1.75 3.272 1.75 4.25 0 .977.42 1.777.933 1.777.513 0 1.242 1.012 1.622 2.25.764 2.496 6.573 10.004 10.445 13.502 4.014 3.625 16.074 10.72 21.5 12.647 2.75.977 8.375 2.221 12.5 2.765 9.703 1.28 29.738.228 32.715-1.717 1.218-.796 2.709-1.447 3.314-1.447 1.23 0 10.443-4.31 13.355-6.247 1.035-.689 3.273-2.49 4.972-4.003 1.7-1.512 3.413-2.75 3.808-2.75.947 0 9.836-11.57 9.836-12.802 0-.524.675-1.513 1.5-2.198s1.5-2.112 1.5-3.172.707-3.294 1.57-4.964c2.214-4.28 2.225-23.158.017-27.364-.866-1.65-1.577-3.732-1.581-4.628-.003-.895-.637-2.151-1.408-2.791-.771-.639-1.679-2.27-2.019-3.622-.339-1.352-1.059-2.459-1.598-2.459-.54 0-.981-.537-.981-1.193C180 63.613 160.718 48 156.773 48c-.975 0-1.773-.441-1.773-.981 0-.539-1.238-1.257-2.75-1.594-1.512-.337-4.1-1.2-5.75-1.917-3.732-1.624-22.702-2.566-31.783-1.58m-4.217 3.796c-1.1.27-2.45.831-3 1.246-.55.415-2.35 1.057-4 1.427-2.852.639-8.762 3.248-10.973 4.845-11.015 7.953-21.425 19.232-21.493 23.285-.019 1.116-.659 2.921-1.424 4.012-.764 1.091-1.552 4.229-1.75 6.973L67.5 92.5l17.5.247c9.759.139 18.152-.17 18.975-.697 1.104-.708 1.614-3.893 2.031-12.675.375-7.907.954-11.862 1.775-12.135.673-.225 1.219-2.106 1.219-4.201 0-2.153.649-4.333 1.5-5.039.825-.685 1.5-1.924 1.5-2.754 0-.831.965-3.071 2.144-4.98 1.776-2.873 1.905-3.621.75-4.352-.767-.486-1.619-.838-1.894-.783-.275.056-1.4.322-2.5.593m9.48 2.297c-3.264 3.494-6.498 9.946-7.508 14.979-.387 1.925-1.115 4.012-1.618 4.639-.963 1.199-2.913 23.321-2.169 24.611.238.412 8.296.75 17.905.75 14.796 0 17.563-.235 18.063-1.537 1.352-3.525-2.703-28.289-5.428-33.147-.674-1.202-1.225-2.836-1.225-3.633 0-.796-1.853-3.301-4.118-5.565-5.297-5.297-9.657-5.641-13.902-1.097m18.77-2.332c-.963.252-1.75.628-1.75.837 0 1.219 2.457 5.474 3.161 5.474.461 0 .839.677.839 1.504s.9 3.182 2 5.235c1.1 2.052 2 5.005 2 6.562 0 1.557.55 3.813 1.223 5.015.673 1.201 1.46 6.684 1.75 12.184l.527 10 18.852.272 18.853.273-.479-4.273c-.629-5.613-3.158-12.141-6.79-17.522-1.615-2.393-2.936-4.553-2.936-4.8C176 65.102 163.778 55 162.147 55c-.631 0-1.147-.41-1.147-.911 0-1.071-7.22-4.66-11.433-5.685-1.614-.392-4.089-1.316-5.5-2.052-1.412-.737-2.792-1.29-3.067-1.23-.275.061-1.287.316-2.25.567M68.032 102.25c.018 3.022.655 6.074 1.5 7.191.807 1.068 1.468 2.773 1.468 3.791 0 2.525 3.322 7.066 10.729 14.667 5.974 6.131 8.172 7.83 12.924 9.996 1.184.54 2.448 1.459 2.809 2.043.361.584 1.654 1.062 2.875 1.062 1.22 0 3.106.609 4.19 1.352 1.085.744 3.897 1.651 6.248 2.016 5.183.805 6.758-1.291 3.353-4.463-1.17-1.091-2.142-2.753-2.16-3.694-.017-.941-.692-2.585-1.5-3.652-.807-1.068-1.468-3.154-1.468-4.636 0-1.482-.672-3.983-1.494-5.559-1.001-1.92-1.496-5.839-1.5-11.891C105.997 96.571 106.651 97 85.443 97H68l.032 5.25m40.673-4.523c-1.014 1.778 1.236 23.929 2.72 26.775.859 1.649 1.565 4.18 1.569 5.626.003 1.445.681 3.187 1.506 3.872s1.5 1.935 1.5 2.778c0 2.051 7.403 9.222 9.52 9.222 3.096 0 8.638-3.284 9.538-5.653.491-1.291 1.354-2.347 1.917-2.347.564 0 1.025-1.039 1.025-2.309 0-1.27.661-3.182 1.468-4.25.808-1.067 1.485-3.066 1.506-4.441.021-1.375.674-3.719 1.451-5.209.884-1.694 1.538-6.752 1.744-13.5L144.5 97.5l-17.677-.273c-9.722-.15-17.875.075-18.118.5m39.836.523c-.218.688-.586 5.885-.819 11.55-.24 5.86-.918 10.796-1.572 11.45-.633.633-1.15 2.438-1.15 4.012 0 2.61-3.456 10.888-6.201 14.852-.614.888-.85 2.311-.523 3.164.715 1.862 8.015 1.259 11.197-.924 1.084-.745 2.717-1.354 3.627-1.354.91 0 2.215-.675 2.9-1.5s1.913-1.5 2.729-1.5c3.48 0 18.469-14.139 20.865-19.682.757-1.75 1.833-3.464 2.391-3.809.558-.345 1.029-1.613 1.047-2.818.017-1.205.692-3.065 1.5-4.132.807-1.068 1.468-3.88 1.468-6.25V97h-18.531c-13.948 0-18.63.309-18.928 1.25M161.5 255c-.34.55.11 1 1 1s1.34-.45 1-1c-.34-.55-.79-1-1-1-.21 0-.66.45-1 1"/><path fill="#1976D2" fill-opacity=".233" fill-rule="evenodd" d="M167.54 1.873c-.353 1.114-1.479 2.29-2.502 2.615-1.022.324-2.585 1.697-3.472 3.051-2.213 3.377-8.203 3.292-16.626-.237-6.118-2.563-7.265-2.697-22.94-2.689l-16.5.009L98 7.955c-6.298 2.799-8.541 3.301-14 3.135-3.633-.11-6.941-.731-7.5-1.407C75.073 7.955 70.281 5 68.908 5c-.79 0-1.011 1.581-.688 4.938.261 2.716.206 5.36-.123 5.875C67.072 17.421 59.638 21 57.324 21c-1.213 0-2.463.415-2.776.923-.314.508-1.975 1.231-3.691 1.608-6.916 1.519-23.801 14.164-23.88 17.884-.013.597-1.588 2.822-3.5 4.945C21.565 48.484 20 50.621 20 51.11c0 .49-3.573.89-7.941.89s-8.172.373-8.454.829c-.728 1.179 3.552 7.038 5.645 7.729 1.207.398 1.75 1.624 1.75 3.95 0 1.856.41 3.627.912 3.937.993.614-.872 6.555-2.059 6.555-.389 0-1.916 2.553-3.392 5.674-2.434 5.145-2.647 6.521-2.287 14.758.374 8.558.619 9.417 4.234 14.863 2.11 3.179 6.481 8.081 9.714 10.893 3.233 2.811 5.878 5.506 5.878 5.987 0 .481-1.117 1.299-2.481 1.818-2.094.796-2.39 1.404-1.892 3.894.522 2.608.141 3.235-3.283 5.396-9 5.682-8.477 8.717 1.502 8.717 8.42 0 9.649 1.101 9.665 8.653.006 2.94.231 5.383.5 5.428 1.147.193 6.709-1.473 9.33-2.794 2.503-1.262 3.047-1.245 4.579.14.955.865 2.434 1.573 3.286 1.573.852 0 2.109.675 2.794 1.5s2.004 1.5 2.931 1.5c.928 0 2.56.661 3.628 1.468 1.067.808 3.599 1.483 5.626 1.5 2.027.018 4.841.472 6.254 1.009 1.414.537 6.281 1.271 10.816 1.631 4.535.36 8.92 1.206 9.745 1.879.825.673 3.697 2.298 6.382 3.612 2.686 1.313 5.317 3.342 5.849 4.508.895 1.965.599 8.743-2.127 48.759-.601 8.818-.626 8.886-4.604 12.351-2.2 1.917-4.9 3.914-6 4.438-10.437 4.976-10.212 5.755 1.5 5.186 6.272-.305 7.714-.076 8.808 1.397 1.244 1.677 1.356 1.677 2.299.012.913-1.61 3.583-1.75 33.456-1.75 23.696 0 32.988.327 34.405 1.212 2.286 1.428 2.645 1.179 3.559-2.464.507-2.021.318-2.748-.715-2.748-.773 0-2.437-.787-3.698-1.75-11.948-9.118-11.847-8.792-12.592-40.349l-.605-25.6 8.319-5.65 8.319-5.651 7.972-.035c5.018-.023 8.899-.565 10.473-1.465 1.375-.786 3.535-1.445 4.8-1.465 1.264-.019 3.648-.732 5.296-1.585 1.791-.926 6.276-1.665 11.146-1.837 8.685-.307 10.294-1.318 6.825-4.287-2.347-2.01-2.647-3.855-.817-5.026 3.355-2.147 8.434-13.128 9.214-19.923.671-5.845 3.514-12.377 5.388-12.377.484 0 2.509-2.091 4.5-4.646 4.713-6.049 7.137-7.739 9.336-6.509 1.299.727 2.302.308 4.256-1.782 1.406-1.503 3.231-3.019 4.056-3.368 1.254-.53 1.183-.844-.433-1.915-1.064-.704-3.426-2.728-5.25-4.497-2.869-2.782-3.317-3.88-3.317-8.127 0-3.146-.539-5.359-1.5-6.156-.825-.685-1.5-2.029-1.5-2.987 0-.958-1.355-3.265-3.011-5.127-3.867-4.349-3.75-8.241.261-8.702 3.335-.384 3.406-.832.5-3.187l-2.25-1.824 2.25-3.046c1.238-1.675 2.25-3.713 2.25-4.527 0-.815.45-1.76 1-2.1.55-.34 1-1.266 1-2.059 0-1.941-6.842-1.875-9.441.091-3.584 2.71-6.985 1.815-11.432-3.01-2.27-2.462-4.127-4.986-4.127-5.608C217 37.236 206.458 27 204.731 27c-.817 0-2.046-.675-2.731-1.5s-1.942-1.5-2.794-1.5c-.852 0-2.259-.625-3.127-1.389-.869-.763-3.604-1.858-6.079-2.433-9.406-2.183-13.552-3.509-15.079-4.821-.868-.746-2.331-1.357-3.25-1.357s-1.711-.338-1.759-.75c-.049-.412-.284-3.423-.524-6.69-.485-6.62-.9-7.673-1.848-4.687M120 40c-1.375.44-4.525.848-7 .906-2.475.059-5.789.779-7.364 1.6-1.576.822-3.291 1.494-3.812 1.494-2.06 0-13.568 6.134-16.885 9-.954.825-3.356 2.784-5.336 4.353C76.182 60.064 70 68.159 70 69.928c0 .455-.675 1.387-1.5 2.072S67 74.035 67 75c0 .965-.675 2.315-1.5 3S64 80.655 64 82.379c0 1.724-.466 4.706-1.036 6.628-1.843 6.214.883 21.453 5.185 28.993.471.825 1.289 2.5 1.818 3.721C71.405 125.043 85.445 139 87.348 139c.909 0 1.652.338 1.652.752 0 .692 5.12 3.465 12.5 6.772 12.626 5.657 38.452 5.558 50.5-.193a456.117 456.117 0 0 1 7-3.251c5.851-2.642 17.61-12.093 20.127-16.177 1.305-2.117 2.679-3.861 3.053-3.876.374-.015 1.667-2.165 2.874-4.777s2.838-5.987 3.626-7.498c1.015-1.949 1.44-6.421 1.463-15.38.032-12.497-.371-14.501-4.292-21.372-.471-.825-1.288-2.497-1.816-3.717C182.059 65.722 167.689 51 165.212 51c-.532 0-1.527-.675-2.212-1.5-.685-.825-2.035-1.5-3-1.5-.965 0-2.279-.631-2.919-1.402-.639-.771-2.382-1.686-3.872-2.034-1.49-.348-4.059-1.252-5.709-2.008-2.981-1.365-17.868-3.647-22.552-3.456-1.346.055-3.573.46-4.948.9m-9.013 7.552c-1.368.758-3.501 1.393-4.741 1.413-1.239.019-3.932.935-5.985 2.035-2.052 1.1-4.263 2-4.913 2-.65 0-1.331.337-1.515.75-.372.838-6.469 5.25-7.254 5.25C85.952 59 78 66.99 78 67.62c0 .755-4.437 6.852-5.25 7.213-.412.184-.753 1.309-.756 2.5-.004 1.192-.605 3.314-1.337 4.716-1.749 3.353-2.757 9.75-1.598 10.142.503.17 8.285.176 17.293.014l16.378-.296.62-5.704c1.641-15.099 2.529-20.484 3.545-21.5.608-.608 1.12-2.027 1.139-3.155.019-1.127.903-3.85 1.966-6.05 1.063-2.2 1.947-4.4 1.966-4.89.019-.489.777-1.433 1.685-2.097 2.431-1.777.239-2.567-2.664-.961m9.231 2.198c-1.623 2.063-3.297 4.875-3.719 6.25-.423 1.375-1.383 3.388-2.134 4.473-.751 1.084-1.365 3.236-1.365 4.782 0 1.545-.675 4.425-1.5 6.399-.926 2.216-1.5 6.778-1.5 11.92v8.331l16.014.297c8.807.164 16.457.148 17-.035 1.489-.504 1.182-12.605-.429-16.897-.778-2.073-1.674-5.623-1.991-7.888-.316-2.264-1.252-5.414-2.078-7-.827-1.585-1.507-3.557-1.511-4.382-.004-.825-1.706-3.413-3.781-5.75-5.065-5.706-8.797-5.85-13.006-.5M139 47.378c0 .757.675 1.937 1.5 2.622.825.685 1.5 2 1.5 2.922 0 .923.415 2.105.921 2.628 2.146 2.213 5.07 13.924 6.127 24.538.625 6.276 1.217 11.496 1.314 11.599.509.534 33.798.486 34.334-.05 1.269-1.269-4.216-16.031-8.226-22.137-3.776-5.75-18.076-17.464-21.401-17.532-.863-.017-2.443-.692-3.51-1.5-1.068-.807-3.093-1.482-4.5-1.5-1.408-.017-3.433-.692-4.5-1.5-2.428-1.836-3.559-1.865-3.559-.09M69.035 101.75c.02 2.063.679 4.875 1.465 6.25s1.445 3.306 1.465 4.29c.035 1.766 3.826 7.895 5.285 8.543.412.184.75.814.75 1.401C78 123.606 88.702 134 90.115 134c.588 0 2.214.9 3.612 2 1.399 1.1 3.157 2 3.908 2 .751 0 1.365.414 1.365.921 0 .506 1.463 1.214 3.25 1.574 1.787.36 4.744 1.332 6.57 2.16 1.826.828 4.076 1.212 5 .854 1.559-.605 1.554-.745-.07-1.941-.963-.709-1.75-1.926-1.75-2.706 0-.779-.593-2.305-1.318-3.389-2.37-3.549-4.923-11.588-5.825-18.345l-1.42-10.628c-1.255-9.389.624-8.5-17.956-8.5H69l.035 3.75M110 106.508c0 5.343.563 9.904 1.5 12.146.825 1.975 1.5 4.604 1.5 5.844 0 3.165 4.29 12.504 7.491 16.309 3.65 4.337 9.353 4.541 12.426.443 1.133-1.512 2.446-3.218 2.915-3.79.47-.572 1.119-2.147 1.441-3.5.323-1.353 1.243-4.485 2.044-6.96 2.995-9.255 4.801-18.703 4.497-23.523L143.5 98.5l-16.75-.274-16.75-.274v8.556m40.497-7.258c-.242.688-.904 5.916-1.47 11.62-.567 5.703-1.787 12.678-2.713 15.5-2.202 6.714-5.253 13.474-6.401 14.183-.502.311-.913 1.249-.913 2.085 0 1.192.704 1.37 3.25.826 1.787-.382 3.7-1.031 4.25-1.442.55-.41 2.292-1.055 3.871-1.433 1.579-.378 3.523-1.341 4.321-2.138.798-.798 2.319-1.451 3.379-1.451 1.061 0 1.929-.378 1.929-.839 0-.462 1.032-1.31 2.293-1.885 4.055-1.847 13.496-11.214 15.683-15.56 1.168-2.319 2.487-4.891 2.933-5.716 1.264-2.34 4.091-11.588 4.091-13.384 0-1.425-2.017-1.616-17.031-1.616-12.724 0-17.143.316-17.472 1.25"/></svg>