<svg width="32" height="32" viewBox="0 0 32 32" fill="none" xmlns="http://www.w3.org/2000/svg">
<path d="M19.9999 22.6667H26.6666L24.7933 20.7934C24.2853 20.2854 23.9999 19.5964 23.9999 18.8779V14.6667C23.9999 11.1834 21.7738 8.22012 18.6666 7.12189V6.66667C18.6666 5.19391 17.4727 4 15.9999 4C14.5272 4 13.3333 5.19391 13.3333 6.66667V7.12189C10.2261 8.22012 7.99992 11.1834 7.99992 14.6667V18.8779C7.99992 19.5964 7.71452 20.2854 7.2065 20.7934L5.33325 22.6667H11.9999M19.9999 22.6667V24C19.9999 26.2091 18.2091 28 15.9999 28C13.7908 28 11.9999 26.2091 11.9999 24V22.6667M19.9999 22.6667H11.9999" stroke="#525252" stroke-width="2" stroke-linecap="round" stroke-linejoin="round"/>
</svg>
