<svg width="298" height="292" viewBox="0 0 298 292" fill="none" xmlns="http://www.w3.org/2000/svg">
<path d="M242.052 253.421C242.052 253.421 213.741 203.735 220.277 191.062C226.813 178.389 243.501 201.175 243.501 201.175C243.501 201.175 228.987 154.833 236.972 134.587C244.957 114.342 258.747 134.587 259.472 148.915C260.196 163.244 256.566 187.678 256.566 187.678C256.566 187.678 262.377 137.147 276.167 152.286C289.956 167.426 258.747 218.01 258.747 218.01C258.747 218.01 279.797 206.215 279.066 221.381C278.334 236.546 253.667 250.03 253.667 250.03" fill="#10B981"/>
<path d="M242.291 244.153C242.291 244.153 216.095 219.712 228.861 208.761C241.626 197.811 248.342 220.556 248.342 220.556C248.342 220.556 234.233 150.617 257.072 148.084C279.91 145.551 263.115 208.754 263.115 208.754C263.115 208.754 282.596 181.794 281.253 203.735C279.91 225.676 251.028 244.186 251.028 244.186" stroke="#263238" stroke-miterlimit="10"/>
<path d="M255.157 239.705L237.458 220.523" stroke="#263238" stroke-miterlimit="10"/>
<path d="M251.473 241.181L256.267 185.111" stroke="#263238" stroke-miterlimit="10"/>
<path d="M250.735 237.118L266.593 216.095" stroke="#263238" stroke-miterlimit="10"/>
<path d="M273.673 233.209H224.705L229.605 290.967H268.773L273.673 233.209Z" fill="#263238"/>
<path d="M86.7363 166.229C80.3696 163.105 73.7883 160.439 67.0426 158.25C57.3221 155.258 45.8529 157.998 45.6003 161.236C45.3476 164.474 47.0763 162.991 49.3436 166.501C51.6108 170.012 50.5869 178.217 53.8315 185.697C57.0761 193.176 66.79 196.913 66.79 196.913L86.7363 166.229Z" fill="#10B981" stroke="#263238" stroke-linecap="round" stroke-linejoin="round"/>
<path opacity="0.3" d="M80.2538 173.463C80.2538 173.463 65.294 163.988 56.5708 160.744C47.8476 157.499 47.3489 162.24 47.3489 162.24C48.7841 162.766 50.0156 163.734 50.8672 165.003C51.7188 166.273 52.1466 167.78 52.0895 169.307C52.0895 174.905 54.8887 186.501 61.6904 188.895C68.4921 191.288 80.2538 173.463 80.2538 173.463Z" fill="#171717"/>
<path d="M186.997 184.049C190.907 182.564 192.784 177.957 191.189 173.758C189.594 169.56 185.132 167.361 181.222 168.846C177.312 170.331 175.435 174.939 177.03 179.137C178.625 183.335 183.087 185.534 186.997 184.049Z" fill="#10B981" stroke="#263238" stroke-linecap="round" stroke-linejoin="round"/>
<path d="M79.8083 263.454L88.1991 288.626C88.4266 289.308 88.8632 289.901 89.4467 290.322C90.0303 290.742 90.7313 290.967 91.4503 290.967H104.528C105.198 290.968 105.852 290.772 106.411 290.405C106.97 290.037 107.409 289.514 107.673 288.899L113.524 275.322" fill="#10B981"/>
<mask id="mask0_46_521" style="mask-type:luminance" maskUnits="userSpaceOnUse" x="79" y="263" width="35" height="28">
<path d="M79.8083 263.454L88.1991 288.626C88.4266 289.308 88.8632 289.901 89.4467 290.322C90.0303 290.742 90.7313 290.967 91.4503 290.967H104.528C105.198 290.968 105.852 290.772 106.411 290.405C106.97 290.037 107.409 289.514 107.673 288.899L113.524 275.322" fill="white"/>
</mask>
<g mask="url(#mask0_46_521)">
<path opacity="0.3" d="M84.017 263.454L90.9583 288.626C91.0896 289.258 91.4249 289.83 91.9127 290.252C92.4004 290.675 93.0135 290.926 93.6577 290.967H104.502C105.097 290.936 105.669 290.72 106.136 290.35C106.603 289.979 106.943 289.472 107.108 288.899L111.962 275.322" fill="#171717"/>
</g>
<path d="M79.8083 263.454L88.1991 288.626C88.4266 289.308 88.8632 289.901 89.4467 290.322C90.0303 290.742 90.7313 290.967 91.4503 290.967H104.528C105.198 290.968 105.852 290.772 106.411 290.405C106.97 290.037 107.409 289.514 107.673 288.899L113.524 275.322" stroke="#263238" stroke-linecap="round" stroke-linejoin="round"/>
<path d="M142.919 263.454L134.534 288.626C134.307 289.308 133.87 289.901 133.287 290.322C132.703 290.742 132.002 290.967 131.283 290.967H118.218C117.549 290.968 116.895 290.772 116.336 290.405C115.776 290.037 115.338 289.514 115.073 288.899L109.222 275.322" fill="#263238"/>
<path d="M142.919 263.454L134.534 288.626C134.307 289.308 133.87 289.901 133.287 290.322C132.703 290.742 132.002 290.967 131.283 290.967H118.218C117.549 290.968 116.895 290.772 116.336 290.405C115.776 290.037 115.338 289.514 115.073 288.899L109.222 275.322" stroke="#263238" stroke-linecap="round" stroke-linejoin="round"/>
<path d="M170.704 263.454L162.313 288.626C162.085 289.308 161.649 289.901 161.065 290.322C160.482 290.742 159.781 290.967 159.062 290.967H145.984C145.315 290.968 144.66 290.772 144.101 290.405C143.542 290.037 143.103 289.514 142.839 288.899L136.988 275.322" fill="#10B981"/>
<mask id="mask1_46_521" style="mask-type:luminance" maskUnits="userSpaceOnUse" x="136" y="263" width="35" height="28">
<path d="M170.704 263.454L162.313 288.626C162.085 289.308 161.649 289.901 161.065 290.322C160.482 290.742 159.781 290.967 159.062 290.967H145.984C145.315 290.968 144.66 290.772 144.101 290.405C143.542 290.037 143.103 289.514 142.839 288.899L136.988 275.322" fill="white"/>
</mask>
<g mask="url(#mask1_46_521)">
<path opacity="0.3" d="M164.76 263.454L159.022 288.626C158.703 290.023 157.812 290.967 156.801 290.967H147.859C146.928 290.967 146.083 290.155 145.711 288.899L140.153 275.601" fill="#171717"/>
</g>
<path d="M170.704 263.454L162.313 288.626C162.085 289.308 161.649 289.901 161.065 290.322C160.482 290.742 159.781 290.967 159.062 290.967H145.984C145.315 290.968 144.66 290.772 144.101 290.405C143.542 290.037 143.103 289.514 142.839 288.899L136.988 275.322" stroke="#263238" stroke-linecap="round" stroke-linejoin="round"/>
<path d="M125.864 280.016C165.585 280.016 197.784 250.814 197.784 214.792C197.784 178.769 165.585 149.567 125.864 149.567C86.1441 149.567 53.9445 178.769 53.9445 214.792C53.9445 250.814 86.1441 280.016 125.864 280.016Z" fill="#10B981"/>
<mask id="mask2_46_521" style="mask-type:luminance" maskUnits="userSpaceOnUse" x="53" y="149" width="145" height="132">
<path d="M125.864 280.016C165.585 280.016 197.784 250.814 197.784 214.792C197.784 178.769 165.585 149.567 125.864 149.567C86.1441 149.567 53.9445 178.769 53.9445 214.792C53.9445 250.814 86.1441 280.016 125.864 280.016Z" fill="white"/>
</mask>
<g mask="url(#mask2_46_521)">
<path opacity="0.3" d="M175.398 170.225C179.615 178.589 181.813 187.825 181.814 197.192C181.814 233.215 149.614 262.417 109.894 262.417C95.1128 262.492 80.6248 258.294 68.1729 250.329C80.7125 267.157 101.942 278.254 126.017 278.254C164.58 278.254 195.83 249.924 195.83 214.971C195.79 197.478 187.984 181.674 175.398 170.225Z" fill="#171717"/>
</g>
<path d="M125.864 280.016C165.585 280.016 197.784 250.814 197.784 214.792C197.784 178.769 165.585 149.567 125.864 149.567C86.1441 149.567 53.9445 178.769 53.9445 214.792C53.9445 250.814 86.1441 280.016 125.864 280.016Z" stroke="#263238" stroke-linecap="round" stroke-linejoin="round"/>
<path d="M191.734 220.642C190.165 233.78 184.108 245.702 174.986 255.116" stroke="#10B981" stroke-width="2" stroke-linecap="round" stroke-linejoin="round"/>
<path d="M190.544 200.41C191.605 204.811 192.14 209.321 192.139 213.847" stroke="#10B981" stroke-width="2" stroke-linecap="round" stroke-linejoin="round"/>
<path d="M108.032 153.636C113.958 152.251 120.025 151.555 126.11 151.562C130.007 151.561 133.898 151.845 137.752 152.413" stroke="#263238" stroke-width="4" stroke-linecap="round" stroke-linejoin="round"/>
<path d="M139.973 199.167C139.973 199.167 146.954 194.426 147.207 185.703C147.46 176.98 135.984 164.267 126.762 159.028C117.54 153.789 110.805 154.793 110.559 158.53C110.313 162.266 107.068 166.508 105.825 173.735C104.582 180.963 104.076 191.687 113.804 195.178" fill="#10B981"/>
<path d="M139.973 199.167C139.973 199.167 146.954 194.426 147.207 185.703C147.46 176.98 135.984 164.267 126.762 159.028C117.54 153.789 110.805 154.793 110.559 158.53C110.313 162.266 107.068 166.508 105.825 173.735C104.582 180.963 104.076 191.687 113.804 195.178" stroke="#263238" stroke-linecap="round" stroke-linejoin="round"/>
<path opacity="0.3" d="M124.954 196.368L126.383 196.581C132.513 197.465 134.667 193.462 134.488 187.452C134.242 178.975 123.025 161.023 118.285 158.53C113.544 156.036 112.055 159.527 112.055 159.527C112.055 159.527 112.72 159.972 110.386 167.718C109.309 171.295 105.3 183.768 109.269 189.3C112.78 194.187 119.302 195.523 124.954 196.368Z" fill="#171717"/>
<path opacity="0.3" d="M144.813 187.778H144.72C144.633 187.766 144.549 187.737 144.473 187.693C144.398 187.649 144.331 187.591 144.278 187.521C144.225 187.451 144.186 187.371 144.164 187.287C144.142 187.202 144.136 187.113 144.149 187.026C144.221 186.515 144.263 186 144.275 185.484C144.408 180.83 140.611 174.148 134.368 167.984C134.306 167.923 134.256 167.849 134.222 167.769C134.188 167.688 134.17 167.601 134.169 167.513C134.169 167.426 134.185 167.339 134.218 167.258C134.251 167.176 134.3 167.102 134.362 167.04C134.423 166.978 134.496 166.928 134.577 166.894C134.658 166.86 134.745 166.842 134.832 166.841C134.92 166.84 135.007 166.857 135.088 166.89C135.169 166.923 135.243 166.972 135.306 167.033C141.901 173.549 145.751 180.457 145.605 185.517C145.59 186.082 145.546 186.646 145.472 187.206C145.449 187.364 145.37 187.51 145.249 187.615C145.128 187.72 144.974 187.777 144.813 187.778Z" fill="#171717"/>
<path opacity="0.3" d="M141.236 195.796C141.111 195.796 140.987 195.761 140.881 195.694C140.774 195.627 140.689 195.532 140.634 195.418C140.58 195.305 140.559 195.178 140.574 195.053C140.589 194.928 140.639 194.81 140.718 194.712C141.814 193.37 142.689 191.862 143.311 190.244C143.373 190.079 143.499 189.946 143.66 189.874C143.821 189.801 144.004 189.796 144.169 189.859C144.333 189.921 144.467 190.047 144.539 190.208C144.611 190.368 144.617 190.551 144.554 190.716C143.882 192.467 142.935 194.099 141.748 195.55C141.687 195.626 141.609 195.688 141.52 195.73C141.431 195.773 141.335 195.795 141.236 195.796Z" fill="#171717"/>
<path opacity="0.3" d="M92.8184 227.412C94.7848 219.531 87.9308 211.034 77.5096 208.434C67.0885 205.834 57.0464 210.114 55.08 217.995C53.1136 225.876 59.9676 234.373 70.3887 236.973C80.8099 239.573 90.852 235.293 92.8184 227.412Z" fill="#171717"/>
<path d="M91.8826 225.98C93.849 218.1 86.9951 209.603 76.5739 207.003C66.1528 204.403 56.1107 208.683 54.1443 216.564C52.1779 224.445 59.0318 232.942 69.453 235.542C79.8742 238.142 89.9163 233.861 91.8826 225.98Z" fill="#10B981" stroke="#263238" stroke-linecap="round" stroke-linejoin="round"/>
<path d="M67.1423 218.894C67.262 220.676 66.5772 222.178 65.6198 222.218C64.6623 222.258 63.7781 220.888 63.6251 219.107C63.4722 217.325 64.1903 215.815 65.1544 215.782C66.1184 215.749 67.0227 217.105 67.1423 218.894Z" stroke="#263238" stroke-linecap="round" stroke-linejoin="round"/>
<path d="M80.3203 222.198C80.4399 223.987 79.7551 225.483 78.7977 225.523C77.8403 225.563 76.956 224.193 76.8031 222.404C76.6501 220.616 77.3682 219.12 78.3323 219.08C79.2963 219.04 80.1806 220.41 80.3203 222.198Z" stroke="#263238" stroke-linecap="round" stroke-linejoin="round"/>
<path d="M102.068 226.819C101.928 228.099 101.629 229.357 101.177 230.562C97.3611 240.875 83.5449 245.336 69.895 240.895" stroke="#263238" stroke-width="3" stroke-linecap="round" stroke-linejoin="round"/>
<path d="M99.8411 225.842H104.076" stroke="#263238" stroke-width="3" stroke-linecap="round" stroke-linejoin="round"/>
<path d="M72.8603 198.236C72.3949 200.171 71.2048 201.56 70.2008 201.308C69.1968 201.055 68.758 199.313 69.2301 197.358C69.7022 195.404 70.8856 194.034 71.8896 194.28C72.8936 194.526 73.3324 196.295 72.8603 198.236Z" fill="#263238" stroke="#263238" stroke-linecap="round" stroke-linejoin="round"/>
<path d="M85.1221 200.909C85.5901 198.967 85.1564 197.197 84.1532 196.955C83.1501 196.713 81.9575 198.092 81.4895 200.034C81.0215 201.976 81.4553 203.746 82.4584 203.988C83.4615 204.23 84.6541 202.851 85.1221 200.909Z" fill="#263238" stroke="#263238" stroke-linecap="round" stroke-linejoin="round"/>
<path d="M103.431 271.552L110.745 288.906C111.008 289.526 111.447 290.056 112.009 290.428C112.57 290.801 113.229 291 113.903 291H127.201C127.869 290.999 128.522 290.803 129.08 290.437C129.639 290.071 130.078 289.551 130.346 288.939L138.324 270.502H137.978" fill="#10B981"/>
<mask id="mask3_46_521" style="mask-type:luminance" maskUnits="userSpaceOnUse" x="103" y="270" width="36" height="21">
<path d="M103.431 271.552L110.745 288.906C111.008 289.526 111.447 290.056 112.009 290.428C112.57 290.801 113.229 291 113.903 291H127.201C127.869 290.999 128.522 290.803 129.08 290.437C129.639 290.071 130.078 289.551 130.346 288.939L138.324 270.502H137.978" fill="white"/>
</mask>
<g mask="url(#mask3_46_521)">
<path opacity="0.3" d="M118.883 269.338C114.668 269.338 109.761 269.89 105.792 268.972L112.627 288.872C112.789 289.45 113.129 289.963 113.597 290.338C114.066 290.714 114.64 290.934 115.24 290.967H126.197C126.789 290.934 127.357 290.718 127.821 290.349C128.286 289.98 128.624 289.475 128.79 288.906L135.405 268.607L132.746 268.972C124.309 269.89 124.528 269.338 118.883 269.338Z" fill="#171717"/>
</g>
<path d="M103.431 271.552L110.745 288.906C111.008 289.526 111.447 290.056 112.009 290.428C112.57 290.801 113.229 291 113.903 291H127.201C127.869 290.999 128.522 290.803 129.08 290.437C129.639 290.071 130.078 289.551 130.346 288.939L138.324 270.502H137.978" stroke="#263238" stroke-linecap="round" stroke-linejoin="round"/>
<path d="M235.902 1.23936L199.127 54.2235C199.127 54.2235 195.982 61.7233 192.113 67.2884C188.243 72.8534 177.392 78.4184 177.392 78.4184C177.392 78.4184 176.428 88.8171 173.284 92.4474C170.139 96.0776 163.364 93.9034 163.364 93.9034C163.364 93.9034 160.458 97.0483 157.313 98.4978C154.168 99.9472 144.494 94.6282 144.494 94.6282C144.494 94.6282 153.198 104.063 154.408 107.208C155.618 110.353 157.799 113.012 153.929 115.918C150.059 118.823 145.698 114.707 145.698 114.707C145.698 114.707 147.639 120.997 142.074 122.207C136.509 123.417 130.445 111.317 128.025 107.208C125.605 103.099 118.591 87.607 117.387 86.8823C116.184 86.1576 114.488 82.288 116.909 78.6578C119.329 75.0275 136.496 51.8033 138.431 50.1478C140.365 48.4923 177.392 39.7092 177.392 39.7092L191.428 1" fill="#FAFAFA"/>
<mask id="mask4_46_521" style="mask-type:luminance" maskUnits="userSpaceOnUse" x="115" y="1" width="121" height="122">
<path d="M235.902 1.23936L199.127 54.2235C199.127 54.2235 195.982 61.7233 192.113 67.2884C188.243 72.8534 177.392 78.4184 177.392 78.4184C177.392 78.4184 176.428 88.8171 173.284 92.4474C170.139 96.0776 163.364 93.9034 163.364 93.9034C163.364 93.9034 160.458 97.0483 157.313 98.4978C154.168 99.9472 144.494 94.6282 144.494 94.6282C144.494 94.6282 153.198 104.063 154.408 107.208C155.618 110.353 157.799 113.012 153.929 115.918C150.059 118.823 145.698 114.707 145.698 114.707C145.698 114.707 147.639 120.997 142.074 122.207C136.509 123.417 130.445 111.317 128.025 107.208C125.605 103.099 118.591 87.607 117.387 86.8823C116.184 86.1576 114.488 82.288 116.909 78.6578C119.329 75.0275 136.496 51.8033 138.431 50.1478C140.365 48.4923 177.392 39.7092 177.392 39.7092L191.428 1" fill="white"/>
</mask>
<g mask="url(#mask4_46_521)">
<path opacity="0.2" d="M195.344 54.8019C195.344 54.8019 191.355 66.7697 187.033 69.0968C182.712 71.4239 158.111 77.7402 148.47 76.4105C138.83 75.0807 133.511 71.4239 133.511 71.4239C133.511 71.4239 128.191 78.4051 125.864 80.7322C124.244 82.2371 122.316 83.3714 120.213 84.0566C120.213 84.0566 131.782 113.118 140.099 122.114C140.746 122.314 141.432 122.346 142.094 122.207C147.659 120.997 145.718 114.707 145.718 114.707C145.718 114.707 150.073 118.816 153.949 115.918C157.825 113.019 155.638 110.353 154.428 107.208C153.218 104.063 144.481 94.6281 144.481 94.6281C144.481 94.6281 154.155 99.9472 157.3 98.4977C160.445 97.0483 163.35 93.8968 163.35 93.8968C163.35 93.8968 170.125 96.0776 173.27 92.4473C176.415 88.8171 177.379 78.4184 177.379 78.4184C177.379 78.4184 188.263 72.8534 192.139 67.2883C196.016 61.7233 199.154 54.2235 199.154 54.2235L214.307 32.3955L195.344 54.8019Z" fill="#171717"/>
</g>
<path d="M235.902 1.23936L199.127 54.2235C199.127 54.2235 195.983 61.7233 192.113 67.2884C188.243 72.8534 177.392 78.4184 177.392 78.4184C177.392 78.4184 176.428 88.8171 173.284 92.4474C170.139 96.0776 163.364 93.9034 163.364 93.9034C163.364 93.9034 160.458 97.0483 157.313 98.4978C154.168 99.9472 144.494 94.6282 144.494 94.6282C144.494 94.6282 153.198 104.063 154.408 107.208C155.618 110.353 157.799 113.012 153.929 115.918C150.059 118.823 145.698 114.707 145.698 114.707C145.698 114.707 147.639 120.997 142.074 122.207C136.509 123.417 130.445 111.317 128.025 107.208C125.605 103.099 118.591 87.607 117.387 86.8823C116.184 86.1576 114.488 82.288 116.909 78.6578C119.329 75.0276 136.496 51.8034 138.431 50.1478C140.365 48.4923 177.392 39.7092 177.392 39.7092L191.428 1" stroke="#263238" stroke-linecap="round" stroke-linejoin="round"/>
<path d="M110.127 142.526L111.091 146.156L126.09 142.526L140.126 105.752L130.931 102.607L110.127 142.526Z" fill="#FAFAFA" stroke="#263238" stroke-linecap="round" stroke-linejoin="round"/>
<path d="M114.721 93.6575L135.525 101.403L125.366 147.366L100.931 139.867L114.721 93.6575Z" fill="#FAFAFA" stroke="#263238" stroke-linecap="round" stroke-linejoin="round"/>
<path d="M101.749 137.121L123.431 143.497L132.866 102.607L113.87 96.5032L101.749 137.121Z" fill="#10B981" stroke="#263238" stroke-linecap="round" stroke-linejoin="round"/>
<path d="M113.784 106.616C112.84 106.366 111.854 106.321 110.891 106.483L105.227 125.465C106.046 126.264 107.055 126.843 108.159 127.147C112.6 128.371 117.467 124.76 119.023 119.089C120.579 113.418 118.218 107.833 113.784 106.616Z" fill="#FAFAFA" stroke="#263238" stroke-linecap="round" stroke-linejoin="round"/>
<path d="M112.979 109.761C112.951 109.748 112.927 109.726 112.913 109.698C112.898 109.67 112.894 109.639 112.899 109.608L113.152 108.624C113.167 108.582 113.173 108.538 113.169 108.494C113.165 108.45 113.15 108.407 113.127 108.37C113.104 108.332 113.073 108.3 113.036 108.276C112.999 108.252 112.957 108.237 112.913 108.232L111.855 107.979C111.814 107.962 111.769 107.955 111.725 107.959C111.68 107.962 111.637 107.976 111.599 108C111.561 108.023 111.529 108.055 111.505 108.093C111.482 108.131 111.467 108.174 111.463 108.218L111.257 109.235C111.249 109.266 111.231 109.293 111.205 109.311C111.18 109.329 111.149 109.338 111.117 109.335C110.757 109.298 110.394 109.298 110.034 109.335L108.099 115.831C109.608 117.4 111.962 118.185 111.649 119.501C111.47 120.246 110.792 120.831 109.601 120.565C109.353 120.532 109.114 120.445 108.901 120.311C108.689 120.178 108.508 120 108.37 119.79C108.233 119.58 108.142 119.342 108.104 119.094C108.067 118.846 108.083 118.592 108.152 118.351L108.212 118.085C108.245 117.939 108.159 117.819 107.953 117.773L107.547 117.673L106.397 121.516C106.859 121.936 107.399 122.261 107.986 122.473C108.016 122.486 108.04 122.509 108.055 122.539C108.069 122.568 108.073 122.601 108.066 122.633L107.826 123.477C107.808 123.518 107.8 123.564 107.803 123.609C107.806 123.654 107.82 123.698 107.843 123.736C107.867 123.775 107.899 123.807 107.938 123.83C107.977 123.853 108.021 123.867 108.066 123.869L109.163 124.135C109.201 124.156 109.244 124.167 109.288 124.169C109.331 124.17 109.375 124.161 109.414 124.143C109.454 124.126 109.489 124.099 109.517 124.065C109.545 124.031 109.565 123.992 109.575 123.949L109.754 123.112C109.764 123.081 109.784 123.054 109.81 123.034C109.836 123.015 109.868 123.005 109.901 123.005C112.241 123.251 113.83 122.101 114.322 120.053C114.708 118.417 114.156 117.028 112.447 115.718C110.885 114.535 109.236 113.949 109.522 112.739C109.721 111.902 110.486 111.516 111.516 111.762C111.771 111.803 112.015 111.899 112.229 112.043C112.444 112.187 112.624 112.376 112.759 112.596C112.893 112.817 112.979 113.064 113.009 113.32C113.039 113.577 113.013 113.837 112.933 114.082L112.886 114.269C112.886 114.382 112.952 114.481 113.159 114.535L115.107 115C115.148 115.015 115.193 115.021 115.237 115.017C115.281 115.013 115.323 114.999 115.361 114.975C115.399 114.952 115.431 114.921 115.455 114.884C115.479 114.847 115.494 114.805 115.499 114.761L115.645 114.142C116.091 112.194 115.153 110.539 112.979 109.761Z" fill="#263238"/>
<path d="M131.895 69.4625C131.895 69.4625 134.8 73.8174 135.286 77.6936C135.698 80.9975 134.925 84.3405 133.105 87.1283C131.656 89.3024 130.206 91.2372 128.996 94.6281C127.786 98.019 127.547 102.853 125.851 105.266C124.156 107.68 123.192 110.1 125.605 112.281C128.019 114.461 134.315 114.215 137.706 107.926C141.097 101.636 143.271 94.8608 145.445 92.4407C147.619 90.0205 154.64 84.4621 154.64 84.4621C154.64 84.4621 173.749 81.8026 177.379 78.4184C181.009 75.0341 184.154 65.8389 184.154 65.8389" fill="#FAFAFA"/>
<mask id="mask5_46_521" style="mask-type:luminance" maskUnits="userSpaceOnUse" x="124" y="65" width="61" height="49">
<path d="M131.895 69.4625C131.895 69.4625 134.8 73.8174 135.286 77.6936C135.698 80.9975 134.925 84.3405 133.105 87.1283C131.656 89.3024 130.206 91.2372 128.996 94.6281C127.786 98.019 127.547 102.853 125.851 105.266C124.156 107.68 123.192 110.1 125.605 112.281C128.019 114.461 134.315 114.215 137.706 107.926C141.097 101.636 143.271 94.8608 145.445 92.4407C147.619 90.0205 154.64 84.4621 154.64 84.4621C154.64 84.4621 173.749 81.8026 177.379 78.4184C181.009 75.0341 184.154 65.8389 184.154 65.8389" fill="white"/>
</mask>
<g mask="url(#mask5_46_521)">
<path opacity="0.2" d="M182.712 69.0968C182.712 69.0968 172.406 75.7456 164.427 77.7402C156.449 79.7349 151.462 79.7349 148.47 83.7241C145.478 87.7134 142.486 100.346 138.497 102.673C134.508 105 133.843 96.6893 128.191 98.3514L128.005 98.4179C127.453 101.011 126.968 103.67 125.851 105.273C124.156 107.693 123.192 110.107 125.605 112.287C128.019 114.468 134.315 114.222 137.706 107.932C141.097 101.643 143.271 94.8675 145.445 92.4473C147.619 90.0272 154.64 84.4688 154.64 84.4688C154.64 84.4688 173.749 81.8093 177.379 78.425C179.573 76.3772 181.588 72.2151 182.838 69.2364L182.712 69.0968Z" fill="#171717"/>
</g>
<path d="M131.895 69.4625C131.895 69.4625 134.8 73.8174 135.286 77.6936C135.698 80.9975 134.925 84.3405 133.105 87.1283C131.656 89.3024 130.206 91.2372 128.996 94.6281C127.786 98.019 127.547 102.853 125.851 105.266C124.156 107.68 123.192 110.1 125.605 112.281C128.019 114.461 134.315 114.215 137.706 107.926C141.097 101.636 143.271 94.8608 145.445 92.4407C147.619 90.0205 154.64 84.4621 154.64 84.4621C154.64 84.4621 173.749 81.8026 177.379 78.4184C181.009 75.0341 184.154 65.8389 184.154 65.8389" stroke="#263238" stroke-linecap="round" stroke-linejoin="round"/>
<path d="M124.395 81.5634C124.395 81.5634 130.691 84.9476 135.286 81.078" stroke="#263238" stroke-linecap="round" stroke-linejoin="round"/>
<path d="M145.684 114.707L140.126 104.063" stroke="#263238" stroke-linecap="round" stroke-linejoin="round"/>
<path d="M163.35 93.9035C163.35 93.9035 167.705 90.2733 167.459 82.2881" stroke="#263238" stroke-linecap="round" stroke-linejoin="round"/>
<path d="M31.1193 290.967H294.411" stroke="#263238" stroke-linecap="round" stroke-linejoin="round"/>
<path d="M7.84851 290.967H19.8163" stroke="#263238" stroke-linecap="round" stroke-linejoin="round"/>
</svg>
