<svg width="280" height="290" viewBox="0 0 280 290" fill="none" xmlns="http://www.w3.org/2000/svg">
<path d="M3.40533 84.4458C4.17782 87.5095 3.79812 81.873 5.31036 74.9861C6.82259 68.0992 9.42154 70.888 9.42154 70.888" stroke="#263238" stroke-linecap="round" stroke-linejoin="round"/>
<path d="M2.93396 77.4083L7.68015 75.464" stroke="#263238" stroke-linecap="round" stroke-linejoin="round"/>
<path d="M11.6015 73.127C11.6015 73.127 8.76688 79.0188 13.0417 81.4933" stroke="#263238" stroke-linecap="round" stroke-linejoin="round"/>
<path d="M15.6276 71.4772C15.6276 71.4772 20.3148 74.0958 17.382 79.7126" stroke="#263238" stroke-linecap="round" stroke-linejoin="round"/>
<path d="M12.4198 75.1171L15.7781 77.5654" stroke="#263238" stroke-linecap="round" stroke-linejoin="round"/>
<path d="M15.0515 74.0369L12.4263 78.2201" stroke="#263238" stroke-linecap="round" stroke-linejoin="round"/>
<path d="M30.1327 136.735C30.7715 132.843 28.1339 129.169 24.2414 128.531C20.349 127.892 16.6757 130.529 16.0369 134.422C15.398 138.314 18.0357 141.988 21.9281 142.626C25.8206 143.265 29.4939 140.628 30.1327 136.735Z" stroke="#263238" stroke-linecap="round" stroke-linejoin="round"/>
<path d="M34.3692 146.132C38.6548 145.253 41.4164 141.066 40.5375 136.78C39.6586 132.495 35.4719 129.733 31.1864 130.612C26.9008 131.491 24.1391 135.678 25.0181 139.963C25.897 144.249 30.0836 147.011 34.3692 146.132Z" stroke="#263238" stroke-linecap="round" stroke-linejoin="round"/>
<path d="M29.5912 132.628L26.3049 133.8" stroke="#263238" stroke-linecap="round" stroke-linejoin="round"/>
<path d="M30.0495 133.983L25.3229 135.692" stroke="#263238" stroke-linecap="round" stroke-linejoin="round"/>
<path d="M30.2262 135.62L24.9498 137.649" stroke="#263238" stroke-linecap="round" stroke-linejoin="round"/>
<path d="M29.8531 137.852L25.0414 140.052" stroke="#263238" stroke-linecap="round" stroke-linejoin="round"/>
<path d="M29.0021 139.567L25.3491 141.086" stroke="#263238" stroke-linecap="round" stroke-linejoin="round"/>
<path d="M26.534 124.693C26.3311 124.039 24.0136 123.633 23.9154 125.348C23.8172 127.063 26.3573 125.636 27.0774 124.693C27.0774 124.693 25.7681 126.454 26.318 126.801" stroke="#263238" stroke-linecap="round" stroke-linejoin="round"/>
<path d="M39.3651 126.828L37.3095 131.102C37.3095 131.102 38.3373 128.962 39.4371 129.139C40.7922 129.381 39.8888 131.6 38.2522 130.782" stroke="#263238" stroke-linecap="round" stroke-linejoin="round"/>
<path d="M263.065 196.626L266.292 199.677" stroke="#263238" stroke-linecap="round" stroke-linejoin="round"/>
<path d="M266.292 195.828L263.588 199.867" stroke="#263238" stroke-linecap="round" stroke-linejoin="round"/>
<path d="M269.467 196.986L272.701 195.782" stroke="#263238" stroke-linecap="round" stroke-linejoin="round"/>
<path d="M274.252 192.417L276.216 194.152" stroke="#263238" stroke-linecap="round" stroke-linejoin="round"/>
<path d="M277.722 190.328L275.234 198.865" stroke="#263238" stroke-linecap="round" stroke-linejoin="round"/>
<path d="M127.068 148.673L135.755 142.696L147.258 143.502L147.978 158.087L139.533 164.123L129.111 163.364L127.068 148.673Z" stroke="#263238" stroke-linecap="round" stroke-linejoin="round"/>
<path d="M129.111 163.363L137.523 157.308L147.978 158.087" stroke="#263238" stroke-linecap="round" stroke-linejoin="round"/>
<path d="M137.523 157.308L135.755 142.696" stroke="#263238" stroke-linecap="round" stroke-linejoin="round"/>
<path d="M127.068 148.673L138.544 150.002L147.258 143.501" stroke="#263238" stroke-linecap="round" stroke-linejoin="round"/>
<path d="M138.544 150.002L139.533 164.123" stroke="#263238" stroke-linecap="round" stroke-linejoin="round"/>
<path d="M228.46 99.6729L224.611 111.633L236.591 110.016L228.46 99.6729Z" stroke="#263238" stroke-linecap="round" stroke-linejoin="round"/>
<path d="M228.46 99.6729L230.601 110.756" stroke="#263238" stroke-linecap="round" stroke-linejoin="round"/>
<path d="M230.26 108.982L231.661 108.759L231.989 110.638" stroke="#263238" stroke-linecap="round" stroke-linejoin="round"/>
<path d="M77.5899 209.123L83.5734 212.063" stroke="#263238" stroke-linecap="round" stroke-linejoin="round"/>
<path d="M81.6422 206.878L79.9271 213.13" stroke="#263238" stroke-linecap="round" stroke-linejoin="round"/>
<path d="M82.4736 203.827C82.5718 203.726 82.6924 203.648 82.8257 203.602C82.9591 203.555 83.1015 203.541 83.2416 203.559C83.3817 203.578 83.5154 203.629 83.6322 203.708C83.7489 203.788 83.8454 203.894 83.9139 204.017C84.5161 204.96 83.3378 206.937 83.3378 206.937L85.7403 206.02" stroke="#263238" stroke-linecap="round" stroke-linejoin="round"/>
<path d="M124.567 3.19751C130.283 6.41183 123.736 14.2676 123.736 18.8501C123.736 23.4327 130.283 22.778 133.556 24.0873C134.865 24.0873 137.484 24.0873 137.412 27.4129" stroke="#263238" stroke-linecap="round" stroke-linejoin="round"/>
<path d="M118.198 7.36755C119.193 12.7815 125.399 10.8634 129.209 12.1007C135.755 14.2283 132.122 20.9842 130.171 25.0692C128.999 27.5045 127.834 30.9218 129.929 33.2327" stroke="#263238" stroke-linecap="round" stroke-linejoin="round"/>
<path d="M119.036 9.46897L125.851 3.80627" stroke="#263238" stroke-linecap="round" stroke-linejoin="round"/>
<path d="M121.707 11.158L126.839 6.90283" stroke="#263238" stroke-linecap="round" stroke-linejoin="round"/>
<path d="M124.724 15.4656L129.058 12.0614" stroke="#263238" stroke-linecap="round" stroke-linejoin="round"/>
<path d="M123.828 20.5588L132.299 14.4706" stroke="#263238" stroke-linecap="round" stroke-linejoin="round"/>
<path d="M127.075 22.9351L132.98 18.6013" stroke="#263238" stroke-linecap="round" stroke-linejoin="round"/>
<path d="M129.589 32.146L136.966 26.1364" stroke="#263238" stroke-linecap="round" stroke-linejoin="round"/>
<path d="M129.772 27.4194L134.584 24.0349" stroke="#263238" stroke-linecap="round" stroke-linejoin="round"/>
<path d="M33.4412 212.385C40.4707 209.573 43.89 201.595 41.0784 194.566C38.2668 187.536 30.2891 184.117 23.2596 186.929C16.2301 189.74 12.8109 197.718 15.6224 204.747C18.434 211.777 26.4118 215.196 33.4412 212.385Z" stroke="#263238" stroke-linecap="round" stroke-linejoin="round"/>
<path d="M31.7974 186.394C36.5763 180.784 40.6417 177.609 42.2063 178.643C44.5892 180.208 40.3143 190.891 32.6615 202.498C25.0087 214.105 16.8714 222.249 14.4885 220.678C12.9174 219.65 14.2397 214.662 17.513 208.056" stroke="#263238" stroke-linecap="round" stroke-linejoin="round"/>
<path d="M14.9337 202.472C8.26937 200.554 4.01416 198.315 4.28257 196.528C4.66881 193.7 16.1841 193.045 29.9382 195.107C43.6923 197.169 54.5071 201.078 54.0947 203.893C53.8001 205.857 48.2028 206.753 40.2489 206.452" stroke="#263238" stroke-linecap="round" stroke-linejoin="round"/>
<path d="M16.6816 192.541C11.6539 183.468 9.14006 176.391 10.8421 175.285C13.081 173.838 21.7355 183.225 30.1739 196.233C38.6123 209.241 43.6334 220.999 41.4011 222.452C39.9216 223.408 35.6336 219.624 30.4554 213.182" stroke="#263238" stroke-linecap="round" stroke-linejoin="round"/>
<path d="M44.1375 184.574C43.8934 184.946 43.5445 185.238 43.1349 185.412C42.7252 185.586 42.2732 185.634 41.8359 185.552C41.3986 185.469 40.9956 185.258 40.6779 184.947C40.3601 184.635 40.1417 184.237 40.0504 183.801C39.9591 183.365 39.9989 182.913 40.1648 182.5C40.3307 182.087 40.6152 181.732 40.9824 181.481C41.3497 181.229 41.7832 181.092 42.2282 181.087C42.6733 181.082 43.1098 181.209 43.4829 181.451C43.7313 181.613 43.9454 181.822 44.1128 182.067C44.2802 182.311 44.3977 182.587 44.4586 182.877C44.5194 183.167 44.5223 183.466 44.4672 183.757C44.4121 184.049 44.3001 184.326 44.1375 184.574Z" fill="#263238"/>
<path d="M36.681 219.067C36.4369 219.44 36.088 219.731 35.6784 219.905C35.2687 220.079 34.8167 220.128 34.3794 220.045C33.9421 219.962 33.5392 219.752 33.2214 219.44C32.9036 219.129 32.6853 218.73 32.5939 218.294C32.5026 217.859 32.5424 217.406 32.7083 216.993C32.8742 216.58 33.1587 216.225 33.526 215.974C33.8932 215.723 34.3267 215.586 34.7717 215.58C35.2168 215.575 35.6534 215.702 36.0264 215.945C36.2748 216.107 36.4889 216.316 36.6563 216.56C36.8238 216.805 36.9413 217.08 37.0021 217.37C37.0629 217.66 37.0658 217.96 37.0108 218.251C36.9557 218.542 36.8436 218.82 36.681 219.067Z" fill="#263238"/>
<path d="M24.6486 195.664C24.4045 196.036 24.0556 196.327 23.646 196.501C23.2363 196.675 22.7843 196.724 22.347 196.641C21.9097 196.559 21.5067 196.348 21.189 196.037C20.8712 195.725 20.6528 195.326 20.5615 194.891C20.4702 194.455 20.51 194.002 20.6759 193.589C20.8418 193.176 21.1263 192.822 21.4936 192.57C21.8608 192.319 22.2943 192.182 22.7393 192.177C23.1844 192.172 23.6209 192.298 23.994 192.541C24.4943 192.869 24.8443 193.382 24.967 193.967C25.0897 194.553 24.9752 195.163 24.6486 195.664Z" fill="#263238"/>
<path d="M168.219 97.6762H175.931L179.787 90.9988L175.931 84.3214H168.219L164.363 90.9988L168.219 97.6762Z" stroke="#263238" stroke-linecap="round" stroke-linejoin="round"/>
<path d="M167.1 112.334L163.244 105.656H155.532" stroke="#263238" stroke-linecap="round" stroke-linejoin="round"/>
<path d="M156.567 90.9988H164.278L168.134 84.3214L164.278 77.6375H156.567L152.711 84.3214L156.567 90.9988Z" stroke="#263238" stroke-linecap="round" stroke-linejoin="round"/>
<path d="M168.219 84.3214H175.931L179.787 77.6375L175.931 70.9601H168.219L164.363 77.6375L168.219 84.3214Z" stroke="#263238" stroke-linecap="round" stroke-linejoin="round"/>
<path d="M168.134 85.3558C168.705 85.3558 169.169 84.8927 169.169 84.3215C169.169 83.7502 168.705 83.2871 168.134 83.2871C167.563 83.2871 167.1 83.7502 167.1 84.3215C167.1 84.8927 167.563 85.3558 168.134 85.3558Z" fill="#263238"/>
<path d="M152.03 71.3332C152.601 71.3332 153.064 70.8701 153.064 70.2989C153.064 69.7276 152.601 69.2645 152.03 69.2645C151.459 69.2645 150.995 69.7276 150.995 70.2989C150.995 70.8701 151.459 71.3332 152.03 71.3332Z" fill="#263238"/>
<path d="M166.066 112.334C166.066 112.129 166.126 111.929 166.24 111.759C166.354 111.589 166.515 111.456 166.704 111.378C166.893 111.3 167.101 111.279 167.302 111.319C167.502 111.359 167.687 111.458 167.831 111.602C167.976 111.747 168.074 111.931 168.114 112.132C168.154 112.333 168.134 112.541 168.056 112.73C167.977 112.919 167.845 113.08 167.675 113.194C167.504 113.307 167.304 113.368 167.1 113.368C166.964 113.368 166.83 113.341 166.704 113.289C166.579 113.237 166.465 113.161 166.369 113.065C166.272 112.969 166.196 112.855 166.144 112.73C166.092 112.604 166.066 112.47 166.066 112.334Z" fill="#263238"/>
<path d="M155.532 106.691C156.104 106.691 156.567 106.228 156.567 105.656C156.567 105.085 156.104 104.622 155.532 104.622C154.961 104.622 154.498 105.085 154.498 105.656C154.498 106.228 154.961 106.691 155.532 106.691Z" fill="#263238"/>
<path d="M187.25 77.8272C187.25 77.6211 187.311 77.4196 187.426 77.2483C187.54 77.077 187.703 76.9436 187.894 76.865C188.085 76.7864 188.294 76.7662 188.496 76.8069C188.698 76.8476 188.884 76.9473 189.029 77.0936C189.174 77.2398 189.273 77.4259 189.312 77.6282C189.352 77.8306 189.33 78.0401 189.251 78.2301C189.171 78.4202 189.036 78.5823 188.864 78.6959C188.692 78.8095 188.49 78.8694 188.284 78.8681C188.148 78.8681 188.013 78.8412 187.887 78.7888C187.761 78.7364 187.647 78.6596 187.551 78.5629C187.454 78.4661 187.378 78.3513 187.327 78.2251C187.275 78.0988 187.249 77.9636 187.25 77.8272Z" fill="#263238"/>
<path d="M163.165 106.691C163.737 106.691 164.2 106.228 164.2 105.656C164.2 105.085 163.737 104.622 163.165 104.622C162.594 104.622 162.131 105.085 162.131 105.656C162.131 106.228 162.594 106.691 163.165 106.691Z" fill="#263238"/>
<path d="M178.753 77.8273C178.753 77.6214 178.814 77.4201 178.928 77.249C179.042 77.0778 179.205 76.9444 179.395 76.8656C179.585 76.7868 179.795 76.7662 179.997 76.8064C180.198 76.8465 180.384 76.9457 180.529 77.0912C180.675 77.2368 180.774 77.4223 180.814 77.6242C180.855 77.8261 180.834 78.0354 180.755 78.2256C180.676 78.4158 180.543 78.5784 180.372 78.6927C180.201 78.8071 179.999 78.8682 179.793 78.8682C179.517 78.8682 179.253 78.7585 179.057 78.5633C178.862 78.3681 178.753 78.1033 178.753 77.8273Z" fill="#263238"/>
<path d="M167.1 97.6828C167.099 97.4764 167.159 97.2742 167.273 97.1021C167.386 96.9299 167.549 96.7955 167.739 96.7159C167.93 96.6363 168.14 96.6151 168.342 96.6551C168.545 96.695 168.731 96.7943 168.877 96.9402C169.023 97.0862 169.122 97.2723 169.162 97.4748C169.202 97.6773 169.181 97.8871 169.101 98.0776C169.022 98.2681 168.887 98.4306 168.715 98.5444C168.543 98.6583 168.341 98.7184 168.134 98.7171C167.86 98.7154 167.598 98.6059 167.405 98.4123C167.211 98.2187 167.102 97.9566 167.1 97.6828Z" fill="#263238"/>
<path d="M179.793 77.8142H188.284" stroke="#263238" stroke-linecap="round" stroke-linejoin="round"/>
<path d="M168.134 97.6827L163.165 105.656" stroke="#263238" stroke-linecap="round" stroke-linejoin="round"/>
<path d="M156.567 77.6374L152.03 70.2988" stroke="#263238" stroke-linecap="round" stroke-linejoin="round"/>
<path d="M211.262 51.3141C212.152 48.3076 214.006 45.6772 216.538 43.8287C219.071 41.9802 222.141 41.0163 225.275 41.0855C228.41 41.1548 231.435 42.2534 233.883 44.2119C236.331 46.1704 238.067 48.88 238.823 51.9229" stroke="#263238" stroke-linecap="round" stroke-linejoin="round"/>
<path d="M223.321 69.5395C219.838 69.1408 216.623 67.4747 214.29 64.8585C211.956 62.2424 210.666 58.859 210.667 55.3533" stroke="#263238" stroke-linecap="round" stroke-linejoin="round"/>
<path d="M239.235 55.3533C239.235 59.1389 237.732 62.7695 235.056 65.4469C232.38 68.1244 228.75 69.6294 224.964 69.6311" stroke="#263238" stroke-linecap="round" stroke-linejoin="round"/>
<path d="M240.047 46.2995C244.512 45.7299 247.504 46.0376 247.968 47.3731C248.891 50.031 239.34 55.7591 226.633 60.1715C213.927 64.5838 202.883 65.9978 201.953 63.3334C201.462 61.9128 203.963 59.615 208.336 57.1077" stroke="#263238" stroke-linecap="round" stroke-linejoin="round"/>
<path d="M163.165 36.519L164.534 39.2882L167.591 39.7334L165.378 41.8937L165.902 44.9378L163.165 43.4976L160.429 44.9378L160.953 41.8937L158.74 39.7334L161.797 39.2882L163.165 36.519Z" stroke="#263238" stroke-linecap="round" stroke-linejoin="round"/>
<path d="M66.5133 29.1412C66.5116 31.6033 65.5332 33.9641 63.7929 35.7056C62.0526 37.4472 59.6925 38.4272 57.2304 38.4307C56.9293 38.4307 56.6347 38.4176 56.3467 38.3914C54.5549 38.2214 52.8511 37.5346 51.4424 36.4145C50.0337 35.2944 48.9807 33.7891 48.4114 32.0817C47.8421 30.3743 47.7811 28.5383 48.2357 26.7969C48.6903 25.0555 49.641 23.4836 50.9723 22.2724C52.3035 21.0612 53.9579 20.2628 55.7344 19.9742C57.5109 19.6856 59.333 19.9193 60.9792 20.6469C62.6254 21.3745 64.0247 22.5646 65.0072 24.0725C65.9897 25.5805 66.5129 27.3414 66.5133 29.1412Z" stroke="#263238" stroke-linecap="round" stroke-linejoin="round"/>
<path d="M65.0273 30.8171C65.0286 31.1022 64.9452 31.3813 64.7878 31.619C64.6303 31.8567 64.4058 32.0423 64.1428 32.1524C63.8797 32.2624 63.5899 32.2918 63.3101 32.237C63.0303 32.1822 62.7731 32.0455 62.571 31.8444C62.3689 31.6432 62.2311 31.3866 62.175 31.107C62.1189 30.8275 62.147 30.5376 62.2559 30.274C62.3647 30.0105 62.5493 29.7852 62.7862 29.6266C63.0232 29.4681 63.3019 29.3834 63.5871 29.3834C63.9679 29.3834 64.3332 29.5343 64.6031 29.8029C64.8731 30.0716 65.0256 30.4363 65.0273 30.8171Z" stroke="#263238" stroke-linecap="round" stroke-linejoin="round"/>
<path d="M52.098 34.47C52.0985 34.8112 52.0236 35.1483 51.8788 35.4573C51.7339 35.7662 51.5227 36.0394 51.26 36.2572C50.0393 35.2495 49.099 33.944 48.5302 32.4668C48.8904 32.2456 49.3054 32.1299 49.7282 32.1329C50.0378 32.1286 50.3452 32.1858 50.6326 32.3013C50.9199 32.4168 51.1814 32.5883 51.4019 32.8058C51.6224 33.0232 51.7975 33.2823 51.917 33.568C52.0365 33.8537 52.098 34.1603 52.098 34.47Z" stroke="#263238" stroke-linecap="round" stroke-linejoin="round"/>
<path d="M63.587 35.9299C61.8703 37.5558 59.5948 38.4604 57.2304 38.4568C56.9293 38.4568 56.6347 38.4437 56.3466 38.4175C56.2939 38.1657 56.2676 37.909 56.2681 37.6516C56.2685 36.7813 56.5628 35.9367 57.1033 35.2546C57.6438 34.5725 58.3989 34.0929 59.246 33.8936C60.0932 33.6944 60.9828 33.787 61.7708 34.1566C62.5587 34.5262 63.1987 35.1511 63.587 35.9299Z" stroke="#263238" stroke-linecap="round" stroke-linejoin="round"/>
<path d="M54.9784 25.4556C56.157 25.4556 57.1125 24.5001 57.1125 23.3214C57.1125 22.1427 56.157 21.1873 54.9784 21.1873C53.7997 21.1873 52.8442 22.1427 52.8442 23.3214C52.8442 24.5001 53.7997 25.4556 54.9784 25.4556Z" stroke="#263238" stroke-linecap="round" stroke-linejoin="round"/>
<path d="M56.9554 29.3834C56.9554 29.5789 56.8975 29.77 56.7888 29.9326C56.6802 30.0952 56.5258 30.2219 56.3452 30.2967C56.1646 30.3715 55.9658 30.3911 55.7741 30.3529C55.5823 30.3148 55.4062 30.2207 55.2679 30.0824C55.1297 29.9442 55.0355 29.768 54.9974 29.5763C54.9592 29.3845 54.9788 29.1858 55.0536 29.0051C55.1285 28.8245 55.2552 28.6701 55.4177 28.5615C55.5803 28.4529 55.7714 28.3949 55.9669 28.3949C56.0967 28.3949 56.2253 28.4205 56.3452 28.4701C56.4651 28.5198 56.5741 28.5926 56.6659 28.6844C56.7577 28.7762 56.8305 28.8852 56.8802 29.0051C56.9299 29.1251 56.9554 29.2536 56.9554 29.3834Z" stroke="#263238" stroke-linecap="round" stroke-linejoin="round"/>
<path d="M64.7654 23.7207C64.5056 23.8059 64.2336 23.848 63.9602 23.8451C63.6029 23.8451 63.2491 23.7746 62.919 23.6377C62.589 23.5008 62.2892 23.3001 62.0368 23.0471C61.7845 22.7941 61.5845 22.4938 61.4484 22.1635C61.3122 21.8331 61.2426 21.4791 61.2434 21.1218C61.2367 21.0084 61.2367 20.8947 61.2434 20.7814C62.6456 21.4499 63.8569 22.4608 64.7654 23.7207Z" stroke="#263238" stroke-linecap="round" stroke-linejoin="round"/>
<path d="M278.213 136.935L279.215 134.683L277.591 133.793C277.651 133.397 277.662 132.994 277.624 132.595L279.287 131.783L278.403 129.486L276.622 129.996C276.384 129.676 276.107 129.385 275.797 129.132L276.406 127.378L274.154 126.376L273.257 127.999C272.86 127.95 272.457 127.95 272.059 127.999L271.254 126.337L268.95 127.22L269.467 128.995C269.146 129.237 268.854 129.516 268.596 129.826L266.848 129.217L265.873 131.436L267.497 132.333C267.437 132.73 267.426 133.132 267.464 133.531L265.794 134.336L266.678 136.641L268.459 136.124C268.699 136.445 268.976 136.737 269.284 136.994L268.681 138.742L270.933 139.744L271.824 138.12C272.22 138.18 272.623 138.191 273.022 138.153L273.834 139.822L276.131 138.939L275.621 137.158C275.94 136.918 276.23 136.641 276.485 136.333L278.213 136.935ZM271.365 135.678C270.849 135.449 270.411 135.071 270.109 134.592C269.807 134.114 269.654 133.557 269.668 132.991C269.683 132.426 269.864 131.877 270.191 131.415C270.517 130.953 270.973 130.598 271.501 130.395C272.029 130.191 272.605 130.149 273.157 130.274C273.709 130.398 274.211 130.683 274.601 131.093C274.991 131.503 275.251 132.02 275.347 132.577C275.443 133.135 275.372 133.708 275.143 134.225C274.833 134.918 274.262 135.46 273.554 135.732C272.846 136.004 272.059 135.985 271.365 135.678Z" stroke="#263238" stroke-linecap="round" stroke-linejoin="round"/>
<path d="M266.246 148.49L267.608 145.433L265.408 144.215C265.487 143.677 265.5 143.132 265.448 142.592L267.713 141.492L266.528 138.369L264.112 139.07C263.789 138.632 263.413 138.236 262.993 137.891L263.817 135.508L260.734 134.127L259.523 136.327C258.985 136.249 258.441 136.234 257.899 136.281L256.8 134.022L253.67 135.227L254.371 137.636C253.936 137.965 253.541 138.342 253.193 138.762L250.816 137.963L249.454 141.02L251.654 142.238C251.576 142.776 251.563 143.321 251.615 143.862L249.35 144.961L250.554 148.084L252.97 147.39C253.295 147.826 253.67 148.222 254.089 148.568L253.265 150.945L256.328 152.307L257.539 150.1C258.077 150.181 258.622 150.196 259.163 150.146L260.263 152.405L263.392 151.207L262.691 148.791C263.126 148.465 263.521 148.089 263.87 147.672L266.246 148.49ZM256.95 146.781C256.247 146.468 255.653 145.954 255.243 145.303C254.833 144.652 254.625 143.894 254.646 143.125C254.666 142.356 254.915 141.61 255.359 140.982C255.804 140.354 256.425 139.873 257.143 139.598C257.862 139.323 258.646 139.267 259.396 139.438C260.146 139.608 260.829 139.998 261.357 140.557C261.886 141.115 262.237 141.819 262.366 142.577C262.496 143.335 262.397 144.115 262.083 144.817C261.875 145.284 261.577 145.704 261.207 146.056C260.836 146.407 260.4 146.681 259.924 146.864C259.447 147.046 258.939 147.133 258.429 147.119C257.918 147.104 257.416 146.99 256.95 146.781Z" stroke="#263238" stroke-linecap="round" stroke-linejoin="round"/>
<path d="M130.538 119.469C129.641 121.169 128.628 122.805 127.507 124.366C121.691 132.453 113.144 138.161 103.446 140.437C93.7486 142.712 83.555 141.401 74.7488 136.746C73.8389 136.268 72.9485 135.757 72.0975 135.22C71.2465 134.683 70.4151 134.134 69.6164 133.544C68.6475 132.844 67.7179 132.098 66.8276 131.319C66.7706 131.276 66.718 131.228 66.6705 131.175C60.8692 126.041 56.629 119.378 54.4344 111.949C52.2397 104.519 52.1792 96.6225 54.2596 89.1603C56.34 81.698 60.4775 74.9715 66.1993 69.7491C71.9212 64.5268 78.9966 61.0192 86.6173 59.6271C94.238 58.2351 102.097 59.0147 109.295 61.877C116.494 64.7392 122.742 69.5686 127.326 75.8134C131.911 82.0583 134.646 89.4666 135.22 97.1922C135.793 104.918 134.182 112.649 130.571 119.502L130.538 119.469Z" fill="#10B981"/>
<mask id="mask0_46_606" style="mask-type:luminance" maskUnits="userSpaceOnUse" x="52" y="58" width="84" height="84">
<path d="M130.538 119.469C129.641 121.169 128.628 122.805 127.507 124.366C121.691 132.453 113.144 138.161 103.446 140.437C93.7486 142.712 83.555 141.401 74.7488 136.746C73.8389 136.268 72.9485 135.757 72.0975 135.22C71.2465 134.683 70.4151 134.134 69.6164 133.544C68.6475 132.844 67.7179 132.098 66.8276 131.319C66.7706 131.276 66.718 131.228 66.6705 131.175C60.8692 126.041 56.629 119.378 54.4344 111.949C52.2397 104.519 52.1792 96.6225 54.2596 89.1603C56.34 81.698 60.4775 74.9715 66.1993 69.7491C71.9212 64.5268 78.9966 61.0192 86.6173 59.6271C94.238 58.2351 102.097 59.0147 109.295 61.877C116.494 64.7392 122.742 69.5686 127.326 75.8134C131.911 82.0583 134.646 89.4666 135.22 97.1922C135.793 104.918 134.182 112.649 130.571 119.502L130.538 119.469Z" fill="white"/>
</mask>
<g mask="url(#mask0_46_606)">
<g opacity="0.6">
<path d="M130.538 119.469C129.641 121.169 128.628 122.805 127.507 124.366L126.708 123.711L125.333 122.985L123.887 122.225L124.129 120.478L124.05 118.9C123.965 117.322 125.104 118.612 126.014 118.134C126.724 117.627 127.297 116.952 127.684 116.17C127.684 116.17 128.338 114.069 128.122 113.224C127.77 112.251 127.354 111.302 126.878 110.383L124.535 113.656L122.571 113.506L120.712 112.524L120.469 109.938L119.514 109.44L119.114 107.954L113.949 106.507L113.36 105.473C112.771 104.439 110.394 103.908 110.394 103.908L110.977 102.56L111.893 101.054C112.816 99.5484 113.772 102.049 113.772 102.049L114.866 102.619L116.895 100.917L117.432 98.4748L120.738 98.6647C120.673 98.3342 120.723 97.9915 120.881 97.6937C121.038 97.3959 121.292 97.161 121.602 97.0281C122.702 96.596 122.217 94.2065 121.798 93.3228C121.379 92.439 119.834 93.1525 119.834 93.1525C119.834 93.1525 118.152 90.5929 117.923 89.5716C117.694 88.5504 121.13 88.917 122.603 87.8892C124.076 86.8614 123.572 84.8189 122.852 84.7731C122.132 84.7272 124.26 80.1251 128.351 81.3885C129.49 81.742 130.21 81.6177 130.656 81.2249C133.725 87.1354 135.318 93.7014 135.298 100.362C135.277 107.022 133.644 113.578 130.538 119.469Z" fill="#FAFAFA"/>
<path d="M101.91 101.761L100.509 103.522C100.509 103.522 99.9134 102.102 99.0624 102.868L97.7531 104.033L96.8038 106.691L95.1018 107.791L94.0609 107.247L93.0789 106.723L92.0118 106.16L90.9906 108.124L90.1592 109.696C90.5644 110.467 91.0683 111.182 91.6583 111.823L93.4651 115.011L95.6648 116.124C96.5822 116.158 97.4952 116.268 98.3946 116.451L99.9069 117.244L99.3701 120.517C99.3701 120.517 98.231 122.369 97.4716 121.859L96.7056 121.355L95.4618 125.662L95.4094 128.032C95.4094 128.032 94.6697 128.34 93.9234 128.589C93.1771 128.837 93.6484 128.706 92.0838 129.191C90.5192 129.675 90.6436 129.656 89.3736 130.016C88.291 130.395 87.2492 130.882 86.264 131.469L86.3753 133.747L83.3836 134.186L81.7077 133.296L82.1201 131.855L82.3165 129.603L82.0874 127.921L81.3673 126.435L83.3836 124.608L82.9384 123.463L81.7928 121.185L79.3706 122.494L78.1268 123.149L75.3118 121.885L75.0041 120.176L74.0614 117.106L73.1842 115.195L71.6261 113.087L71.2333 111.273L72.1106 109.61L72.5754 108.733L71.1417 106.802L70.7489 105.427L68.3332 103.234C68.3332 103.234 69.0337 103.188 68.8766 102.213C68.7195 101.237 70.2579 99.5943 70.2579 99.5943C71.1286 100.053 73.7406 101.872 73.7406 101.872L76.0253 102.187C76.0253 102.187 76.4836 102.187 76.9288 101.323C77.4487 100.528 78.0595 99.7962 78.7487 99.1426C78.7487 99.1426 77.6947 95.4831 78.4475 94.9922C79.2004 94.5012 79.9663 92.1052 79.9663 92.1052L80.5686 90.9595C80.5686 90.9595 79.148 90.3376 78.8796 89.5848C78.6112 88.8319 75.1088 89.8335 75.1088 89.8335L72.6932 91.5094L70.7882 92.9824L69.9633 94.547C69.9633 94.547 68.2809 92.5241 68.2743 93.6567C68.146 94.8178 67.8913 95.9615 67.5149 97.0674C67.5149 97.0674 67.8619 97.2507 67.4036 98.1279C66.9454 99.0051 66.4479 98.9593 65.4397 99.0837C64.1254 99.0969 62.8121 99.0072 61.5118 98.8153C61.5118 98.8153 60.8572 101.237 61.3089 101.656L61.754 102.062C61.754 102.062 61.0536 103.823 60.3596 103.457L58.6707 102.566L56.3074 103.522L53.6888 106.416L53.1061 106.298C51.5013 95.5334 54.2108 84.5706 60.6455 75.7931C67.0803 67.0157 76.72 61.1333 87.4686 59.4252C87.6191 60.0798 87.7828 60.6952 87.7828 60.6952L87.1282 63.9291L86.2902 65.5265L85.5701 66.8947L84.5554 68.8194L87.1543 71.2154L86.5979 74.05L85.1904 74.9338L84.7845 77.0614L87.2002 81.7814L87.8548 83.634C87.4506 84.521 87.2515 85.4876 87.2722 86.4621C87.2722 86.4621 87.5668 88.2297 88.8564 88.9301C90.1461 89.6306 91.8416 90.4554 91.8416 90.4554L91.7041 93.074L91.1215 93.7287L92.0904 96.5502C95.0428 97.7089 94.7613 98.6778 95.0428 97.7089L95.3309 96.7466L97.3407 96.0199L99.9003 99.0772C100.198 99.0732 100.492 99.1443 100.755 99.2838C101.019 99.4234 101.242 99.627 101.406 99.8758C102.152 100.819 103.318 100 101.91 101.761Z" fill="#FAFAFA"/>
<path d="M67.2138 124.563C67.2858 125.492 66.1074 126.657 66.1074 126.657L67.0698 127.161L67.3644 129.78L66.6377 131.168C61.4886 126.619 57.5612 120.853 55.2141 114.396L55.7378 111.62L58.0487 111.293C58.0487 111.293 60.1174 109.918 61.0339 110.285C61.9504 110.651 62.7884 112.903 62.7884 112.903C62.7884 112.903 63.443 115.941 63.3579 115.882H63.3186H63.371L64.3137 116.379L64.5821 117.577L63.2728 120.065H61.1649C61.1649 120.065 60.7459 119.843 60.7066 120.936C60.7407 121.315 60.856 121.683 61.0446 122.014C61.2333 122.345 61.4908 122.631 61.7999 122.854L64.078 122.271L64.6869 119.915L66.9258 119.476C66.9258 119.476 66.605 120.923 67.1287 121.198L67.659 121.479L67.9732 123.207C67.7387 123.347 67.545 123.545 67.4117 123.783C67.2784 124.021 67.2101 124.29 67.2138 124.563Z" fill="#FAFAFA"/>
<path d="M78.0417 128.268C77.8388 127.705 77.7536 127.214 76.3593 126.481C74.9649 125.747 75.05 126.009 74.5001 126.618C74.2632 126.931 73.9399 127.168 73.5699 127.3C73.2 127.431 72.7996 127.451 72.4183 127.358C71.5018 127.155 71.9797 128.189 71.9797 128.189L72.2022 130.985L69.6164 133.538C70.4151 134.127 71.2421 134.686 72.0975 135.214L72.6474 133.525L76.9419 134.782C76.0319 134.513 76.5687 133.269 76.5687 133.269L75.6522 132.785C75.6522 132.785 78.2446 128.818 78.0417 128.268Z" fill="#FAFAFA"/>
<path d="M105.092 113.735L103.684 112.314L102.074 112.818L101.419 114.127L100.928 115.07L101.583 116.379L102.892 117.97L103.638 116.543C103.638 116.543 105.714 116.543 106.8 115.345C107.887 114.147 105.092 113.735 105.092 113.735Z" fill="#FAFAFA"/>
<path d="M100.954 107.326L103.573 108.701L103.678 108.085C103.814 107.592 104.055 107.134 104.385 106.743L102.381 104.622L100.954 107.326Z" fill="#FAFAFA"/>
<path d="M100.064 137.8L99.3112 136.693L98.4339 136.235H95.7564L94.2311 139.129C94.2311 139.129 92.7712 138.932 90.8531 138.762C88.935 138.592 89.4064 139.384 89.4064 139.384L88.9088 141.204C93.7483 141.8 98.655 141.536 103.403 140.425C102.851 140.04 102.278 139.686 101.688 139.364L100.064 137.8Z" fill="#FAFAFA"/>
</g>
</g>
<path d="M130.538 119.469C129.641 121.169 128.628 122.805 127.507 124.366C121.691 132.453 113.144 138.161 103.446 140.437C93.7486 142.712 83.555 141.401 74.7488 136.746C73.8389 136.268 72.9485 135.757 72.0975 135.22C71.2464 134.683 70.4151 134.134 69.6164 133.544C68.6475 132.844 67.7179 132.098 66.8276 131.319C66.7706 131.276 66.718 131.228 66.6705 131.175C60.8692 126.041 56.629 119.378 54.4344 111.949C52.2397 104.519 52.1792 96.6225 54.2596 89.1603C56.34 81.698 60.4775 74.9715 66.1993 69.7491C71.9212 64.5268 78.9966 61.0192 86.6173 59.6271C94.238 58.2351 102.097 59.0147 109.295 61.877C116.494 64.7392 122.742 69.5686 127.326 75.8134C131.911 82.0583 134.646 89.4666 135.22 97.1922C135.793 104.918 134.182 112.649 130.571 119.502L130.538 119.469Z" stroke="#263238" stroke-linecap="round" stroke-linejoin="round"/>
<path d="M103.403 140.425C98.655 141.536 93.7483 141.8 88.9088 141.204L89.4064 139.384C89.4064 139.384 88.935 138.592 90.8531 138.762C92.7712 138.932 94.2311 139.129 94.2311 139.129L95.7564 136.235H98.4339L99.3112 136.693L100.064 137.8L101.688 139.364C102.278 139.686 102.851 140.04 103.403 140.425Z" stroke="#263238" stroke-linecap="round" stroke-linejoin="round"/>
<path d="M130.682 81.2315C130.237 81.6243 129.517 81.7486 128.377 81.3951C124.286 80.1317 122.165 84.7273 122.878 84.7797C123.592 84.832 124.096 86.9007 122.63 87.8958C121.163 88.8909 117.72 88.5504 117.949 89.5782C118.178 90.606 119.86 93.1591 119.86 93.1591C119.86 93.1591 121.366 92.4521 121.792 93.3294C122.217 94.2066 122.702 96.6026 121.602 97.0347C121.292 97.1676 121.038 97.4025 120.881 97.7003C120.723 97.9981 120.673 98.3408 120.738 98.6713L117.432 98.4814L116.895 100.923L114.866 102.625L113.772 102.056C113.772 102.056 112.816 99.5551 111.893 101.061L110.977 102.566L110.394 103.915C110.394 103.915 112.771 104.445 113.36 105.48L113.949 106.514L119.114 107.961L119.514 109.447L120.469 109.944L120.712 112.53L122.636 113.538L124.6 113.689L126.944 110.416C127.42 111.335 127.835 112.284 128.188 113.257C128.417 114.101 127.749 116.203 127.749 116.203C127.363 116.985 126.789 117.659 126.08 118.167C125.143 118.645 123.998 117.355 124.116 118.933L124.194 120.51L123.952 122.258L125.399 123.018L126.774 123.744L127.572 124.399" stroke="#263238" stroke-linecap="round" stroke-linejoin="round"/>
<path d="M53.1585 106.298L53.7411 106.416L56.3597 103.522L58.723 102.567L60.412 103.457C61.1059 103.823 61.8064 102.062 61.8064 102.062L61.3612 101.657C60.9095 101.238 61.5642 98.8154 61.5642 98.8154C62.8645 99.0073 64.1778 99.097 65.4921 99.0838C66.5264 98.9594 67.0174 98.9987 67.456 98.128C67.8946 97.2573 67.5673 97.0675 67.5673 97.0675C67.9437 95.9616 68.1983 94.8179 68.3267 93.6568C68.3267 92.5242 70.0157 94.5471 70.0157 94.5471L70.8405 92.9825L72.6866 91.5161L75.1023 89.8402C75.1023 89.8402 78.6046 88.832 78.8731 89.5914C79.1415 90.3508 80.562 90.9662 80.562 90.9662L79.9598 92.1118C79.9598 92.1118 79.1873 94.4947 78.441 94.9988C77.6947 95.5029 78.7421 99.1493 78.7421 99.1493C78.0529 99.8028 77.4422 100.534 76.9222 101.329C76.4639 102.206 76.0188 102.193 76.0188 102.193L73.7341 101.879C73.7341 101.879 71.1155 100.059 70.2513 99.601C70.2513 99.601 68.7129 101.244 68.87 102.22C69.0272 103.195 68.3267 103.241 68.3267 103.241L70.7423 105.434L71.1351 106.809L72.5688 108.74L72.104 109.617L71.2268 111.28L71.6196 113.093L73.1776 115.201L74.0614 117.106L75.0172 120.19L75.3249 121.898L78.1398 123.162L79.3837 122.507L81.8059 121.198L82.9515 123.476L83.3967 124.622L81.3803 126.448L82.1005 127.934L82.3296 129.617L82.1332 131.869L81.7208 133.309L83.3967 134.199L86.3884 133.767L86.2771 131.482C87.2623 130.895 88.3041 130.408 89.3867 130.029C90.6567 129.669 90.5323 129.689 92.0969 129.204C93.6615 128.72 93.1836 128.851 93.9365 128.602C94.6893 128.353 95.4225 128.045 95.4225 128.045L95.4749 125.676L96.7187 121.368L97.4847 121.872C98.2441 122.383 99.3831 120.53 99.3831 120.53L99.92 117.257L98.375 116.452C97.4755 116.268 96.5625 116.158 95.6451 116.124L93.4913 114.992L91.6845 111.804C91.0945 111.163 90.5905 110.447 90.1854 109.676L91.0168 108.105L92.038 106.141L93.1051 106.704L94.087 107.228L95.1279 107.771L96.83 106.671L97.7793 104.013L99.0886 102.848C99.9396 102.076 100.535 103.503 100.535 103.503L101.936 101.742C103.344 99.9807 102.178 100.799 101.458 99.8956C101.295 99.6467 101.071 99.4431 100.808 99.3036C100.545 99.164 100.251 99.0929 99.9527 99.0969L97.393 96.0397L95.3571 96.8122L95.069 97.7745C94.7875 98.7434 95.069 97.7745 92.1166 96.6158L91.1477 93.7942L91.7303 93.1396L91.8678 90.521C91.8678 90.521 90.1723 89.6896 88.8826 88.9957C87.5929 88.3017 87.2984 86.5277 87.2984 86.5277C87.2777 85.5532 87.4768 84.5865 87.881 83.6996L87.2263 81.8469L84.8107 77.1269L85.2166 74.9993L86.6241 74.1155L87.1805 71.2809L84.6536 68.8849L85.6683 66.9602L86.3884 65.592L87.2263 63.9947L87.881 60.7607C87.881 60.7607 87.7173 60.1585 87.5668 59.4907" stroke="#263238" stroke-linecap="round" stroke-linejoin="round"/>
<path d="M66.8603 131.312C66.8094 131.254 66.7524 131.201 66.6901 131.155L67.4167 129.767L67.1221 127.148L66.1598 126.644C66.1598 126.644 67.3382 125.479 67.2662 124.549C67.2534 124.272 67.3153 123.996 67.4455 123.751C67.5756 123.506 67.7691 123.3 68.0059 123.155L67.6917 121.427L67.1614 121.145C66.6377 120.87 66.9585 119.424 66.9585 119.424L64.7196 119.862L64.1108 122.219L61.8326 122.802C61.5236 122.579 61.266 122.292 61.0774 121.961C60.8887 121.63 60.7735 121.263 60.7393 120.883C60.7786 119.79 61.1976 120.013 61.1976 120.013H63.3055L64.6148 117.525L64.3464 116.327L63.4037 115.83" stroke="#263238" stroke-linecap="round" stroke-linejoin="round"/>
<path d="M63.3448 115.83C63.4495 115.889 62.7753 112.851 62.7753 112.851C62.7753 112.851 61.9373 110.632 61.0208 110.232C60.1043 109.833 58.0356 111.24 58.0356 111.24L55.7247 111.568L55.201 114.344" stroke="#263238" stroke-linecap="round" stroke-linejoin="round"/>
<path d="M72.6473 133.525L72.0974 135.214C71.2246 134.681 70.3975 134.123 69.6163 133.538L72.2022 130.985L71.9796 128.189C71.9796 128.189 71.5017 127.155 72.4182 127.358C72.7995 127.451 73.1999 127.431 73.5699 127.3C73.9398 127.168 74.2632 126.931 74.5 126.618C75.0368 126.009 74.9713 125.747 76.3592 126.481C77.747 127.214 77.8387 127.705 78.0416 128.268C78.2446 128.831 75.6522 132.805 75.6522 132.805L76.5687 133.289C76.5687 133.289 76.0319 134.533 76.9418 134.801L72.6473 133.525Z" stroke="#263238" stroke-linecap="round" stroke-linejoin="round"/>
<path d="M102.074 112.818L103.684 112.314L105.092 113.735C105.092 113.735 107.874 114.095 106.787 115.306C105.7 116.517 103.625 116.504 103.625 116.504L102.866 117.931L101.557 116.34L100.902 115.031L101.393 114.088L102.074 112.818Z" stroke="#263238" stroke-linecap="round" stroke-linejoin="round"/>
<path d="M104.385 106.743C104.055 107.134 103.814 107.592 103.678 108.085L103.573 108.701L100.954 107.326L102.381 104.622L104.385 106.743Z" stroke="#263238" stroke-linecap="round" stroke-linejoin="round"/>
<path d="M246.45 261.161C242.941 264.081 215.91 282.634 177.339 279.642C175.263 262.084 167.349 189.955 176.35 178.643C176.35 178.643 198.189 168.228 218.306 172.601C238.424 176.974 246.253 181.163 247.687 184.79C248.774 187.533 247.222 238.609 246.45 261.161Z" fill="#263238"/>
<path d="M217.639 180.306C206.051 190.342 191.125 188.22 191.453 180.515C191.505 179.311 192.795 177.818 192.795 177.818L192.343 177.124L190.379 174.159C188.945 171.939 187.152 169.151 185.901 167.121C184.854 165.393 210.968 149.328 210.968 158.565C210.968 171.579 217.357 174.028 217.357 174.028C219.766 174.997 222.012 176.528 217.639 180.306Z" fill="#FAFAFA" stroke="#263238" stroke-linecap="round" stroke-linejoin="round"/>
<path d="M224.964 200.181C224.964 200.181 222.627 208.194 223.733 210.492" stroke="#FAFAFA" stroke-linecap="round" stroke-linejoin="round"/>
<path d="M222.234 176.915C222.234 184.646 199.171 192.22 192.415 184.463" stroke="#FAFAFA" stroke-linecap="round" stroke-linejoin="round"/>
<path d="M203.263 167.992C203.263 167.992 201.718 173.818 194.517 178.368C194.173 177.778 193.618 177.341 192.965 177.144C192.748 177.109 192.527 177.109 192.31 177.144L190.346 174.178C194.071 171.494 203.263 167.992 203.263 167.992Z" fill="#263238"/>
<path d="M206.497 160.83C206.497 160.83 206.418 166.578 205.187 167.75C196.055 176.509 187.126 177.203 185.653 174.892C175.735 159.337 178.078 155.252 177.07 152.588C175.283 147.914 173.09 140.281 174.059 135.659C176.219 125.335 195.662 117.329 205.901 127.711C210.811 132.68 212.362 143.462 211.328 152.444" fill="#FAFAFA"/>
<path d="M206.497 160.83C206.497 160.83 206.418 166.578 205.187 167.75C196.055 176.509 187.126 177.203 185.653 174.892C175.735 159.337 178.078 155.252 177.07 152.588C175.283 147.914 173.09 140.281 174.059 135.659C176.219 125.335 195.662 117.329 205.901 127.711C210.811 132.68 212.362 143.462 211.328 152.444" stroke="#263238" stroke-linecap="round" stroke-linejoin="round"/>
<path d="M178.321 147.783C178.321 147.783 175.591 146.559 175.001 148.019" stroke="#263238" stroke-linecap="round" stroke-linejoin="round"/>
<path d="M184.939 147.875C184.939 147.875 190.615 145.498 193.168 148.385" stroke="#263238" stroke-linecap="round" stroke-linejoin="round"/>
<path d="M191.243 151.901C191.335 152.752 190.923 153.492 190.314 153.564C189.705 153.636 189.142 152.987 189.05 152.136C188.959 151.285 189.371 150.539 189.98 150.474C190.589 150.408 191.125 151.05 191.243 151.901Z" fill="#263238"/>
<path d="M180.114 152.156C180.212 153.007 179.793 153.753 179.185 153.819C178.576 153.884 178.013 153.249 177.921 152.398C177.83 151.547 178.242 150.801 178.851 150.735C179.46 150.67 180.01 151.305 180.114 152.156Z" fill="#263238"/>
<path d="M180.389 149.917C181.181 151.194 180.749 153.374 179.702 156.365C178.654 159.357 179.578 160.437 183.597 160.738" fill="#FAFAFA"/>
<path d="M180.389 149.917C181.181 151.194 180.749 153.374 179.702 156.365C178.654 159.357 179.578 160.437 183.597 160.738" stroke="#263238" stroke-linecap="round" stroke-linejoin="round"/>
<path d="M183.597 165.917C183.597 165.917 188.834 165.439 191.23 164.123" stroke="#263238" stroke-linecap="round" stroke-linejoin="round"/>
<path d="M216.775 136.235C216.775 132.346 212.938 124.366 206.209 123.469C202.34 119.424 196.827 117.938 190.137 119.476C174.674 123.024 169.967 138.291 169.293 140.818C169.228 141.053 169.195 141.184 169.195 141.184L173.332 140.137L171.552 143.613L173.718 145.047L173.221 145.596L175.735 148.019L174.949 143.593C175.434 140.739 178.72 136.746 178.72 136.746C177.521 138.3 176.773 140.155 176.56 142.107C177.869 138.71 185.725 135.561 185.725 135.561C183.178 137.629 181.797 141.675 181.797 141.675C184.219 138.69 189.895 136.759 193.528 135.731C194.752 138.683 196.697 141.767 199.472 143.475C202.091 145.086 201.999 148.411 201.999 148.411C204.817 150.37 206.892 153.22 207.891 156.503L211.059 160.837C211.059 160.837 216.775 153.825 216.775 136.235Z" fill="#263238"/>
<path d="M203.439 149.524C202.379 147.253 206.228 141.099 208.958 141.858C210.49 142.29 212.493 145.086 212.886 148.019C213.279 150.951 211.203 156.529 208.991 157.74C207.583 158.526 206.424 156.385 206.424 156.385" fill="#FAFAFA"/>
<path d="M203.439 149.524C202.379 147.253 206.228 141.099 208.958 141.858C210.49 142.29 212.493 145.086 212.886 148.019C213.279 150.951 211.203 156.529 208.991 157.74C207.583 158.526 206.424 156.385 206.424 156.385" stroke="#263238" stroke-linecap="round" stroke-linejoin="round"/>
<path d="M36.4258 260.638L110.394 243.342L264.682 261.161L224.958 288.329L36.4258 260.638Z" fill="#FAFAFA"/>
<path d="M36.4258 260.638L110.394 243.342L264.682 261.161" fill="#FAFAFA"/>
<path d="M36.4258 260.638L110.394 243.342L264.682 261.161" stroke="#263238" stroke-linecap="round" stroke-linejoin="round"/>
<path d="M100.437 264.107L130.381 250.87L168.239 252.828L151.401 267.223L100.437 264.107Z" fill="#FAFAFA" stroke="#263238" stroke-linecap="round" stroke-linejoin="round"/>
<path d="M177.81 177.988C168.206 181.916 166.138 190.747 149.817 225.647C149.817 225.647 142.57 227.133 138.688 235.938C134.806 244.743 141.307 251.695 148.789 251.459C148.789 251.459 151.794 254.078 157.954 253.81C164.115 253.541 191.341 211.879 191.341 211.879L177.81 177.988Z" fill="#263238"/>
<path d="M152.678 227.696C156.972 231.519 159.44 237.129 158.131 243.348" stroke="#FAFAFA" stroke-linecap="round" stroke-linejoin="round"/>
<path d="M156.822 229.535C156.822 229.535 162.098 230.687 162.917 237.443" stroke="#FAFAFA" stroke-linecap="round" stroke-linejoin="round"/>
<path d="M172.258 209.765C169.765 203.614 168.904 196.923 169.758 190.342" stroke="#FAFAFA" stroke-linecap="round" stroke-linejoin="round"/>
<path d="M171.512 200.862C171.113 203.611 173.954 218.249 173.934 233.64" stroke="#FAFAFA" stroke-linecap="round" stroke-linejoin="round"/>
<path d="M243.301 180.882C255.314 186.918 256.741 205.49 245.409 227.696C237.402 243.368 226.352 266.51 219.36 268.061C212.369 269.613 205.547 265.259 205.547 265.259C205.547 265.259 199.656 264.984 197.875 260.795C193.004 249.345 205.384 234.877 210.228 238.34C210.228 238.34 225.782 204.515 228.617 202.381" fill="#263238"/>
<path d="M196.762 253.836C195.171 245.934 207.609 236.612 210.228 238.34C210.228 238.34 219.465 238.858 220.846 245.247" stroke="#FAFAFA" stroke-linecap="round" stroke-linejoin="round"/>
<path d="M230.601 255.518C236.008 245.98 245.409 227.696 245.409 227.696" stroke="#FAFAFA" stroke-linecap="round" stroke-linejoin="round"/>
<path d="M210.228 238.34C210.228 238.34 216.702 234.465 221.54 238.131" stroke="#FAFAFA" stroke-linecap="round" stroke-linejoin="round"/>
<path d="M212.441 233.633C212.441 233.633 216.015 225.778 219.642 218.576C223.269 211.375 231.57 200.711 235.02 200.194" stroke="#FAFAFA" stroke-linecap="round" stroke-linejoin="round"/>
<path d="M144.213 247.754C143.436 247.716 142.676 247.508 141.988 247.145C130.859 241.339 122.204 231.741 116.993 224.855C114.967 222.222 113.102 219.47 111.409 216.613L114.08 205.169C114.08 205.169 116.594 211.716 126.695 218.151C136.796 224.586 148.796 226.707 152.678 233.208C156.115 238.871 150.059 248.036 144.213 247.754Z" fill="#FAFAFA"/>
<mask id="mask1_46_606" style="mask-type:luminance" maskUnits="userSpaceOnUse" x="111" y="205" width="43" height="43">
<path d="M144.213 247.754C143.436 247.716 142.676 247.508 141.988 247.145C130.859 241.339 122.204 231.741 116.993 224.855C114.967 222.222 113.102 219.47 111.409 216.613L114.08 205.169C114.08 205.169 116.594 211.716 126.695 218.151C136.796 224.586 148.796 226.707 152.678 233.208C156.115 238.871 150.059 248.036 144.213 247.754Z" fill="white"/>
</mask>
<g mask="url(#mask1_46_606)">
<path opacity="0.4" d="M144.213 247.754C144.089 246.926 143.87 246.116 143.559 245.338C141.222 239.486 127.081 227.853 127.081 227.853C123.716 227.748 120.018 226.347 117.006 224.855C114.976 222.223 113.107 219.47 111.409 216.613L114.08 205.169C114.08 205.169 116.594 211.716 126.695 218.151C136.796 224.586 148.796 226.707 152.678 233.208C156.115 238.871 150.059 248.036 144.213 247.754Z" fill="#10B981"/>
</g>
<path d="M144.213 247.754C143.436 247.716 142.676 247.508 141.988 247.145C130.859 241.339 122.204 231.741 116.993 224.855C114.967 222.222 113.102 219.47 111.409 216.613L114.08 205.169C114.08 205.169 116.594 211.716 126.695 218.151C136.796 224.586 148.796 226.707 152.678 233.208C156.115 238.871 150.059 248.036 144.213 247.754Z" stroke="#263238" stroke-linecap="round" stroke-linejoin="round"/>
<path d="M119.009 215.919C119.009 215.919 117.628 222.02 113.988 220.652C112.024 219.912 108.241 214.046 107.527 211.087L119.009 215.919Z" fill="#FAFAFA" stroke="#263238" stroke-linecap="round" stroke-linejoin="round"/>
<path d="M102.964 178.348L105.936 176.817C105.936 176.817 114.335 176.889 119.546 181.124C124.279 184.973 126.682 191.003 126.682 191.003C126.682 191.003 145.071 180.849 163.853 186.676L171.512 229.365L136.299 231.669L114.322 210.793L102.964 178.348Z" fill="#FAFAFA" stroke="#263238" stroke-linecap="round" stroke-linejoin="round"/>
<path d="M173.934 231.074C173.934 231.074 169.804 230.949 164.278 231.133C155.925 231.394 144.384 232.337 139.107 235.407L138.858 235.322L134.027 233.633L133.929 233.489C133.039 232.18 125.857 221.869 115.599 217.673L101.092 177.137C101.092 177.137 116.149 177.792 124.378 191.396L128.508 192.888C128.508 192.888 153.09 185.608 166.851 188.227L173.934 231.074Z" fill="#10B981"/>
<mask id="mask2_46_606" style="mask-type:luminance" maskUnits="userSpaceOnUse" x="101" y="177" width="73" height="59">
<path d="M173.934 231.074C173.934 231.074 169.804 230.949 164.278 231.133C155.925 231.394 144.384 232.337 139.107 235.407L138.858 235.322L134.027 233.633L133.929 233.489C133.039 232.18 125.857 221.869 115.599 217.673L101.092 177.137C101.092 177.137 116.149 177.792 124.378 191.396L128.508 192.888C128.508 192.888 153.09 185.608 166.851 188.227L173.934 231.074Z" fill="white"/>
</mask>
<g mask="url(#mask2_46_606)">
<path opacity="0.3" d="M133.929 233.496C133.039 232.187 125.857 221.876 115.599 217.68L101.092 177.144C101.092 177.144 116.149 177.798 124.378 191.402L133.929 233.496Z" fill="black" fill-opacity="0.7"/>
<path opacity="0.3" d="M164.278 231.133C155.925 231.394 144.384 232.337 139.107 235.407L138.858 235.322L129.209 194.355C129.209 194.355 137.104 192.58 139.533 193.477C139.526 193.49 155.578 205.333 164.278 231.133Z" fill="black" fill-opacity="0.7"/>
</g>
<path d="M173.934 231.074C173.934 231.074 169.804 230.949 164.278 231.133C155.925 231.394 144.384 232.337 139.107 235.407L138.858 235.322L134.027 233.633L133.929 233.489C133.039 232.18 125.857 221.869 115.599 217.673L101.092 177.137C101.092 177.137 116.149 177.792 124.378 191.396L128.508 192.888C128.508 192.888 153.09 185.608 166.851 188.227L173.934 231.074Z" stroke="#263238" stroke-linecap="round" stroke-linejoin="round"/>
<path d="M128.521 192.895L137.994 232.193" stroke="#263238" stroke-linecap="round" stroke-linejoin="round"/>
<path d="M134.027 233.64L124.823 194.368" stroke="#263238" stroke-linecap="round" stroke-linejoin="round"/>
<path d="M110.643 216.645C108.542 216.063 104.306 203.435 106.244 197.994C106.244 197.994 108.548 193.995 109.517 193.72C110.983 193.294 116.902 193.418 116.613 194.414C115.959 196.718 111.416 196.679 111.416 196.679L109.943 199.376L110.002 200.862C110.002 200.862 112.142 199.304 112.928 199.35C113.334 199.35 115.429 200.397 117.091 201.274C118.512 202.027 119.383 202.44 119.055 203.12C118.001 205.385 113.517 203.775 113.517 203.775L111.828 206.322C111.828 206.322 113.458 206.603 114.172 206.682C114.885 206.76 120.81 210.708 120.633 211.199C119.933 213.123 114.316 211.042 114.316 211.042L113.321 211.873C113.321 211.873 117.458 212.94 117.903 213.097C118.558 213.339 121.078 215.277 121.039 215.5C120.738 217.202 117.262 215.951 117.262 215.951L114.217 215.827C113.754 216.236 113.196 216.524 112.594 216.665" fill="#FAFAFA"/>
<path d="M110.643 216.645C108.542 216.063 104.306 203.435 106.244 197.994C106.244 197.994 108.548 193.995 109.517 193.72C110.983 193.294 116.902 193.418 116.613 194.414C115.959 196.718 111.416 196.679 111.416 196.679L109.943 199.376L110.002 200.862C110.002 200.862 112.142 199.304 112.928 199.35C113.334 199.35 115.429 200.397 117.091 201.274C118.512 202.027 119.383 202.44 119.055 203.12C118.001 205.385 113.517 203.775 113.517 203.775L111.828 206.322C111.828 206.322 113.458 206.603 114.172 206.682C114.885 206.76 120.81 210.708 120.633 211.199C119.933 213.123 114.316 211.042 114.316 211.042L113.321 211.873C113.321 211.873 117.458 212.94 117.903 213.097C118.558 213.339 121.078 215.277 121.039 215.5C120.738 217.202 117.262 215.951 117.262 215.951L114.217 215.827C113.754 216.236 113.196 216.524 112.594 216.665" stroke="#263238" stroke-linecap="round" stroke-linejoin="round"/>
<path d="M109.975 200.862C109.975 200.862 108.011 202.511 107.507 202.989C107.003 203.467 107.128 204.986 107.128 204.986" stroke="#263238" stroke-linecap="round" stroke-linejoin="round"/>
<path d="M108.555 208.338C108.555 210.001 109.668 211.009 110.178 211.546C110.689 212.082 109.36 213.542 110.833 214.59" stroke="#263238" stroke-linecap="round" stroke-linejoin="round"/>
<path d="M205.521 261.044C201.364 262.176 196.847 254.87 191.335 246.897C187.695 241.659 183.623 236.075 178.942 232.494C178.569 232.213 178.19 231.938 177.81 231.676L180.546 217.928C186.229 220.907 189.751 225.679 195.649 230.583C205.141 238.484 213.554 243.335 215.884 246.831C218.215 250.327 212.644 259.099 205.521 261.044Z" fill="#FAFAFA"/>
<mask id="mask3_46_606" style="mask-type:luminance" maskUnits="userSpaceOnUse" x="177" y="217" width="40" height="45">
<path d="M205.521 261.044C201.364 262.176 196.847 254.87 191.335 246.897C187.695 241.659 183.623 236.075 178.942 232.494C178.569 232.213 178.19 231.938 177.81 231.676L180.546 217.928C186.229 220.907 189.751 225.679 195.649 230.583C205.141 238.484 213.554 243.335 215.884 246.831C218.215 250.327 212.644 259.099 205.521 261.044Z" fill="white"/>
</mask>
<g mask="url(#mask3_46_606)">
<path opacity="0.4" d="M191.335 246.89C187.695 241.653 183.623 236.069 178.943 232.488C179.559 232.519 180.176 232.426 180.756 232.213C180.756 232.213 188.153 238.216 191.335 246.89Z" fill="#10B981"/>
</g>
<path d="M205.521 261.044C201.364 262.176 196.847 254.87 191.335 246.897C187.695 241.659 183.623 236.075 178.942 232.494C178.569 232.213 178.19 231.938 177.81 231.676L180.546 217.928C186.229 220.907 189.751 225.679 195.649 230.583C205.141 238.484 213.554 243.335 215.884 246.831C218.215 250.327 212.644 259.099 205.521 261.044Z" stroke="#263238" stroke-linecap="round" stroke-linejoin="round"/>
<path d="M182.078 231.133C181.794 231.641 181.325 232.021 180.769 232.193C180.621 232.251 180.47 232.301 180.317 232.344H180.193C175.8 233.489 165.915 231.107 165.915 231.107C165.915 231.107 159.441 228.03 159.048 227.303C158.774 226.727 158.532 226.137 158.321 225.535L158.144 225.018C158.144 225.018 155.814 223.709 155.526 222.688C155.238 221.666 154.747 221.378 156.18 221.195C157.614 221.012 165.345 221.195 165.345 221.195L156.933 217.765C156.933 217.765 151.362 214.956 150.845 213.968C150.328 212.979 149.68 212.325 152.527 212.717C155.375 213.11 161.594 214.917 161.594 214.917L166.498 215.958L161.627 213.883C161.627 213.883 152.043 212.724 153.856 209.745H159.297C162.378 209.881 165.444 210.271 168.462 210.911C170.046 211.395 180.52 217.902 180.52 217.902" fill="#FAFAFA"/>
<mask id="mask4_46_606" style="mask-type:luminance" maskUnits="userSpaceOnUse" x="150" y="209" width="33" height="24">
<path d="M182.078 231.133C181.794 231.641 181.325 232.021 180.769 232.193C180.621 232.251 180.47 232.301 180.317 232.344H180.193C175.8 233.489 165.915 231.107 165.915 231.107C165.915 231.107 159.441 228.03 159.048 227.303C158.774 226.727 158.532 226.137 158.321 225.535L158.144 225.018C158.144 225.018 155.814 223.709 155.526 222.688C155.238 221.666 154.747 221.378 156.18 221.195C157.614 221.012 165.345 221.195 165.345 221.195L156.933 217.765C156.933 217.765 151.362 214.956 150.845 213.968C150.328 212.979 149.68 212.325 152.527 212.717C155.375 213.11 161.594 214.917 161.594 214.917L166.498 215.958L161.627 213.883C161.627 213.883 152.043 212.724 153.856 209.745H159.297C162.378 209.881 165.444 210.271 168.462 210.911C170.046 211.395 180.52 217.902 180.52 217.902" fill="white"/>
</mask>
<g mask="url(#mask4_46_606)">
<path opacity="0.4" d="M180.18 232.37C175.787 233.516 165.902 231.133 165.902 231.133C165.902 231.133 159.427 228.056 159.035 227.329C158.761 226.753 158.518 226.163 158.308 225.562L166.255 226.432C165.977 226.933 165.832 227.496 165.832 228.069C165.832 228.642 165.977 229.205 166.255 229.706C167.139 231.296 177.208 232.907 180.18 232.37Z" fill="#10B981"/>
</g>
<path d="M182.078 231.133C181.794 231.641 181.325 232.021 180.769 232.193C180.621 232.251 180.47 232.301 180.317 232.344H180.193C175.8 233.489 165.915 231.107 165.915 231.107C165.915 231.107 159.441 228.03 159.048 227.303C158.774 226.727 158.532 226.137 158.321 225.535L158.144 225.018C158.144 225.018 155.814 223.709 155.526 222.688C155.238 221.666 154.747 221.378 156.18 221.195C157.614 221.012 165.345 221.195 165.345 221.195L156.933 217.765C156.933 217.765 151.362 214.956 150.845 213.968C150.328 212.979 149.68 212.325 152.527 212.717C155.375 213.11 161.594 214.917 161.594 214.917L166.498 215.958L161.627 213.883C161.627 213.883 152.043 212.724 153.856 209.745H159.297C162.378 209.881 165.444 210.271 168.462 210.911C170.046 211.395 180.52 217.902 180.52 217.902" stroke="#263238" stroke-linecap="round" stroke-linejoin="round"/>
<path d="M158.131 225.044L167.696 226.452" stroke="#263238" stroke-linecap="round" stroke-linejoin="round"/>
<path d="M62.7884 254.333L86.7616 261.534L130.623 251.525C130.623 251.525 103.835 243.918 103.586 244.108C103.337 244.298 62.7884 254.333 62.7884 254.333Z" fill="#10B981"/>
<mask id="mask5_46_606" style="mask-type:luminance" maskUnits="userSpaceOnUse" x="62" y="244" width="69" height="18">
<path d="M62.7884 254.333L86.7616 261.534L130.623 251.525C130.623 251.525 103.835 243.918 103.586 244.108C103.337 244.298 62.7884 254.333 62.7884 254.333Z" fill="white"/>
</mask>
<g mask="url(#mask5_46_606)">
<path opacity="0.3" d="M62.7884 254.333L86.7616 261.534L130.623 251.525C130.623 251.525 103.835 243.918 103.586 244.108C103.337 244.298 62.7884 254.333 62.7884 254.333Z" fill="black" fill-opacity="0.7"/>
</g>
<path d="M62.7884 254.333L86.7616 261.534L130.623 251.525C130.623 251.525 103.835 243.918 103.586 244.108C103.337 244.298 62.7884 254.333 62.7884 254.333Z" stroke="#263238" stroke-linecap="round" stroke-linejoin="round"/>
<path d="M63.1354 245.888C61.4529 246.006 61.034 252.068 62.7884 254.333L101.517 246.294L104.62 238.949L63.1354 245.888Z" fill="#10B981"/>
<mask id="mask6_46_606" style="mask-type:luminance" maskUnits="userSpaceOnUse" x="61" y="238" width="44" height="17">
<path d="M63.1354 245.888C61.4529 246.006 61.034 252.068 62.7884 254.333L101.517 246.294L104.62 238.949L63.1354 245.888Z" fill="white"/>
</mask>
<g mask="url(#mask6_46_606)">
<path opacity="0.3" d="M63.1354 245.888C61.4529 246.006 61.034 252.068 62.7884 254.333L101.517 246.294L104.62 238.949L63.1354 245.888Z" fill="black" fill-opacity="0.7"/>
</g>
<path d="M63.1354 245.888C61.4529 246.006 61.034 252.068 62.7884 254.333L101.517 246.294L104.62 238.949L63.1354 245.888Z" stroke="#263238" stroke-linecap="round" stroke-linejoin="round"/>
<path d="M128.744 245.803C128.744 245.803 128.168 248.991 128.541 250.955L86.7158 260.422L64.6672 253.927C64.6672 253.927 62.376 249.875 64.3726 246.726L104.66 239.885L128.744 245.803Z" fill="#FAFAFA" stroke="#263238" stroke-linecap="round" stroke-linejoin="round"/>
<path d="M63.1354 245.888L104.62 238.949L130.381 245.476L87.0562 254.111L63.1354 245.888Z" fill="#10B981" stroke="#263238" stroke-linecap="round" stroke-linejoin="round"/>
<path d="M64.6083 249.764L86.5456 256.297L122.453 249.07" stroke="#263238" stroke-linecap="round" stroke-linejoin="round"/>
<path d="M128.423 249.738L89.8123 257.973" stroke="#263238" stroke-linecap="round" stroke-linejoin="round"/>
<path d="M65.1255 252.337C65.4594 252.369 81.6619 257.358 81.6619 257.358" stroke="#263238" stroke-linecap="round" stroke-linejoin="round"/>
<path d="M125.268 248.225L128.338 247.728" stroke="#263238" stroke-linecap="round" stroke-linejoin="round"/>
<path d="M85.832 258.569L84.2019 258.202" stroke="#263238" stroke-linecap="round" stroke-linejoin="round"/>
<path d="M64.3727 246.726C65.2311 247.715 65.7279 248.967 65.7814 250.275C65.835 251.584 65.4421 252.872 64.6673 253.927C63.95 252.875 63.5422 251.642 63.4901 250.369C63.4381 249.096 63.7438 247.834 64.3727 246.726Z" fill="#263238"/>
<mask id="mask7_46_606" style="mask-type:luminance" maskUnits="userSpaceOnUse" x="63" y="246" width="3" height="8">
<path d="M64.3727 246.726C65.2311 247.715 65.7279 248.967 65.7814 250.275C65.835 251.584 65.4421 252.872 64.6673 253.927C63.95 252.875 63.5422 251.642 63.4901 250.369C63.4381 249.096 63.7438 247.834 64.3727 246.726Z" fill="white"/>
</mask>
<g mask="url(#mask7_46_606)">
<path opacity="0.3" d="M64.3727 246.726C65.2311 247.715 65.7279 248.967 65.7814 250.275C65.835 251.584 65.4421 252.872 64.6673 253.927C63.95 252.875 63.5422 251.642 63.4901 250.369C63.4381 249.096 63.7438 247.834 64.3727 246.726Z" fill="white" fill-opacity="0.7"/>
</g>
<path d="M64.3727 246.726C65.2311 247.715 65.7279 248.967 65.7814 250.275C65.835 251.584 65.4421 252.872 64.6673 253.927C63.95 252.875 63.5422 251.642 63.4901 250.369C63.4381 249.096 63.7438 247.834 64.3727 246.726Z" stroke="#263238" stroke-linecap="round" stroke-linejoin="round"/>
<path d="M153.974 256.297L195.839 258.012L191.761 272.421L140.259 270.457L153.974 256.297Z" fill="#FAFAFA"/>
<mask id="mask8_46_606" style="mask-type:luminance" maskUnits="userSpaceOnUse" x="140" y="256" width="56" height="17">
<path d="M153.974 256.297L195.839 258.012L191.761 272.421L140.259 270.457L153.974 256.297Z" fill="white"/>
</mask>
<g mask="url(#mask8_46_606)">
<path opacity="0.4" d="M153.974 256.297L195.839 258.012L191.761 272.421L140.259 270.457L153.974 256.297Z" fill="#10B981"/>
</g>
<path d="M153.974 256.297L195.839 258.012L191.761 272.421L140.259 270.457L153.974 256.297Z" stroke="#263238" stroke-linecap="round" stroke-linejoin="round"/>
</svg>
