<svg width="64" height="64" viewBox="0 0 64 64" fill="none" xmlns="http://www.w3.org/2000/svg">
<path d="M45.3333 24V18.6667C45.3333 15.7212 42.9455 13.3333 40 13.3333H13.3333C10.3878 13.3333 8 15.7212 8 18.6667V34.6667C8 37.6122 10.3878 40 13.3333 40H18.6667M24 50.6667H50.6667C53.6122 50.6667 56 48.2789 56 45.3333V29.3333C56 26.3878 53.6122 24 50.6667 24H24C21.0545 24 18.6667 26.3878 18.6667 29.3333V45.3333C18.6667 48.2789 21.0545 50.6667 24 50.6667ZM42.6667 37.3333C42.6667 40.2789 40.2789 42.6667 37.3333 42.6667C34.3878 42.6667 32 40.2789 32 37.3333C32 34.3878 34.3878 32 37.3333 32C40.2789 32 42.6667 34.3878 42.6667 37.3333Z" stroke="#FAFAFA" stroke-width="4" stroke-linecap="round" stroke-linejoin="round"/>
</svg>
